<svg id="Layer_1" xmlns="http://www.w3.org/2000/svg" viewBox="31 457.5 1061.2 86.5"><style>.st0{fill:#646464;} .st1{opacity:0.34;fill:#646464;enable-background:new ;}</style><g id="Layer_1_2_"><g id="Layer_1_1_"><path class="st0" d="M248.9 511.5v-4.7h8.4c.5-.1.9-.3.9-.7v-.5c0-.5-.3-.8-.8-.9h-4.1c-.7 0-1.4-.2-2-.5-1.6-.9-2.3-2.1-2.3-3.5v-3.5c0-.3.1-.7.2-1.1.5-2.1 2-3.1 4.4-3.1h9.4l.1 4.7h-8.5c-.1 0-.2.1-.3.2-.3.3-.5.6-.5.7v.4c0 .4.3.8 1.1.9h4.1c1 0 2 .4 2.8 1.3.8.9 1.2 1.8 1.2 2.8v3.4c0 .8-.3 1.5-.7 2.2s-.9 1.2-1.6 1.6c-.5.3-1.3.4-2.2.4 0-.1-9.6-.1-9.6-.1zm17.1 0v-14.1c0-.3 0-.5.1-.9.3-2.3 1.8-3.5 4.3-3.5h6.6c2.5 0 4 1.2 4.3 3.5.1.3.1.6.1.9v14.1h-4.6v-12.7c-.1-.7-.6-1-1.6-1h-2.8c-.9 0-1.4.3-1.6 1v12.8l-4.8-.1c0 .1 0 0 0 0zm18.6-4.1v-3.8c0-1.4.4-2.4 1.2-3.2.8-.8 1.9-1.1 3.3-1.1h6.2v-.9c0-.4-.3-.6-1-.8h-9.8V493h10.8c.2 0 .4 0 .8.1 2.2.3 3.5 1.4 3.8 3.5.1.3.1.5.1.8v9.8c0 .3 0 .6-.1.9-.2 1-.7 1.9-1.5 2.5s-1.6.9-2.7.9h-6.4c-2.8 0-4.3-1.1-4.7-3.4.1-.1.1-.4 0-.7zm4.9-.8c.2.2.3.3.7.4h3.9c.8 0 1.2-.3 1.2-1v-1.3c0-.4-.2-.8-.6-1-.1-.1-.3-.2-.6-.2H290c-.4.1-.6.3-.7.9v1.5c0 .2.1.4.2.7zm13.8 11.9v-20.6c0-.3 0-.5.1-.9.3-2.2 1.4-3.5 3.5-3.9.3-.1.4-.1.6-.1h6.7c.3 0 .6 0 .9.1 2.3.4 3.5 2 3.5 4.7v9.6c0 .9-.3 1.6-.9 2.3-.1.2-.3.3-.5.6-.9.9-1.9 1.3-3 1.3h-6.4v6.9h-4.5zm4.7-12.8c.1.6.5.9 1.1 1.1h3.8c.3-.1.5-.2.8-.4.2-.3.3-.5.3-.7v-7c-.1-.5-.3-.8-.9-.9h-3.8c-.5 0-.9.3-1.1.8-.1.2-.2.4-.2.6v6.5zm14 5.8v-21.2c0-1.3.5-2.3 1.6-3.1.9-.7 2.1-1 3.5-1h2.9v4.4h-2.1c-.9.2-1.3.6-1.3 1.4v.9h3.3v4.7h-3.3v13.8H322v.1zm9.7-4.1v-3.8c0-1.4.4-2.4 1.2-3.2.8-.8 1.9-1.1 3.3-1.1h6.2v-.9c0-.4-.3-.6-1-.8h-9.7V493h10.8c.2 0 .4 0 .8.1 2.2.3 3.5 1.4 3.8 3.5.1.3.1.5.1.8v9.8c0 .3 0 .6-.1.9-.2 1-.7 1.9-1.5 2.5s-1.6.9-2.7.9h-6.5c-2.8 0-4.3-1.1-4.7-3.4.1-.1.1-.4 0-.7zm4.9-.9c.2.2.3.3.7.4h4c.8 0 1.2-.3 1.2-1v-1.3c0-.4-.2-.8-.6-.9-.1-.1-.3-.2-.6-.2h-4.1c-.4.1-.6.3-.7.9v1.5c-.1.2 0 .4.1.6zm13.6 5v-4.7h8.4c.5-.1.9-.3.9-.7v-.5c0-.5-.3-.8-.8-.9h-4.1c-.7 0-1.4-.2-2-.5-1.6-.9-2.3-2.1-2.3-3.5v-3.5c0-.3.1-.7.2-1.1.5-2.1 2-3.1 4.4-3.1h9.4l.1 4.7h-8.5c-.1 0-.2.1-.3.2-.3.3-.5.6-.5.7v.4c0 .4.3.8 1.1.9h4.1c1 0 2 .4 2.8 1.3s1.2 1.8 1.2 2.8v3.4c0 .8-.3 1.5-.6 2.2-.4.7-.9 1.2-1.6 1.6-.5.3-1.3.4-2.2.4l-9.7-.1zm17.1 0v-25.4h4.7v6.9h3.1v4.7H372v13.8h-4.7z"/><path class="st1" d="M248.9 511.5v-4.7h8.4c.5-.1.9-.3.9-.7v-.5c0-.5-.3-.8-.8-.9h-4.1c-.7 0-1.4-.2-2-.5-1.6-.9-2.3-2.1-2.3-3.5v-3.5c0-.3.1-.7.2-1.1.5-2.1 2-3.1 4.4-3.1h9.4l.1 4.7h-8.5c-.1 0-.2.1-.3.2-.3.3-.5.6-.5.7v.4c0 .4.3.8 1.1.9h4.1c1 0 2 .4 2.8 1.3.8.9 1.2 1.8 1.2 2.8v3.4c0 .8-.3 1.5-.7 2.2s-.9 1.2-1.6 1.6c-.5.3-1.3.4-2.2.4 0-.1-9.6-.1-9.6-.1zm17.1 0v-14.1c0-.3 0-.5.1-.9.3-2.3 1.8-3.5 4.3-3.5h6.6c2.5 0 4 1.2 4.3 3.5.1.3.1.6.1.9v14.1h-4.6v-12.7c-.1-.7-.6-1-1.6-1h-2.8c-.9 0-1.4.3-1.6 1v12.8l-4.8-.1c0 .1 0 0 0 0zm18.6-4.1v-3.8c0-1.4.4-2.4 1.2-3.2.8-.8 1.9-1.1 3.3-1.1h6.2v-.9c0-.4-.3-.6-1-.8h-9.8V493h10.8c.2 0 .4 0 .8.1 2.2.3 3.5 1.4 3.8 3.5.1.3.1.5.1.8v9.8c0 .3 0 .6-.1.9-.2 1-.7 1.9-1.5 2.5s-1.6.9-2.7.9h-6.4c-2.8 0-4.3-1.1-4.7-3.4.1-.1.1-.4 0-.7zm4.9-.8c.2.2.3.3.7.4h3.9c.8 0 1.2-.3 1.2-1v-1.3c0-.4-.2-.8-.6-1-.1-.1-.3-.2-.6-.2H290c-.4.1-.6.3-.7.9v1.5c0 .2.1.4.2.7zm13.8 11.9v-20.6c0-.3 0-.5.1-.9.3-2.2 1.4-3.5 3.5-3.9.3-.1.4-.1.6-.1h6.7c.3 0 .6 0 .9.1 2.3.4 3.5 2 3.5 4.7v9.6c0 .9-.3 1.6-.9 2.3-.1.2-.3.3-.5.6-.9.9-1.9 1.3-3 1.3h-6.4v6.9h-4.5zm4.7-12.8c.1.6.5.9 1.1 1.1h3.8c.3-.1.5-.2.8-.4.2-.3.3-.5.3-.7v-7c-.1-.5-.3-.8-.9-.9h-3.8c-.5 0-.9.3-1.1.8-.1.2-.2.4-.2.6v6.5zm14 5.8v-21.2c0-1.3.5-2.3 1.6-3.1.9-.7 2.1-1 3.5-1h2.9v4.4h-2.1c-.9.2-1.3.6-1.3 1.4v.9h3.3v4.7h-3.3v13.8H322v.1zm9.7-4.1v-3.8c0-1.4.4-2.4 1.2-3.2.8-.8 1.9-1.1 3.3-1.1h6.2v-.9c0-.4-.3-.6-1-.8h-9.7V493h10.8c.2 0 .4 0 .8.1 2.2.3 3.5 1.4 3.8 3.5.1.3.1.5.1.8v9.8c0 .3 0 .6-.1.9-.2 1-.7 1.9-1.5 2.5s-1.6.9-2.7.9h-6.5c-2.8 0-4.3-1.1-4.7-3.4.1-.1.1-.4 0-.7zm4.9-.9c.2.2.3.3.7.4h4c.8 0 1.2-.3 1.2-1v-1.3c0-.4-.2-.8-.6-.9-.1-.1-.3-.2-.6-.2h-4.1c-.4.1-.6.3-.7.9v1.5c-.1.2 0 .4.1.6zm13.6 5v-4.7h8.4c.5-.1.9-.3.9-.7v-.5c0-.5-.3-.8-.8-.9h-4.1c-.7 0-1.4-.2-2-.5-1.6-.9-2.3-2.1-2.3-3.5v-3.5c0-.3.1-.7.2-1.1.5-2.1 2-3.1 4.4-3.1h9.4l.1 4.7h-8.5c-.1 0-.2.1-.3.2-.3.3-.5.6-.5.7v.4c0 .4.3.8 1.1.9h4.1c1 0 2 .4 2.8 1.3s1.2 1.8 1.2 2.8v3.4c0 .8-.3 1.5-.6 2.2-.4.7-.9 1.2-1.6 1.6-.5.3-1.3.4-2.2.4l-9.7-.1zm17.1 0v-25.4h4.7v6.9h3.1v4.7H372v13.8h-4.7z"/></g><g id="Layer_2_1_"><path class="st0" d="M1037.8 508.4c1.8 3.4 3.4 6.4 5.1 9.3.2.5 1.1.6 1.6.6 7.7.1 15.4 0 23.1 0h2.2c-1.5 2.6-3 4.9-4.1 7.5-1.1 2.5-2.8 3-5.4 3-7.3-.2-14.5-.1-21.7-.1-.9 0-1.5-.2-2-1.1-1.1-2-2.3-4-3.5-6-.2-.2-.3-.5-.5-.8-1.3 2.4-2.5 4.7-3.8 7-.2.5-.9.8-1.5.8-5 .1-9.9.1-14.9 0-.5 0-1.2-.4-1.5-.8-2.8-4.7-5.6-9.5-8.4-14.2l-8.4-14.1c-.9-1.5-1.8-2.8-2.5-4.4-.2-.5-.1-1.5.2-2 1.7-3 3.6-5.9 5.6-9l2.7 4.5c2.5 4.4 5.1 8.8 7.6 13.1 3 5.1 5.9 10.2 8.8 15.3.5.9 1.2 1.3 2.3 1.2 3.2-.1 6.4-.2 9.5.1 2 .2 2.9-.7 3.6-2.3 1.4-2.7 2.8-5.5 4.4-8.2 2.3-4.1 4.5-8.3 6.7-12.5.2-.3.4-.5.5-.9 2.6 4.5 5.2 9.1 7.9 13.8-4.6.2-8.9.2-13.6.2z"/><path class="st0" d="M998.1 483.1c2.1-3.5 4.1-6.7 6-10 .3-.5.9-.8 1.5-.8 3.2-.1 6.3 0 9.5-.1 1.2-.1 1.6.5 2.2 1.3 3 5 5.9 9.9 8.8 14.9.5.9 1.1 1.9 1.7 3 2-3.8 4-7.5 5.9-11.1 1.3-2.5 2.5-5 3.8-7.5.2-.4.7-.6 1.1-.6 5.5-.1 10.8-.1 16.3 0 .5 0 .9.5 1.2.8 2.3 3.7 4.5 7.4 6.8 11.1l7 11.6c2 3.2 3.9 6.5 5.8 9.7.3.5.5 1.4.2 1.8-1.6 3.1-3.4 6.2-5.1 9.5-2.1-3.4-4.1-6.6-5.9-9.8-2.1-3.5-4.1-7-6.3-10.6-2.5-4.1-4.9-8.2-7.4-12.3-.5-.7-.9-1-1.7-.9-3.9.1-7.8.1-11.7 0-1.3 0-1.7.5-2.3 1.5-3.8 7.3-7.7 14.5-11.6 22-1.6-2.7-3.2-5.3-4.7-7.9l-4.8-8.3c-1.3-2.1-2.5-4.1-3.7-6.3-.5-.9-1-1-1.9-.9-3.5-.1-6.9-.1-10.7-.1z"/></g></g><g id="Layer_2"><path class="st0" d="M759.3 492.4s1.5-.8 1.7-3.3c0 0 0-1.3-.2-2.9 0 0-.2-1-.5-1.4 0 0-1.4-.2-3.1.3 0 0-4.3 1-10.8 4.6 0 0-2.8 1.7-3.3 2 0 0-.8.5.2 1 0 0 .9.2 2.1.1h.4s-1.8 1.3-2.4 1.6c0 0-2.4 1.5-3.3 3 0 0-1.2 1.5-1 4.3 0 0 .2 3.6 2.1 7.5 0 0 .5 1 1.2 1.8 0 0 .3.5 1.4.4 0 0 5.7.3 8.9-.3 0 0 4.8-.5 5.1-2.8 0 0 .1-1.3 0-1.8 0 0 0-.2.3-.2 0 0 2.6-.8 3.1-2.4 0 0 .2-.5.3-1.8 0 0 .2-.8-.2-1.2 0 0-.2-.3-.7-.2 0 0-2.4.5-4.1.8 0 0-5.7 1.1-10.8.6 0 0-2.4.2-1.4-1.4 0 0 .9-1.3 3.3-2.8 0 0 3.5-2.2 6.3-3.3-.4-.2 4-2.1 5.4-2.2zm17.6 19.6l-.5-2.9c-.5-2.7-.4-4.9-.4-4.9.1-1.4.5-4.2.5-4.2.1-.9-.1-1.3-.1-1.3-1.4-2.2-3.3-4-3.3-4-.5-.6-1.1-.2-1.1-.2l-.3.2c-.6.5-1-.1-1-.1-.8-.6-1.3-.1-1.3-.1-.6.5-2.7 2.3-2.7 2.3-.3.5 0 .8 0 .9 0 .2-.2.4-.2.4-.5.6-2.4 4-2.4 4-.9 1.3-1.5 3.4-1.5 3.4-.5 1.3-.5 4.3-.5 4.3.1 1 .8 1.7.8 1.7.6.9 1.4.5 1.4.5.7-.1 2.9-1.9 2.9-1.9.6-.5 3.3-2.5 3.3-2.5l.2.1c.5 1 2.5 4.1 2.5 4.1.4.5.6.5.6.5l.6.2 1.4.3c1.4.4 1.1-.8 1.1-.8zm-7.3-9.6s-2.4 1.9-3.3 2.7c0 0-.6 1-.5-.2 0 0 0-.9 1-2.4 0 0 .6-1.2 1.1-1.6 0 0 .5-.1 1.2.5 0 0 .7.5.5 1zm17.9-17.3s.3-.5 1-.5h.9s.5-.1.6.8l.2 2.6s.2.7-.5 2c0 0-.4.8-.6 1.7l-2.4 7.3s-.2.3.2.3c0 0 1.3.3 1.3 1.3 0 0 0 .2.5 0 0 0 1.3-.5 1.1 1.1 0 0 0 1.3-1 3.3 0 0 .5 6.3.6 8.7 0 0 .1 1.8.1 2.8 0 0 .2 1-1.1 1.7 0 0-2.2 1.3-3.7 1.3 0 0-.5.2-1.1-.4 0 0-1.7-2-2.7-4.6 0 0-.9-2.2-1.2-3.1 0 0-.7-2.1-.7-4.2 0 0 .1-3 .7-5.2 0 0 1.3-4.5 3.3-8.6 0 0 2.5-4.9 3.3-6.4l1.2-1.9z"/><path class="st0" d="M785.6 512.2c0 1 .4 1.6.4 1.6.4.3.9-1.3.9-1.3l.2-5.2c0-.5-.5-.5-.5-.5h-.5c-.5 0-.5.5-.5.5-.2 2 0 4.9 0 4.9zm17.5-6.4s-1.6.5-3-.1c0 0-1.1-.5-1.4-1 0 .2-.2 0-.1-.2 0 0 4.4-3.7 5.2-5.2 0 0 1.1-1.8.9-3.1 0 0-.6-1.2-3-1.4 0 0-1.7-.3-3-.1 0 0-.5.2-1.1.5 0 0-2.5 1.7-4.8 5.5 0 0-1.4 2.1-1.4 5.1 0 0-.2 1.7 1 3.3 0 0 1.4 2.2 4.1 2.6 0 0 2.8.5 4.7-.3 0 0 1-.3 1.2-1.4 0 0 .1-.5.3-.8 0 0 .2-.3.5-.4 0 0 1.1-.5 1.1-1.3v-1.3c-.1.1-.1-.7-1.2-.4zm-5.5-4s.1-1 .9-2.2c0 0 .5-1.1 1.3-1.4 0 0 1.2-.2 1.5.5 0 0-.5.6-1.8 1.9-.2 0-1.9 1.4-1.9 1.2zm42.5 5c0-.9-1-1-1-1-.8-.1-2.5-.6-2.5-.6-3.4-1.1-6.7-3.6-6.7-3.6-1.9-1.3-3.3-3-3.3-3 1.8-.1 6.4-.5 6.4-.5 2.2-.1 4.2-.6 4.2-.6 3-.7 2.7-2.4 2.7-2.4-.1-1.3-.5-3.3-.5-3.3-.3-.7-.5-2.2-.5-2.2-.3-1.5-2.5-2.5-2.5-2.5-2.5-1.3-6.4-2-6.4-2-2.1-.5-4.9-.5-4.9-.5-.5 0-1.4.3-1.4.3l-2.4.7c-1.1.3-2.3.5-2.3.5-1.3 0-1.3 1-1.3 1 0 .7-.2 1.7-.2 1.7-.1 1 .8 1 1.1.7l.8.1c.7.2.5.7.5.7l-.3 2.4c-.5 2.8-.8 5.4-1 8.4v.1c-.3 3 .3 7.5.3 7.5.3.9.8 1.4.8 1.4.5.4 1.8.9 1.8.9 1.6.9 1.8-.7 1.8-.7l.3-3c0-.8.2-1 .2-1 1.6 1.1 5.3 3 5.3 3 2.9 1.4 5.2 1.8 5.2 1.8.9 0 1-.2 1-.2.9-.8 2.4-2.1 2.4-2.1.6-.5 1.5-.6 1.5-.6 1.3-.4.9-1.4.9-1.4zm-14.2-15c.4-.2 1.8.1 2 .2 2.7.3 5.9 1.3 5.9 1.3.7.3.7.5.7.5-.1.6-2.5 1.1-2.5 1.1-2.8.8-6.8 1.4-6.8 1.4.2-1.8.7-4.5.7-4.5zm18.2 1.5l2.9-3.1s.4-.4.8-.5l2.8-.8s.6-.3 1 .5l.6 1.4s.5.6-.3 1.4l-4 3.3s-.6.6-1.7 0l-1.8-1.3s-.7-.4-.3-.9zm4.2 4.1s1-.5 1.7-.5c0 0 .2-.1.7.7 0 0 .6.7.5 1.7 0 0-.6 3.5-.9 6 0 0-.8 5-.9 5.4 0 0-.3 1.6-2.2 1 0 0-1.3-.4-2.3-1 0 0-.6-.5-.9-1.2 0 0-.5-1.7-.5-2.1 0 0-.1-.5-.7-.5h-.6s-.5.1-.5-1c0 0-.2-1.4 0-2.1 0 0 .2-1.1 1.1-2.2 0 0 1.6-2.1 5.5-4.2zm17 .2c-2.9-2.7-4.8-2.9-4.8-2.9-2-.6-3.2.4-3.2.4l-3.1 3.2c-.6.5-.1 1.2 0 1.3.4.7.2 1.7.2 1.7-.4 1.5-.5 4.6-.5 4.6-.2 1.7.2 4.1.2 4.1 0 1.1 1 1.6 1 1.6 1.4.8 3.7-.3 3.7-.3 2.4-1.4 3.7-3.3 3.7-3.3 2.9-4 3.4-7 3.4-7 .5-2.4-.6-3.4-.6-3.4zm-5.4 5.9s-1.7 1.7-2.3 1.1c0 0-.3-.7-.2-2.5 0 0 0-.6.1-.5 0 0 2.1.8 2.6 1.5.1-.1 0 .2-.2.4z"/></g><path class="st0" d="M550.7 491.7v1.9c1.1-.3 2.3-.5 3.4-.8v-1.9c-.4.1-.7.2-1.1.2v-7.7c.6-.1 1.2-.3 1.8-.4l1.3 9.2v.2c1-.2 2-.3 3-.4v-1.9c-.5.1-.9.1-1.4.2l-1-7.6 1.9-.3v-6c-2.6.3-5.3.7-7.8 1.4v1.9c.2 0 .3-.1.5-.1v12.1h-.6zm6-13.2v2.4c-1.3.2-2.4.4-3.7.6v-2.4c1.2-.1 2.5-.4 3.7-.6z"/><path class="st0" d="M578.9 474.3c-4.2-1.2-8.6-1.8-13.1-1.9v1.9h.7V490h-4v-15.8h.7v-1.9c-4.4.1-8.8.7-13.1 1.9v1.9c3.4-.9 6.9-1.5 10.5-1.8V492c1.3-.1 2.6-.2 3.9-.2 1.3 0 2.6.1 3.9.2v-17.6c3.6.3 7.1.9 10.5 1.8v-1.9z"/><path class="st0" d="M578.2 481.2v-3.4c-2.6-.6-5.2-1.1-7.8-1.4v3.4c.6.1 1.3.2 1.9.2v-1.5c.4.1.8.1 1.2.2v12.1c-.4-.1-.7-.1-1.1-.2v1.9c1.3.2 2.5.5 3.8.7v-1.9c-.3-.1-.6-.1-.9-.2V479l1.2.3v1.5c.5.1 1.1.2 1.7.4zm2.2-4.5c.4.1.7.3 1.1.4v4.1c-.2 0-.3-.1-.5-.1v2c.2 0 .3.1.5.2v9.6c-.4-.1-.7-.3-1.1-.4v2c2.7.8 5.2 1.8 7.7 3.1l.1-3.2c-.6-.3-1.3-.5-1.8-.8v1.2c-1-.5-2-.8-3.1-1.2V484l2.2.8v-2l-2.2-.8v-4.1c1.2.5 2.3.9 3.4 1.4v1.6c.6.3 1.3.5 1.8.8l.1-3.6c-2.7-1.3-5.4-2.3-8.2-3.2v1.8zm-22-7.8c-6.7.7-13.2 2.7-19.3 5.7l.1 2.1c5.9-3.2 12.5-5.1 19.2-5.9v-1.9zm12.2 0v1.9c6.7.7 13.1 2.7 19 5.8l.1-2.1c-6-3-12.5-4.9-19.1-5.6zm-21.9 30.4v-3.1c-2.8.8-5.5 1.8-8.1 3.1v.1l.2 5.9h.1c2.1.2 4.1.5 6 .7v10.3c-1.4-.4-2.6-.6-4.1-.8l-.1-5.6c.5-.2 1-.5 1.4-.6v-2c-1.1.5-2.3.9-3.3 1.4l.2 8.4c2.7.4 5.2 1 7.7 1.6v-14.3c-2.1-.4-4.1-.6-6.1-.8l-.1-3.1c1.4-.6 2.9-1.2 4.4-1.7v1.1l1.8-.6zm15.8 32.6c-3.7-3.2-8.1-5.8-13.2-7.7-3.4-1.3-7.1-2.2-11-2.7l.1 1.9c3.7.5 7.1 1.4 10.3 2.6 5.2 2 9.7 4.7 13.2 7.8l.6.5.6-.5c3.6-3.2 8.1-5.9 13.2-7.8 3.2-1.2 6.5-2.1 10.1-2.5l.1-1.9c-3.8.5-7.4 1.4-10.8 2.7-5.1 1.8-9.6 4.6-13.2 7.6z"/><path class="st0" d="M558.5 526.1V525c-.5-.6-1.2-1.7-1.7-3.3.6.3 1.2.5 1.7.8V498c-3.1.4-6 .9-9 1.7v1.9c.3-.1.5-.2.8-.2v17.7c1.6.5 3.2 1.1 4.6 1.7.2.6.4 1.2.5 1.7-4.6-2.1-9.8-3.6-15.4-4.4l.1 1.9c3.5.5 6.8 1.3 9.9 2.3 3.1 1.1 5.9 2.4 8.5 3.8zm-6.3-8.3v-16.9c1.4-.4 3-.6 4.4-.8v19.5l-.5-.3c-.2-.8-.3-1.8-.4-2.8-.5-.2-1-.4-1.5-.5 0 1 .1 1.9.3 2.7-.7-.4-1.5-.7-2.3-.9zm8.4 7.4v2.2c1.2.7 2.3 1.5 3.2 2.3l.5.5.5-.5c1.1-.8 2.2-1.6 3.3-2.3v-2.2c-1.4.8-2.7 1.7-3.9 2.6-1-.8-2.2-1.7-3.6-2.6z"/><path class="st0" d="M578.9 495.9c-4.2-1.2-8.6-1.8-13.1-1.9v1.9h.7v26.7c-.7.5-1.4.8-2 1.3-.6-.5-1.4-.8-2-1.3v-26.7h.7V494c-4.4.1-8.8.7-13.1 1.9v1.9c3.4-.9 6.9-1.5 10.5-1.8v27.7h.1c1.2.6 2.3 1.4 3.2 2.1l.5.4.5-.4 3.3-2.1V496c3.6.3 7.1.9 10.5 1.8l.2-1.9z"/><path class="st0" d="M572.3 505.8c1.3.2 2.5.5 3.8.7l1.4 11.1c-.5.2-.9.3-1.4.5v2c1.1-.5 2.3-.8 3.3-1.2l-2.3-17.7c.4.1.6.2 1 .3v-1.9c-2.5-.6-5.1-1.1-7.7-1.4v5.7h-.4v1.9h.4v20.6c5.1-3 11.3-5 18-6l.1-1.9c-5.9.8-11.4 2.5-16.2 4.9v-17.6zm0-5.8l3 .5.5 3.9c-1.2-.3-2.3-.5-3.5-.6V500z"/><path class="st0" d="M580.4 516.6v1.9c2.3-.6 4.8-1.2 7.3-1.6l.5-17.7c-2.5-1.2-5-2.2-7.7-2.9v2l.8.3v17.9c-.3-.1-.6 0-.9.1zm2.7-17.5c1.1.4 2.1.8 3.2 1.3l-.4 15c-.9.2-1.9.4-2.8.5v-16.8zm-14-29.2h-.5v.2c-.4 0-.8-.1-1.3-.1v-1h.8v-.5h-.8v-.7c.5 0 .8 0 1.3.1v.3h.5v-.8c-.8-.1-1.5-.1-2.3-.2v2.6h-.4v.5c.9 0 1.8.1 2.7.2v-.6zm-9.4-1.5c.2 0 .4 0 .5-.1v-.5c.2 0 .5 0 .6-.1v2.1h-.2v.5c.4 0 .6 0 1-.1v-.5h-.3v-2.1c.8 0 1.6-.1 2.4-.1v-.5c-1.4 0-2.8.1-4.2.2l.2 1.2zM564.6 468.9h-1v-.5h-.5v1.5h-.3v.5h1.2v-.5h-.4v-.5h1.7v.5h-.4v.5h.9v-2.6h.4v-.5h-1.3v.5h.4v1.1h-.7zm-15.5 10.2c-.2 0-.4.1-.5.1v-4.6c-3 .9-5.9 2-8.6 3.3l.1 2.1c.5-.2.9-.5 1.4-.6V495l-1 .5.1 2.1c2.8-1.4 5.7-2.5 8.6-3.3l-.1-15.2zm-5.8-.5l3.5-1.4v2.7c-1.2.4-2.3.8-3.5 1.3v-2.6zm4 14.1c-1.4.5-2.7.9-4 1.4v-11c1.3-.5 2.6-1.1 4-1.5v11.1zM81.5 471.4h16.9v40.5zM69.6 471.4h-17v40.5zM75.5 486.4l10.8 25.5h-7.1l-3.2-8.1h-7.9zM55.8 530.6l-.7 3.5c0 .1-.1.2-.2.2h-2.1c-.1 0-.2 0-.2-.2l3-12.7c.1-.4.1-.6.1-1.2 0-.1 0-.1.1-.1h3.1c.1 0 .2 0 .2.2l3.5 14c0 .1 0 .2-.1.2h-2.4c-.1 0-.2-.1-.2-.2l-.8-3.5h-3.3v-.2zm2.7-2.4c-.3-1.6-.9-4.1-1.1-5.7-.2 1.6-.7 3.7-1 5.7h2.1zM62.9 528.8c0-3.3 1.9-5.8 5-5.8h.4v-3.8c0-.1 0-.1.1-.1h2.4c.1 0 .1 0 .1.1V532c0 .3 0 .8.1 1.5 0 .1 0 .1-.1.2-.9.5-2.1.8-3.2.8-2.9-.1-4.8-1.9-4.8-5.7zm5.3-3.4c-.1 0-.2-.1-.5-.1-1.2 0-2.2 1.1-2.2 3.4 0 2.4.9 3.3 2.2 3.3.2 0 .4 0 .5-.1v-6.5zM80.4 528.7c0 3.5-1.5 5.8-4.1 5.8-2.9 0-4.1-2.5-4.1-5.8s1.5-5.7 4.1-5.7c2.6 0 4.1 2.1 4.1 5.7zm-5.5 0c0 2.1.4 3.4 1.4 3.4s1.4-1.2 1.4-3.4c0-2.1-.4-3.4-1.4-3.4-.9 0-1.4 1.1-1.4 3.4zM84.3 519.1c.1 0 .1 0 .1.1v3.9c.3-.1.7-.1 1.2-.1 2.3 0 4.1 1.8 4.1 5.2 0 4-2.3 6.2-5.2 6.2-.8 0-1.7-.1-2.6-.4-.1 0-.1-.1-.1-.2v-14.7c0-.1 0-.1.1-.1l2.4.1zm.9 6.3c-.2 0-.6 0-.8.1v6.6h.5c1 0 2.2-1 2.2-3.8 0-2.2-.9-2.9-1.9-2.9zM93.3 529.3c0 1.7.6 2.8 2.5 2.8.6 0 1.1-.1 1.7-.3.1 0 .2 0 .2.1v1.9c0 .2 0 .2-.2.3-.6.3-1.5.4-2.2.4-3.3 0-4.5-2.4-4.5-5.6 0-3.3 1.5-5.9 4.1-5.9 2.7 0 3.5 2.4 3.5 4.4 0 .7-.1 1.4-.1 1.7 0 .1-.1.2-.2.2-.2 0-.9.1-2.1.1h-2.7v-.1zm1.9-2.1h.7v-.2c0-.8-.3-1.7-1.2-1.7-.9 0-1.2.9-1.4 2l1.9-.1z"/></svg>