<svg id="Layer_1" xmlns="http://www.w3.org/2000/svg" viewBox="31 457.5 1061.2 86.5"><style>.st0{fill:#646464;} .st1{opacity:0.34;fill:#646464;enable-background:new ;}</style><g id="Layer_1_2_"><path class="st0" d="M90.6 467.1h28V534l-28-66.9zm-19.6 0H43V534l28-66.9zm9.8 24.6L98.6 534H86.9l-5.3-13.5h-13l12.2-28.8z"/><g id="Layer_1_1_"><path class="st0" d="M221.1 513.2v-5.5h9.7c.6-.1 1-.4 1.1-.8v-.6c0-.6-.3-.9-.9-1h-4.7c-.8 0-1.6-.2-2.3-.6-1.8-1-2.7-2.4-2.7-4v-4c0-.4.1-.8.2-1.3.6-2.4 2.3-3.6 5.1-3.6h10.9l.1 5.5h-9.9c-.1 0-.2.1-.4.2-.4.4-.6.7-.6.8v.5c0 .5.4.9 1.3 1h4.8c1.2 0 2.3.5 3.3 1.5s1.4 2.1 1.4 3.3v3.9c0 .9-.3 1.7-.8 2.5s-1.1 1.4-1.8 1.8c-.6.3-1.5.5-2.5.5-.1-.1-11.3-.1-11.3-.1zm19.9 0v-16.3c0-.3 0-.6.1-1 .4-2.7 2.1-4.1 5-4.1h7.6c2.9 0 4.6 1.4 5 4.1.1.4.1.7.1 1v16.3h-5.4v-14.7c-.1-.8-.7-1.2-1.8-1.2h-3.3c-1.1 0-1.6.4-1.8 1.2v14.8l-5.5-.1c0 .1 0 0 0 0zm21.5-4.8V504c0-1.6.5-2.8 1.4-3.7.9-.9 2.2-1.3 3.8-1.3h7.2v-1.1c0-.5-.4-.7-1.2-.9h-11.3v-5.2h12.5c.2 0 .5 0 .9.1 2.5.3 4 1.6 4.4 4 .1.3.1.6.1.9v11.4c0 .4 0 .7-.1 1-.2 1.2-.8 2.2-1.7 2.9-.9.7-1.9 1.1-3.1 1.1H268c-3.2 0-5-1.3-5.4-3.9 0-.1 0-.5-.1-.9zm5.7-.9c.2.2.4.4.8.5h4.5c.9 0 1.4-.4 1.4-1.2v-1.5c0-.5-.2-.9-.7-1.1-.1-.1-.4-.2-.7-.2h-4.8c-.5.1-.7.4-.8 1.1v1.7c0 .2.1.4.3.7zm15.9 13.8v-23.8c0-.3 0-.6.1-1.1.3-2.6 1.6-4.1 4-4.5.3-.1.5-.1.7-.1h7.8c.3 0 .7 0 1.1.1 2.7.5 4.1 2.3 4.1 5.4v11.1c0 1-.3 1.9-1 2.7-.1.2-.3.4-.6.7-1 1-2.2 1.5-3.5 1.5h-7.4v8h-5.3zm5.5-14.8c.1.7.6 1.1 1.3 1.3h4.4c.4-.1.6-.2.9-.5.2-.4.3-.6.3-.8v-8.1c-.1-.6-.4-.9-1-1h-4.4c-.6 0-1.1.3-1.3.9-.1.2-.2.5-.2.7v7.5zm16.2 6.7v-24.5c0-1.5.6-2.7 1.8-3.6 1.1-.8 2.4-1.2 4-1.2h3.4v5.1h-2.4c-1 .2-1.5.7-1.5 1.6v1.1h3.8v5.5h-3.8v16h-5.3zm11.2-4.8V504c0-1.6.5-2.8 1.4-3.7.9-.9 2.2-1.3 3.8-1.3h7.2v-1.1c0-.5-.4-.7-1.2-.9H317v-5.2h12.5c.2 0 .5 0 .9.1 2.5.3 4 1.6 4.4 4 .1.3.1.6.1.9v11.4c0 .4 0 .7-.1 1-.2 1.2-.8 2.2-1.7 2.9-.9.7-1.9 1.1-3.1 1.1h-7.5c-3.2 0-5-1.3-5.4-3.9 0-.1 0-.5-.1-.9zm5.7-1c.2.2.4.4.8.5h4.6c.9 0 1.4-.4 1.4-1.2v-1.5c0-.5-.2-.9-.7-1.1-.1-.1-.4-.2-.7-.2h-4.8c-.5.1-.7.4-.8 1.1v1.7c0 .3.1.5.2.7zm15.7 5.8v-5.5h9.7c.6-.1 1-.4 1.1-.8v-.6c0-.6-.3-.9-.9-1h-4.7c-.8 0-1.6-.2-2.3-.6-1.8-1-2.7-2.4-2.7-4v-4c0-.4.1-.8.2-1.3.6-2.4 2.3-3.6 5.1-3.6h10.9l.1 5.5H345c-.1 0-.2.1-.4.2-.4.4-.6.7-.6.8v.5c0 .5.4.9 1.3 1h4.8c1.2 0 2.3.5 3.3 1.5s1.4 2.1 1.4 3.3v3.9c0 .9-.3 1.7-.7 2.5-.5.8-1.1 1.4-1.8 1.8-.6.3-1.5.5-2.5.5l-11.4-.1zm19.8 0v-29.4h5.4v8h3.6v5.5h-3.6v16c.1-.1-5.4-.1-5.4-.1z"/><path class="st1" d="M221.1 513.2v-5.5h9.7c.6-.1 1-.4 1.1-.8v-.6c0-.6-.3-.9-.9-1h-4.7c-.8 0-1.6-.2-2.3-.6-1.8-1-2.7-2.4-2.7-4v-4c0-.4.1-.8.2-1.3.6-2.4 2.3-3.6 5.1-3.6h10.9l.1 5.5h-9.9c-.1 0-.2.1-.4.2-.4.4-.6.7-.6.8v.5c0 .5.4.9 1.3 1h4.8c1.2 0 2.3.5 3.3 1.5s1.4 2.1 1.4 3.3v3.9c0 .9-.3 1.7-.8 2.5s-1.1 1.4-1.8 1.8c-.6.3-1.5.5-2.5.5-.1-.1-11.3-.1-11.3-.1zm19.9 0v-16.3c0-.3 0-.6.1-1 .4-2.7 2.1-4.1 5-4.1h7.6c2.9 0 4.6 1.4 5 4.1.1.4.1.7.1 1v16.3h-5.4v-14.7c-.1-.8-.7-1.2-1.8-1.2h-3.3c-1.1 0-1.6.4-1.8 1.2v14.8l-5.5-.1c0 .1 0 0 0 0zm21.5-4.8V504c0-1.6.5-2.8 1.4-3.7.9-.9 2.2-1.3 3.8-1.3h7.2v-1.1c0-.5-.4-.7-1.2-.9h-11.3v-5.2h12.5c.2 0 .5 0 .9.1 2.5.3 4 1.6 4.4 4 .1.3.1.6.1.9v11.4c0 .4 0 .7-.1 1-.2 1.2-.8 2.2-1.7 2.9-.9.7-1.9 1.1-3.1 1.1H268c-3.2 0-5-1.3-5.4-3.9 0-.1 0-.5-.1-.9zm5.7-.9c.2.2.4.4.8.5h4.5c.9 0 1.4-.4 1.4-1.2v-1.5c0-.5-.2-.9-.7-1.1-.1-.1-.4-.2-.7-.2h-4.8c-.5.1-.7.4-.8 1.1v1.7c0 .2.1.4.3.7zm15.9 13.8v-23.8c0-.3 0-.6.1-1.1.3-2.6 1.6-4.1 4-4.5.3-.1.5-.1.7-.1h7.8c.3 0 .7 0 1.1.1 2.7.5 4.1 2.3 4.1 5.4v11.1c0 1-.3 1.9-1 2.7-.1.2-.3.4-.6.7-1 1-2.2 1.5-3.5 1.5h-7.4v8h-5.3zm5.5-14.8c.1.7.6 1.1 1.3 1.3h4.4c.4-.1.6-.2.9-.5.2-.4.3-.6.3-.8v-8.1c-.1-.6-.4-.9-1-1h-4.4c-.6 0-1.1.3-1.3.9-.1.2-.2.5-.2.7v7.5zm16.2 6.7v-24.5c0-1.5.6-2.7 1.8-3.6 1.1-.8 2.4-1.2 4-1.2h3.4v5.1h-2.4c-1 .2-1.5.7-1.5 1.6v1.1h3.8v5.5h-3.8v16h-5.3zm11.2-4.8V504c0-1.6.5-2.8 1.4-3.7.9-.9 2.2-1.3 3.8-1.3h7.2v-1.1c0-.5-.4-.7-1.2-.9H317v-5.2h12.5c.2 0 .5 0 .9.1 2.5.3 4 1.6 4.4 4 .1.3.1.6.1.9v11.4c0 .4 0 .7-.1 1-.2 1.2-.8 2.2-1.7 2.9-.9.7-1.9 1.1-3.1 1.1h-7.5c-3.2 0-5-1.3-5.4-3.9 0-.1 0-.5-.1-.9zm5.7-1c.2.2.4.4.8.5h4.6c.9 0 1.4-.4 1.4-1.2v-1.5c0-.5-.2-.9-.7-1.1-.1-.1-.4-.2-.7-.2h-4.8c-.5.1-.7.4-.8 1.1v1.7c0 .3.1.5.2.7zm15.7 5.8v-5.5h9.7c.6-.1 1-.4 1.1-.8v-.6c0-.6-.3-.9-.9-1h-4.7c-.8 0-1.6-.2-2.3-.6-1.8-1-2.7-2.4-2.7-4v-4c0-.4.1-.8.2-1.3.6-2.4 2.3-3.6 5.1-3.6h10.9l.1 5.5H345c-.1 0-.2.1-.4.2-.4.4-.6.7-.6.8v.5c0 .5.4.9 1.3 1h4.8c1.2 0 2.3.5 3.3 1.5s1.4 2.1 1.4 3.3v3.9c0 .9-.3 1.7-.7 2.5-.5.8-1.1 1.4-1.8 1.8-.6.3-1.5.5-2.5.5l-11.4-.1zm19.8 0v-29.4h5.4v8h3.6v5.5h-3.6v16c.1-.1-5.4-.1-5.4-.1z"/></g><g id="Layer_2_1_"><path class="st0" d="M1037.1 510.8c2.3 4.3 4.4 8.2 6.5 11.9.3.6 1.4.8 2.1.8 9.8.1 19.7 0 29.5 0h2.8c-1.9 3.3-3.8 6.3-5.2 9.6-1.4 3.2-3.6 3.9-6.9 3.8-9.3-.3-18.6-.1-27.8-.1-1.2 0-1.9-.3-2.5-1.4-1.4-2.6-3-5.1-4.5-7.7-.2-.3-.4-.6-.7-1-1.7 3.1-3.2 6-4.9 8.9-.3.6-1.2 1-1.9 1-6.4.1-12.7.1-19.1 0-.6 0-1.5-.5-1.9-1-3.6-6-7.1-12.2-10.7-18.2-3.6-6-7.1-12-10.7-18-1.1-1.9-2.3-3.6-3.2-5.6-.3-.6-.1-1.9.3-2.5 2.2-3.8 4.6-7.6 7.1-11.5 1.2 1.9 2.3 3.8 3.4 5.8 3.2 5.6 6.5 11.2 9.7 16.8 3.8 6.5 7.6 13 11.3 19.6.6 1.2 1.5 1.6 2.9 1.5 4.1-.1 8.2-.3 12.2.1 2.5.2 3.7-.9 4.6-2.9 1.8-3.5 3.6-7 5.6-10.5 2.9-5.3 5.8-10.6 8.6-16 .2-.4.5-.7.7-1.2 3.3 5.8 6.7 11.6 10.1 17.6-5.9.2-11.4.2-17.4.2z"/><path class="st0" d="M986.3 478.5c2.7-4.5 5.2-8.6 7.7-12.8.4-.6 1.2-1 1.9-1 4.1-.1 8.1 0 12.2-.1 1.5-.1 2.1.6 2.8 1.7 3.8 6.4 7.5 12.7 11.3 19.1.7 1.2 1.4 2.4 2.2 3.9 2.6-4.9 5.1-9.6 7.6-14.2 1.7-3.2 3.2-6.4 4.9-9.6.2-.5.9-.8 1.4-.8 7-.1 13.8-.1 20.8 0 .6 0 1.2.6 1.5 1 3 4.7 5.8 9.5 8.7 14.2l8.9 14.8c2.5 4.1 5 8.3 7.4 12.4.4.6.6 1.8.3 2.3-2 4-4.3 7.9-6.5 12.1-2.7-4.4-5.2-8.4-7.6-12.5-2.7-4.5-5.3-9-8-13.5-3.2-5.3-6.3-10.5-9.4-15.7-.6-.9-1.1-1.3-2.2-1.2-5 .1-10 .1-14.9 0-1.6 0-2.2.6-3 1.9-4.8 9.3-9.8 18.6-14.8 28.1-2-3.4-4.1-6.8-6-10.1l-6.1-10.6c-1.6-2.7-3.2-5.3-4.7-8-.6-1.1-1.3-1.3-2.4-1.2-4.7-.2-9.1-.2-14-.2z"/></g></g><g id="Layer_2"><path class="st0" d="M739.9 491.6s1.7-.9 1.9-3.7c0 0 0-1.4-.2-3.2 0 0-.2-1.1-.6-1.6 0 0-1.6-.2-3.4.3 0 0-4.8 1.1-11.9 5.1 0 0-3.1 1.9-3.6 2.2 0 0-.9.6.2 1.1 0 0 1 .2 2.3.1h.4s-2 1.4-2.7 1.8c0 0-2.7 1.7-3.6 3.3 0 0-1.3 1.7-1.1 4.8 0 0 .2 4 2.3 8.3 0 0 .5 1.1 1.3 2 0 0 .3.5 1.5.4 0 0 6.3.3 9.8-.3 0 0 5.3-.6 5.6-3.1 0 0 .1-1.4 0-2 0 0 0-.2.3-.2 0 0 2.9-.9 3.4-2.6 0 0 .2-.6.3-2 0 0 .2-.9-.2-1.3 0 0-.2-.3-.8-.2 0 0-2.7.6-4.5.9 0 0-6.3 1.2-12 .7 0 0-2.6.2-1.5-1.5 0 0 1-1.4 3.7-3.1 0 0 3.9-2.4 7-3.7-.3-.3 4.6-2.4 6.1-2.5zm19.5 21.7l-.5-3.2c-.6-3-.4-5.4-.4-5.4.1-1.6.6-4.7.6-4.7.1-1-.1-1.4-.1-1.4-1.6-2.4-3.7-4.4-3.7-4.4-.6-.7-1.2-.2-1.2-.2l-.3.2c-.7.5-1.1-.1-1.1-.1-.9-.7-1.4-.1-1.4-.1-.7.6-3 2.5-3 2.5-.3.5 0 .9 0 1 0 .2-.2.4-.2.4-.5.7-2.7 4.4-2.7 4.4-1 1.4-1.7 3.8-1.7 3.8-.6 1.4-.6 4.8-.6 4.8.1 1.1.9 1.9.9 1.9.7 1 1.5.6 1.5.6.8-.1 3.2-2.1 3.2-2.1.7-.5 3.6-2.8 3.6-2.8l.2.1c.6 1.1 2.8 4.5 2.8 4.5.4.6.7.6.7.6.3.1.7.2.7.2l1.5.3c1.5.4 1.2-.9 1.2-.9zm-8.1-10.6s-2.7 2.1-3.6 3c0 0-.7 1.1-.6-.2 0 0 0-1 1.1-2.6 0 0 .7-1.3 1.2-1.8 0 0 .6-.1 1.3.5 0 0 .8.5.6 1.1zm19.8-19.1s.3-.6 1.1-.6h1s.6-.1.7.9l.2 2.9s.2.8-.5 2.2c0 0-.4.9-.7 1.9l-2.6 8.1s-.2.3.2.3c0 0 1.4.3 1.4 1.4 0 0 0 .2.6 0 0 0 1.4-.6 1.2 1.2 0 0 0 1.4-1.1 3.7 0 0 .6 7 .7 9.6 0 0 .1 2 .1 3.1 0 0 .2 1.1-1.2 1.9 0 0-2.4 1.4-4.1 1.4 0 0-.6.2-1.2-.4 0 0-1.9-2.2-3-5.1 0 0-1-2.4-1.3-3.4 0 0-.8-2.3-.8-4.7 0 0 .1-3.3.8-5.7 0 0 1.4-5 3.7-9.5 0 0 2.8-5.4 3.7-7.1-.2 0 1.1-2.1 1.1-2.1z"/><path class="st0" d="M769 513.5c0 1.1.4 1.8.4 1.8.4.3 1-1.4 1-1.4l.2-5.8c0-.6-.6-.6-.6-.6h-.5c-.6 0-.5.6-.5.6-.2 2.2 0 5.4 0 5.4zm19.3-7.1s-1.8.5-3.3-.1c0 0-1.2-.5-1.6-1.1 0 .2-.2 0-.1-.2 0 0 4.9-4.1 5.8-5.8 0 0 1.2-2 1-3.4 0 0-.7-1.3-3.3-1.6 0 0-1.9-.3-3.3-.1 0 0-.5.2-1.2.5 0 0-2.8 1.9-5.3 6.1 0 0-1.5 2.3-1.6 5.6 0 0-.2 1.9 1.1 3.7 0 0 1.5 2.4 4.5 2.9 0 0 3.1.6 5.2-.3 0 0 1.1-.3 1.3-1.5 0 0 .1-.6.3-.9 0 0 .2-.3.6-.4 0 0 1.2-.5 1.2-1.4V507s0-.9-1.3-.6zm-6-4.4s.1-1.1 1-2.4c0 0 .6-1.2 1.4-1.5 0 0 1.3-.2 1.7.5 0 0-.6.7-2 2.1-.2 0-2.1 1.5-2.1 1.3zm47 5.6c0-1-1.1-1.1-1.1-1.1-.9-.1-2.8-.7-2.8-.7-3.8-1.2-7.4-4-7.4-4-2.1-1.4-3.7-3.3-3.7-3.3 2-.1 7.1-.5 7.1-.5 2.4-.1 4.6-.7 4.6-.7 3.3-.8 3-2.7 3-2.7-.1-1.4-.6-3.7-.6-3.7-.3-.8-.6-2.4-.6-2.4-.3-1.7-2.8-2.8-2.8-2.8-2.8-1.4-7.1-2.2-7.1-2.2-2.3-.5-5.4-.6-5.4-.6-.6 0-1.5.3-1.5.3l-2.6.8c-1.2.3-2.5.5-2.5.5-1.4 0-1.4 1.1-1.4 1.1 0 .8-.2 1.9-.2 1.9-.1 1.1.9 1.1 1.2.8l.9.1c.8.2.6.8.6.8l-.3 2.7c-.6 3.1-.9 6-1.1 9.3v.1c-.3 3.3.3 8.3.3 8.3.3 1 .9 1.5.9 1.5.6.4 2 1 2 1 1.8 1 2-.8 2-.8l.3-3.3c0-.9.2-1.1.2-1.1 1.8 1.2 5.9 3.3 5.9 3.3 3.2 1.5 5.7 2 5.7 2 1 0 1.1-.2 1.1-.2 1-.9 2.6-2.3 2.6-2.3.7-.6 1.7-.7 1.7-.7 1.4-.3 1-1.4 1-1.4zM813.6 491c.4-.2 2 .1 2.2.2 3 .3 6.5 1.4 6.5 1.4.8.3.8.6.8.6-.1.7-2.8 1.2-2.8 1.2-3.1.9-7.5 1.5-7.5 1.5.2-1.9.8-4.9.8-4.9zm20.1 1.6l3.2-3.4s.4-.4.9-.6l3.1-.9s.7-.3 1.1.6l.7 1.5s.5.7-.3 1.5L838 495s-.7.7-1.9 0l-2-1.4c-.1 0-.8-.4-.4-1zm4.7 4.6s1.1-.6 1.9-.6c0 0 .2-.1.8.8 0 0 .7.8.6 1.9 0 0-.7 3.9-1 6.6 0 0-.9 5.5-1 6 0 0-.3 1.8-2.4 1.1 0 0-1.4-.4-2.5-1.1 0 0-.7-.5-1-1.3 0 0-.5-1.9-.6-2.3 0 0-.1-.6-.8-.6h-.7s-.6.1-.6-1.1c0 0-.2-1.5 0-2.3 0 0 .2-1.2 1.2-2.4 0-.1 1.7-2.4 6.1-4.7zm18.8.2c-3.2-3-5.3-3.2-5.3-3.2-2.2-.7-3.5.4-3.5.4l-3.4 3.5c-.7.5-.1 1.3 0 1.4.4.8.2 1.9.2 1.9-.4 1.7-.6 5.1-.6 5.1-.2 1.9.2 4.5.2 4.5 0 1.2 1.1 1.8 1.1 1.8 1.5.9 4.1-.3 4.1-.3 2.7-1.5 4.1-3.7 4.1-3.7 3.2-4.4 3.8-7.7 3.8-7.7.5-2.6-.7-3.7-.7-3.7zm-6 6.5s-1.9 1.9-2.5 1.2c0 0-.3-.8-.2-2.8 0 0 0-.7.1-.6 0 0 2.3.9 2.9 1.7 0 0-.1.3-.3.5z"/></g><path class="st0" d="M518.4 491v2.1c1.2-.3 2.5-.6 3.8-.9v-2.1c-.4.1-.8.2-1.2.2v-8.6c.7-.1 1.3-.3 2-.4l1.4 10.2v.2c1.1-.2 2.2-.3 3.3-.4v-2.1c-.5.1-1 .1-1.6.2L525 481l2.1-.3V474c-2.9.3-5.9.8-8.7 1.6v2.1c.2 0 .3-.1.5-.1V491c-.2-.1-.4 0-.5 0zm6.6-14.7v2.7c-1.4.2-2.7.4-4.1.7V477c1.4-.2 2.8-.5 4.1-.7z"/><path class="st0" d="M549.7 471.6c-4.7-1.3-9.6-2-14.6-2.1v2.1h.8v17.5h-4.4v-17.5h.8v-2.1c-4.9.1-9.8.8-14.6 2.1v2.1c3.8-1 7.7-1.7 11.7-2v19.6c1.4-.1 2.9-.2 4.3-.2s2.9.1 4.3.2v-19.5c4 .3 7.9 1 11.7 2v-2.2z"/><path class="st0" d="M548.9 479.3v-3.8c-2.9-.7-5.8-1.2-8.7-1.6v3.8c.7.1 1.4.2 2.1.2v-1.7c.4.1.9.1 1.3.2v13.4c-.4-.1-.8-.1-1.2-.2v2.1c1.4.2 2.8.5 4.2.8v-2.1c-.3-.1-.7-.1-1-.2v-13.4c.4.1.9.2 1.3.3v1.7c.7.2 1.4.3 2 .5zM551.4 474.3c.4.1.8.3 1.2.4v4.5c-.2 0-.3-.1-.5-.1v2.2c.2 0 .3.1.5.2v10.7c-.4-.1-.8-.3-1.2-.4v2.2c3 .9 5.8 2 8.6 3.4l.1-3.5c-.7-.3-1.4-.6-2-.9v1.3c-1.1-.5-2.2-.9-3.4-1.3v-10.7l2.4.9V481l-2.4-.9v-4.5c1.3.5 2.5 1 3.8 1.5v1.8c.7.3 1.4.6 2 .9l.1-4c-3-1.4-6-2.6-9.1-3.5v2zM526.9 465.6c-7.4.8-14.7 3-21.4 6.3l.1 2.3c6.6-3.5 13.9-5.7 21.3-6.6v-2zM540.5 465.6v2.1c7.4.8 14.5 3 21.1 6.4l.1-2.3c-6.7-3.3-13.9-5.4-21.2-6.2zM516.2 499.4V496c-3.1.9-6.1 2-9 3.4v.1l.2 6.5h.1c2.3.2 4.5.5 6.7.8v11.4c-1.5-.4-2.9-.7-4.5-.9l-.1-6.2c.5-.2 1.1-.5 1.6-.7v-2.2c-1.2.5-2.5 1-3.7 1.6l.2 9.3c3 .4 5.8 1.1 8.5 1.8V505c-2.3-.4-4.5-.7-6.8-.9l-.1-3.4c1.6-.7 3.2-1.3 4.9-1.9v1.2c.6-.2 1.3-.4 2-.6zM533.7 535.6c-4.1-3.5-9-6.4-14.7-8.5-3.8-1.4-7.9-2.4-12.2-3l.1 2.1c4.1.6 7.9 1.5 11.4 2.9 5.8 2.2 10.8 5.2 14.7 8.7l.7.6.7-.6c4-3.6 9-6.6 14.7-8.7 3.5-1.3 7.2-2.3 11.2-2.8l.1-2.1c-4.2.6-8.2 1.6-12 3-5.7 2-10.7 5-14.7 8.4z"/><path class="st0" d="M527.1 529.2v-1.3c-.5-.7-1.3-1.9-1.9-3.7.7.3 1.3.6 1.9.9v-27.2c-3.4.4-6.7 1-10 1.9v2.1c.3-.1.6-.2.9-.2v19.7c1.8.6 3.5 1.2 5.1 1.9.2.7.4 1.3.6 1.9-5.1-2.3-10.9-4-17.1-4.9l.1 2.1c3.9.5 7.6 1.4 11 2.6 3.4 1.2 6.5 2.6 9.4 4.2zm-7-9.3v-18.8c1.6-.4 3.3-.7 4.9-.9v21.6l-.6-.3c-.2-.9-.3-2-.4-3.1-.6-.2-1.1-.4-1.7-.6 0 1.1.1 2.1.3 3-.8-.3-1.7-.6-2.5-.9zM529.4 528.2v2.4c1.3.8 2.5 1.7 3.6 2.6l.6.5.6-.5c1.2-.9 2.4-1.8 3.7-2.6v-2.4c-1.5.9-3 1.9-4.3 2.9-1.3-1-2.7-2-4.2-2.9z"/><path class="st0" d="M549.7 495.6c-4.7-1.3-9.6-2-14.6-2.1v2.1h.8v29.6c-.8.5-1.5.9-2.2 1.4-.7-.5-1.5-.9-2.2-1.4v-29.6h.8v-2.1c-4.9.1-9.8.8-14.6 2.1v2.1c3.8-1 7.7-1.7 11.7-2v30.7h.1c1.3.7 2.5 1.5 3.6 2.3l.6.4.6-.4c1.2-.8 2.4-1.6 3.7-2.3V495.7c4 .3 7.9 1 11.7 2v-2.1z"/><path class="st0" d="M542.4 506.6c1.4.2 2.8.5 4.2.8l1.6 12.3c-.5.2-1 .3-1.5.5v2.2c1.2-.5 2.5-.9 3.7-1.3l-2.6-19.7c.4.1.7.2 1.1.3v-2.1c-2.8-.7-5.7-1.2-8.6-1.5v6.3h-.4v2.1h.4v22.9c5.7-3.3 12.5-5.6 20-6.7l.1-2.1c-6.6.9-12.7 2.8-18 5.4v-19.4zm0-6.4l3.3.6.6 4.3c-1.3-.3-2.6-.5-3.9-.7v-4.2z"/><path class="st0" d="M551.4 518.6v2.1c2.6-.7 5.3-1.3 8.1-1.8l.5-19.7c-2.8-1.3-5.6-2.4-8.5-3.2v2.2l.9.3v19.9c-.4 0-.7.1-1 .2zm3-19.4c1.2.4 2.3.9 3.5 1.4l-.4 16.6c-1 .2-2.1.4-3.1.6v-18.6zM538.8 466.7h-.6v.2c-.4 0-.9-.1-1.4-.1v-1h.9v-.6h-.9v-.8c.5 0 .9 0 1.4.1v.3h.6v-.9c-.9-.1-1.7-.1-2.6-.2v2.9h-.4v.6c1 0 2 .1 3 .2v-.7zM528.4 465.1c.2 0 .4 0 .6-.1v-.5c.2 0 .5 0 .7-.1v2.3h-.2v.6c.4 0 .7 0 1.1-.1v-.6h-.3v-2.3c.9 0 1.8-.1 2.7-.1v-.6c-1.6 0-3.1.1-4.7.2V465.1z"/><path class="st0" d="M533.8 465.6h-1.1v-.6h-.6v1.7h-.3v.6h1.3v-.6h-.4v-.5H534.6v.5h-.4v.6h1v-2.9h.4v-.6h-1.4v.6h.4v1.2h-.8zM516.6 477c-.2 0-.4.1-.5.1V472c-3.3 1-6.5 2.2-9.5 3.7l.1 2.3c.5-.2 1-.5 1.5-.7v17.3c-.4.2-.7.3-1.1.5l.1 2.3c3.1-1.5 6.3-2.8 9.5-3.7l-.1-16.7zm-6.4-.6l3.9-1.5v3c-1.3.4-2.6.9-3.9 1.4v-2.9zm4.4 15.7c-1.5.5-3 1-4.4 1.6v-12.2c1.4-.6 2.9-1.2 4.4-1.7v12.3z"/></svg>