<svg id="Layer_1" xmlns="http://www.w3.org/2000/svg" viewBox="512 -24.5 1061.2 86.5"><style>.st0{fill:#646464;} .st1{opacity:0.34;fill:#646464;enable-background:new ;}</style><path class="st0" d="M1247.9 9.6s1.7-.9 1.9-3.7c0 0 0-1.4-.2-3.2 0 0-.2-1.1-.6-1.6 0 0-1.6-.2-3.4.3 0 0-4.8 1.1-11.9 5.1 0 0-3.1 1.9-3.6 2.2 0 0-.9.6.2 1.1 0 0 1 .2 2.3.1h.4s-2 1.4-2.7 1.8c0 0-2.7 1.7-3.6 3.3 0 0-1.3 1.7-1.1 4.8 0 0 .2 4 2.3 8.3 0 0 .5 1.1 1.3 2 0 0 .3.5 1.5.4 0 0 6.3.3 9.8-.3 0 0 5.3-.6 5.6-3.1 0 0 .1-1.4 0-2 0 0 0-.2.3-.2 0 0 2.9-.9 3.4-2.6 0 0 .2-.6.3-2 0 0 .2-.9-.2-1.3 0 0-.2-.3-.8-.2 0 0-2.7.6-4.5.9 0 0-6.3 1.2-12 .7 0 0-2.6.2-1.5-1.5 0 0 1-1.4 3.7-3.1 0 0 3.9-2.4 7-3.7-.3-.3 4.6-2.4 6.1-2.5zm8.4 4.9s2.3-1.9 3-2.5c0 0 .5-.6 1.4.1 0 0 .4.6 1.1.1l.3-.2s.6-.5 1.2.2c0 0 2.1 2 3.7 4.4 0 0 .2.4.1 1.4 0 0-.5 3.1-.6 4.7 0 0-.2 2.4.4 5.4l.5 3.2s.3 1.3-1.2.9l-1.5-.3s-.4-.1-.7-.2c0 0-.3 0-.7-.6 0 0-2.2-3.4-2.8-4.5l-.2-.1s-2.9 2.3-3.6 2.8c0 0-2.4 2-3.2 2.1 0 0-.8.4-1.5-.6 0 0-.8-.8-.9-1.9 0 0 0-3.4.6-4.8 0 0 .7-2.4 1.7-3.8 0 0 2.2-3.7 2.7-4.4 0 0 .2-.2.2-.4 0-.1-.3-.5 0-1zm-.1 6.4c-1.1 1.6-1.1 2.6-1.1 2.6-.1 1.3.6.2.6.2.9-.9 3.6-3 3.6-3 .2-.6-.6-1.1-.6-1.1-.7-.6-1.3-.5-1.3-.5-.5.5-1.2 1.8-1.2 1.8zm22.9-19.3s.3-.6 1.1-.6h1s.6-.1.7.9l.2 2.9s.2.8-.5 2.2c0 0-.4.9-.7 1.9l-2.6 8.1s-.2.3.2.3c0 0 1.4.3 1.4 1.4 0 0 0 .2.6 0 0 0 1.4-.6 1.2 1.2 0 0 0 1.4-1.1 3.7 0 0 .6 7 .7 9.6 0 0 .1 2 .1 3.1 0 0 .2 1.1-1.2 1.9 0 0-2.4 1.4-4.1 1.4 0 0-.6.2-1.2-.4 0 0-1.9-2.2-3-5.1 0 0-1-2.4-1.3-3.4 0 0-.8-2.3-.8-4.7 0 0 .1-3.3.8-5.7 0 0 1.4-5 3.7-9.5 0 0 2.8-5.4 3.7-7.1-.2 0 1.1-2.1 1.1-2.1zm-2.1 29.9c0 1.1.4 1.8.4 1.8.4.3 1-1.4 1-1.4l.2-5.8c0-.6-.6-.6-.6-.6h-.5c-.6 0-.5.6-.5.6-.2 2.2 0 5.4 0 5.4zm13.3-11.5s.1-1.1 1-2.4c0 0 .6-1.2 1.4-1.5 0 0 1.3-.2 1.7.5 0 0-.6.7-2 2.1-.2 0-2.1 1.5-2.1 1.3zm1 3s4.9-4.1 5.8-5.8c0 0 1.2-2 1-3.4 0 0-.7-1.3-3.3-1.6 0 0-1.9-.3-3.3-.1 0 0-.5.2-1.2.5 0 0-2.8 1.9-5.3 6.1 0 0-1.5 2.3-1.6 5.6 0 0-.2 1.9 1.1 3.7 0 0 1.5 2.4 4.5 2.9 0 0 3.1.6 5.2-.3 0 0 1.1-.3 1.3-1.5 0 0 .1-.6.3-.9 0 0 .2-.3.6-.4 0 0 1.2-.5 1.2-1.4V25s0-.9-1.3-.6c0 0-1.8.5-3.3-.1 0 0-1.2-.5-1.6-1.1 0 .2-.2 0-.1-.2zm21-17.5s.2-1.1.2-1.9c0 0 0-1.1 1.4-1.1 0 0 1.3-.2 2.5-.5l2.6-.8s.9-.3 1.5-.3c0 0 3.1.1 5.4.6 0 0 4.3.8 7.1 2.2 0 0 2.5 1.1 2.8 2.8 0 0 .3 1.6.6 2.4 0 0 .5 2.3.6 3.7 0 0 .3 1.9-3 2.7 0 0-2.2.6-4.6.7 0 0-5.1.4-7.1.5 0 0 1.6 1.9 3.7 3.3 0 0 3.6 2.8 7.4 4 0 0 1.9.6 2.8.7 0 0 1.1.1 1.1 1.1 0 0 .4 1.1-1 1.4 0 0-1 .1-1.7.7 0 0-1.6 1.4-2.6 2.3 0 0-.1.2-1.1.2 0 0-2.5-.5-5.7-2 0 0-4.1-2.1-5.9-3.3 0 0-.2.2-.2 1.1l-.3 3.3s-.2 1.8-2 .8c0 0-1.4-.6-2-1 0 0-.6-.5-.9-1.5 0 0-.6-5-.3-8.3v-.1c.2-3.3.5-6.2 1.1-9.3l.3-2.7s.2-.6-.6-.8l-.9-.1c-.3.3-1.3.3-1.2-.8zm9.3 3.5s-.6 3-.8 4.9c0 0 4.4-.6 7.5-1.5 0 0 2.7-.5 2.8-1.2 0 0 0-.3-.8-.6 0 0-3.5-1.1-6.5-1.4-.2-.1-1.8-.4-2.2-.2zm20.1 1.6l3.2-3.4s.4-.4.9-.6l3.1-.9s.7-.3 1.1.6l.7 1.5s.5.7-.3 1.5L1346 13s-.7.7-1.9 0l-2-1.4c-.1 0-.8-.4-.4-1zm4.7 4.6s1.1-.6 1.9-.6c0 0 .2-.1.8.8 0 0 .7.8.6 1.9 0 0-.7 3.9-1 6.6 0 0-.9 5.5-1 6 0 0-.3 1.8-2.4 1.1 0 0-1.4-.4-2.5-1.1 0 0-.7-.5-1-1.3 0 0-.5-1.9-.6-2.3 0 0-.1-.6-.8-.6h-.7s-.6.1-.6-1.1c0 0-.2-1.5 0-2.3 0 0 .2-1.2 1.2-2.4 0-.1 1.7-2.4 6.1-4.7zm6.6.9l3.4-3.5s1.3-1.1 3.5-.4c0 0 2.1.2 5.3 3.2 0 0 1.2 1.1.7 3.7 0 0-.6 3.3-3.8 7.7 0 0-1.4 2.2-4.1 3.7 0 0-2.6 1.2-4.1.3 0 0-1.1-.6-1.1-1.8 0 0-.4-2.6-.2-4.5 0 0 .2-3.4.6-5.1 0 0 .2-1.1-.2-1.9-.1-.1-.7-.9 0-1.4zm3.5 4.2c-.1 2 .2 2.8.2 2.8.6.7 2.5-1.2 2.5-1.2.2-.2.3-.5.3-.5-.6-.8-2.9-1.7-2.9-1.7-.1-.1-.1.6-.1.6zM1079-14.9h28V52zM1059.4-14.9h-28V52zM1069.2 9.7L1087 52h-11.7l-5.3-13.5h-13z"/><g id="Layer_1_1_"><path class="st0" d="M741.1 31.2v-5.5h9.7c.6-.1 1-.4 1.1-.8V24.3c0-.6-.3-.9-.9-1h-4.7c-.8 0-1.6-.2-2.3-.6-1.8-1-2.7-2.4-2.7-4v-4c0-.4.1-.8.2-1.3.6-2.4 2.3-3.6 5.1-3.6h10.9l.1 5.5h-9.9c-.1 0-.2.1-.4.2-.4.4-.6.7-.6.8v.5c0 .5.4.9 1.3 1h4.8c1.2 0 2.3.5 3.3 1.5s1.4 2.1 1.4 3.3v3.9c0 .9-.3 1.7-.8 2.5s-1.1 1.4-1.8 1.8c-.6.3-1.5.5-2.5.5-.1-.1-11.3-.1-11.3-.1zm19.9 0V14.9c0-.3 0-.6.1-1 .4-2.7 2.1-4.1 5-4.1h7.6c2.9 0 4.6 1.4 5 4.1.1.4.1.7.1 1v16.3h-5.4V16.8v-.3c-.1-.8-.7-1.2-1.8-1.2h-3.3c-1.1 0-1.6.4-1.8 1.2v14.8H761v-.1zm21.5-4.8V22c0-1.6.5-2.8 1.4-3.7.9-.9 2.2-1.3 3.8-1.3h7.2v-1.1c0-.5-.4-.7-1.2-.9h-11.3V9.8h12.5c.2 0 .5 0 .9.1 2.5.3 4 1.6 4.4 4 .1.3.1.6.1.9v11.4c0 .4 0 .7-.1 1-.2 1.2-.8 2.2-1.7 2.9-.9.7-1.9 1.1-3.1 1.1H788c-3.2 0-5-1.3-5.4-3.9 0-.1 0-.5-.1-.9zm5.7-.9c.2.2.4.4.8.5h4.5c.9 0 1.4-.4 1.4-1.2v-1.5c0-.5-.2-.9-.7-1.1-.1-.1-.4-.2-.7-.2h-4.8c-.5.1-.7.4-.8 1.1v1.7c0 .2.1.4.3.7zm15.9 13.8V15.5c0-.3 0-.6.1-1.1.3-2.6 1.6-4.1 4-4.5.3-.1.5-.1.7-.1h7.8c.3 0 .7 0 1.1.1 2.7.5 4.1 2.3 4.1 5.4v11.1c0 1-.3 1.9-1 2.7-.1.2-.3.4-.6.7-1 1-2.2 1.5-3.5 1.5h-7.4v8h-5.3zm5.5-14.8c.1.7.6 1.1 1.3 1.3H815.3c.4-.1.6-.2.9-.5.2-.4.3-.6.3-.8v-8.1c-.1-.6-.4-.9-1-1h-4.4c-.6 0-1.1.3-1.3.9-.1.2-.2.5-.2.7v7.5zm16.2 6.7V6.7c0-1.5.6-2.7 1.8-3.6 1.1-.8 2.4-1.2 4-1.2h3.4V7H832.6c-1 .2-1.5.7-1.5 1.6v1.1h3.8v5.5h-3.8v16h-5.3zm11.2-4.8V22c0-1.6.5-2.8 1.4-3.7.9-.9 2.2-1.3 3.8-1.3h7.2v-1.1c0-.5-.4-.7-1.2-.9H837V9.8h12.5c.2 0 .5 0 .9.1 2.5.3 4 1.6 4.4 4 .1.3.1.6.1.9v11.4c0 .4 0 .7-.1 1-.2 1.2-.8 2.2-1.7 2.9-.9.7-1.9 1.1-3.1 1.1h-7.5c-3.2 0-5-1.3-5.4-3.9 0-.1 0-.5-.1-.9zm5.7-1c.2.2.4.4.8.5h4.6c.9 0 1.4-.4 1.4-1.2v-1.5c0-.5-.2-.9-.7-1.1-.1-.1-.4-.2-.7-.2h-4.8c-.5.1-.7.4-.8 1.1v1.7c0 .3.1.5.2.7zm15.7 5.8v-5.5h9.7c.6-.1 1-.4 1.1-.8V24.3c0-.6-.3-.9-.9-1h-4.7c-.8 0-1.6-.2-2.3-.6-1.8-1-2.7-2.4-2.7-4v-4c0-.4.1-.8.2-1.3.6-2.4 2.3-3.6 5.1-3.6h10.9l.1 5.5H865c-.1 0-.2.1-.4.2-.4.4-.6.7-.6.8v.5c0 .5.4.9 1.3 1h4.8c1.2 0 2.3.5 3.3 1.5s1.4 2.1 1.4 3.3v3.9c0 .9-.3 1.7-.7 2.5-.5.8-1.1 1.4-1.8 1.8-.6.3-1.5.5-2.5.5l-11.4-.1zm19.8 0V1.8h5.4v8h3.6v5.5h-3.6v16c.1-.1-5.4-.1-5.4-.1z"/><path class="st1" d="M741.1 31.2v-5.5h9.7c.6-.1 1-.4 1.1-.8V24.3c0-.6-.3-.9-.9-1h-4.7c-.8 0-1.6-.2-2.3-.6-1.8-1-2.7-2.4-2.7-4v-4c0-.4.1-.8.2-1.3.6-2.4 2.3-3.6 5.1-3.6h10.9l.1 5.5h-9.9c-.1 0-.2.1-.4.2-.4.4-.6.7-.6.8v.5c0 .5.4.9 1.3 1h4.8c1.2 0 2.3.5 3.3 1.5s1.4 2.1 1.4 3.3v3.9c0 .9-.3 1.7-.8 2.5s-1.1 1.4-1.8 1.8c-.6.3-1.5.5-2.5.5-.1-.1-11.3-.1-11.3-.1zm19.9 0V14.9c0-.3 0-.6.1-1 .4-2.7 2.1-4.1 5-4.1h7.6c2.9 0 4.6 1.4 5 4.1.1.4.1.7.1 1v16.3h-5.4V16.8v-.3c-.1-.8-.7-1.2-1.8-1.2h-3.3c-1.1 0-1.6.4-1.8 1.2v14.8H761v-.1zm21.5-4.8V22c0-1.6.5-2.8 1.4-3.7.9-.9 2.2-1.3 3.8-1.3h7.2v-1.1c0-.5-.4-.7-1.2-.9h-11.3V9.8h12.5c.2 0 .5 0 .9.1 2.5.3 4 1.6 4.4 4 .1.3.1.6.1.9v11.4c0 .4 0 .7-.1 1-.2 1.2-.8 2.2-1.7 2.9-.9.7-1.9 1.1-3.1 1.1H788c-3.2 0-5-1.3-5.4-3.9 0-.1 0-.5-.1-.9zm5.7-.9c.2.2.4.4.8.5h4.5c.9 0 1.4-.4 1.4-1.2v-1.5c0-.5-.2-.9-.7-1.1-.1-.1-.4-.2-.7-.2h-4.8c-.5.1-.7.4-.8 1.1v1.7c0 .2.1.4.3.7zm15.9 13.8V15.5c0-.3 0-.6.1-1.1.3-2.6 1.6-4.1 4-4.5.3-.1.5-.1.7-.1h7.8c.3 0 .7 0 1.1.1 2.7.5 4.1 2.3 4.1 5.4v11.1c0 1-.3 1.9-1 2.7-.1.2-.3.4-.6.7-1 1-2.2 1.5-3.5 1.5h-7.4v8h-5.3zm5.5-14.8c.1.7.6 1.1 1.3 1.3H815.3c.4-.1.6-.2.9-.5.2-.4.3-.6.3-.8v-8.1c-.1-.6-.4-.9-1-1h-4.4c-.6 0-1.1.3-1.3.9-.1.2-.2.5-.2.7v7.5zm16.2 6.7V6.7c0-1.5.6-2.7 1.8-3.6 1.1-.8 2.4-1.2 4-1.2h3.4V7H832.6c-1 .2-1.5.7-1.5 1.6v1.1h3.8v5.5h-3.8v16h-5.3zm11.2-4.8V22c0-1.6.5-2.8 1.4-3.7.9-.9 2.2-1.3 3.8-1.3h7.2v-1.1c0-.5-.4-.7-1.2-.9H837V9.8h12.5c.2 0 .5 0 .9.1 2.5.3 4 1.6 4.4 4 .1.3.1.6.1.9v11.4c0 .4 0 .7-.1 1-.2 1.2-.8 2.2-1.7 2.9-.9.7-1.9 1.1-3.1 1.1h-7.5c-3.2 0-5-1.3-5.4-3.9 0-.1 0-.5-.1-.9zm5.7-1c.2.2.4.4.8.5h4.6c.9 0 1.4-.4 1.4-1.2v-1.5c0-.5-.2-.9-.7-1.1-.1-.1-.4-.2-.7-.2h-4.8c-.5.1-.7.4-.8 1.1v1.7c0 .3.1.5.2.7zm15.7 5.8v-5.5h9.7c.6-.1 1-.4 1.1-.8V24.3c0-.6-.3-.9-.9-1h-4.7c-.8 0-1.6-.2-2.3-.6-1.8-1-2.7-2.4-2.7-4v-4c0-.4.1-.8.2-1.3.6-2.4 2.3-3.6 5.1-3.6h10.9l.1 5.5H865c-.1 0-.2.1-.4.2-.4.4-.6.7-.6.8v.5c0 .5.4.9 1.3 1h4.8c1.2 0 2.3.5 3.3 1.5s1.4 2.1 1.4 3.3v3.9c0 .9-.3 1.7-.7 2.5-.5.8-1.1 1.4-1.8 1.8-.6.3-1.5.5-2.5.5l-11.4-.1zm19.8 0V1.8h5.4v8h3.6v5.5h-3.6v16c.1-.1-5.4-.1-5.4-.1z"/></g><g id="Layer_2_1_"><path class="st0" d="M1520.1 28.8c2.3 4.3 4.4 8.2 6.5 11.9.3.6 1.4.8 2.1.8 9.8.1 19.7 0 29.5 0h2.8c-1.9 3.3-3.8 6.3-5.2 9.6-1.4 3.2-3.6 3.9-6.9 3.8-9.3-.3-18.6-.1-27.8-.1-1.2 0-1.9-.3-2.5-1.4-1.4-2.6-3-5.1-4.5-7.7-.2-.3-.4-.6-.7-1-1.7 3.1-3.2 6-4.9 8.9-.3.6-1.2 1-1.9 1-6.4.1-12.7.1-19.1 0-.6 0-1.5-.5-1.9-1-3.6-6-7.1-12.2-10.7-18.2s-7.1-12-10.7-18c-1.1-1.9-2.3-3.6-3.2-5.6-.3-.6-.1-1.9.3-2.5 2.2-3.8 4.6-7.6 7.1-11.5 1.2 1.9 2.3 3.8 3.4 5.8 3.2 5.6 6.5 11.2 9.7 16.8 3.8 6.5 7.6 13 11.3 19.6.6 1.2 1.5 1.6 2.9 1.5 4.1-.1 8.2-.3 12.2.1 2.5.2 3.7-.9 4.6-2.9 1.8-3.5 3.6-7 5.6-10.5 2.9-5.3 5.8-10.6 8.6-16 .2-.4.5-.7.7-1.2 3.3 5.8 6.7 11.6 10.1 17.6-5.9.2-11.4.2-17.4.2z"/><path class="st0" d="M1469.3-3.5c2.7-4.5 5.2-8.6 7.7-12.8.4-.6 1.2-1 1.9-1 4.1-.1 8.1 0 12.2-.1 1.5-.1 2.1.6 2.8 1.7 3.8 6.4 7.5 12.7 11.3 19.1.7 1.2 1.4 2.4 2.2 3.9 2.6-4.9 5.1-9.6 7.6-14.2 1.7-3.2 3.2-6.4 4.9-9.6.2-.5.9-.8 1.4-.8 7-.1 13.8-.1 20.8 0 .6 0 1.2.6 1.5 1 3 4.7 5.8 9.5 8.7 14.2l8.9 14.8c2.5 4.1 5 8.3 7.4 12.4.4.6.6 1.8.3 2.3-2 4-4.3 7.9-6.5 12.1-2.7-4.4-5.2-8.4-7.6-12.5-2.7-4.5-5.3-9-8-13.5-3.2-5.3-6.3-10.5-9.4-15.7-.6-.9-1.1-1.3-2.2-1.2-5 .1-10 .1-14.9 0-1.6 0-2.2.6-3 1.9-4.8 9.3-9.8 18.6-14.8 28.1-2-3.4-4.1-6.8-6-10.1l-6.1-10.6c-1.6-2.7-3.2-5.3-4.7-8-.6-1.1-1.3-1.3-2.4-1.2-4.7-.2-9.1-.2-14-.2z"/></g><path class="st0" d="M566.5 22.5c0-10.4-8.4-18.7-18.7-18.7h-28.6l47.3 53V22.5zm4.9 0c0-10.4 8.4-18.7 18.7-18.7h28.6l-47.3 53V22.5zm-46.7-37.1c3.6 0 5.8 1.5 5.9 4.6h-3.2s.2-1.9-2.6-1.9c-.8 0-2 .4-2 1.2 0 1.4 3.2 1.4 4.7 1.8 2.1.5 3.8 1.8 3.7 4.1 0 2-1.3 4.5-5.5 4.6-2.2 0-3.6-.5-4.7-1.2-1.8-1.2-2-3.6-1.9-4h3.4s-.1 2.4 2.8 2.4c1.2 0 2.3-.4 2.3-1.7 0-2.2-8.1-.7-8.3-5.3-.2-2.5 1.7-4.6 5.4-4.6zm14.4.1c1.7 0 4.8.9 4.8 4.7v9.3h-3.8v-8.3c0-1-.5-2.5-2.3-2.5-1.7 0-2.5 1.3-2.5 2.3v8.5h-3.8v-13.8h3.8v1.2c.8-.6 1.5-1.4 3.8-1.4zm66.1.1v3.2h-.9c-1.9 0-3.3 1.1-3.3 3.2v7.5h-3.9v-13.8h3.9v1.1c.8-1 2.6-1.8 4.2-1.2zm-47.6.2h3.7l2.2 8.1 2.3-8.1h3.3l2.3 8.3 2.3-8.3h3.8L573.3-.4h-3.4l-2.4-8.8L565-.4h-3.4l-4-13.8zm34.4 0h3.9V-.4H592v-13.8zm-40.5-.3c-4.3 0-6.9 3.1-7.1 7.3-.2 4.2 3.1 7.2 7 7.2 4.2-.1 7.1-3.2 7-7.3 0-4.3-2.8-7.2-6.9-7.2zm.2 11.6c-2.2 0-3.2-1.9-3.2-4.1-.1-2.2.7-4.6 3.3-4.4 2.4.1 3 2.2 3.1 4.4 0 2.2-1.2 4.1-3.2 4.1zm33.7-11.7c-1.6 0-3.2.8-3.9 1.3v-6.1h-3.8V-.6h3.9v-1c.5.4 1.9 1.5 3.6 1.4 4-.2 6.1-3 6.1-7.1.1-3.9-1.9-7.2-5.9-7.3zm-.9 11.5c-1.9 0-3.2-2.1-3.2-4.2.1-2 1.1-4 3.1-4s3.1 1.6 3.1 4.1c0 2.4-1.2 4.1-3 4.1zM614.9-19.2v6.1c-1-.8-2.4-1.3-3.9-1.3-4.1.1-6.1 3.9-6 7.5.1 3.5 2.2 6.9 6 7 2 0 3.4-1.2 3.7-1.7l.1 1.1h3.6v-18.7h-3.5zm-3.2 16c-1.9 0-3-2.1-3-4.2 0-1.9 1.1-3.8 3-3.9 2.4 0 3 2.1 3 4 .1 2.2-1 4.1-3 4.1z"/></svg>