<svg id="Layer_1" xmlns="http://www.w3.org/2000/svg" viewBox="152 -152 342 342"><style>.st0{fill:#FFFFFF;} .st1{font-family:&apos;ProximaNova-Bold&apos;;} .st2{font-size:19.0214px;} .st3{font-size:50.7236px;} .st4{letter-spacing:1;} .st5{font-size:24px;} .st6{font-family:&apos;ProximaNova-Light&apos;;} .st7{font-size:26.2351px;} .st8{font-size:16.8654px;} .st9{font-size:21.5503px;} .st10{font-size:18.7394px;} .st11{letter-spacing:4;}</style><text id="XMLID_1_" transform="translate(296.723 -104.822)" class="st0 st1 st2">The</text><g id="XMLID_2_"><text transform="translate(186.19 -53.083)" class="st0 st1 st3 st4">12 Month</text><text transform="translate(190.79 -15.883)" class="st0 st1 st5">Development Plan</text></g><text transform="translate(277.536 56.207)" class="st0 st6 st7">$625</text><text transform="translate(342.936 56.207)" class="st0 st6 st8">/m</text><text transform="translate(200.436 123.207)" class="st0 st1 st9">paid over</text><text transform="translate(327.336 123.207)" class="st0 st1 st9" text-decoration="underline">one year</text><text transform="translate(199.336 152.907)" class="st0 st6 st10 st11">Cancel any time</text><path class="st0" d="M486 186.5H160c-2.5 0-4.5-2-4.5-4.5v-326c0-2.5 2-4.5 4.5-4.5h326c2.5 0 4.5 2 4.5 4.5v326c0 2.5-2 4.5-4.5 4.5zm-326-334c-1.9 0-3.5 1.6-3.5 3.5v326c0 1.9 1.6 3.5 3.5 3.5h326c1.9 0 3.5-1.6 3.5-3.5v-326c0-1.9-1.6-3.5-3.5-3.5H160z"/></svg>