<svg id="Layer_1" xmlns="http://www.w3.org/2000/svg" xmlns:xlink="http://www.w3.org/1999/xlink" viewBox="-323 239 312 84"><style>.st0{fill:none;enable-background:new ;} .st1{clip-path:url(#SVGID_2_);fill:#FF6C6A;} .st2{fill:#FF6C6A;} .st3{font-family:&apos;ProximaNova-Light&apos;;} .st4{font-size:29.249px;} .st5{fill:#3D3D3D;} .st6{clip-path:url(#SVGID_6_);fill:#3D3D3D;}</style><g id="TV_3_"><defs><path id="SVGID_1_" d="M-323 239h106.9v84H-323z"/></defs><clipPath id="SVGID_2_"><use xlink:href="#SVGID_1_" overflow="visible"/></clipPath><path class="st1" d="M-223.7 239h-91.6c-4.1 0-7.6 3.4-7.6 7.6v61.1c0 4.2 3.5 7.6 7.6 7.6h45.8v3.8h-26.7v3.8h57.3v-3.8h-26.7v-3.8h42c4.1 0 7.6-3.4 7.6-7.6v-61.1c-.1-4.2-3.6-7.6-7.7-7.6zm3.8 68.7c0 2.1-1.8 3.8-3.8 3.8h-91.6c-2.1 0-3.8-1.7-3.8-3.8v-61.1c0-2.1 1.8-3.8 3.8-3.8h91.6c2.1 0 3.8 1.7 3.8 3.8v61.1z"/></g><g id="TV_1_"><defs><path id="SVGID_3_" d="M-117.9 323v-84H-11v84"/></defs><clipPath id="SVGID_4_"><use xlink:href="#SVGID_3_" overflow="visible"/></clipPath></g><text transform="translate(-277.58 285.876)" class="st2 st3 st4">A</text><text transform="translate(-71.58 285.876)" class="st5 st3 st4">B</text><g id="TV_2_"><defs><path id="SVGID_5_" d="M-118 238h106.9v84H-118z"/></defs><clipPath id="SVGID_6_"><use xlink:href="#SVGID_5_" overflow="visible"/></clipPath><path class="st6" d="M-18.7 238h-91.6c-4.1 0-7.6 3.4-7.6 7.6v61.1c0 4.2 3.5 7.6 7.6 7.6h45.8v3.8h-26.7v3.8H-34v-3.8h-26.7v-3.8h42c4.1 0 7.6-3.4 7.6-7.6v-61.1c0-4.2-3.5-7.6-7.6-7.6zm3.8 68.7c0 2.1-1.8 3.8-3.8 3.8h-91.6c-2.1 0-3.8-1.7-3.8-3.8v-61.1c0-2.1 1.8-3.8 3.8-3.8h91.6c2.1 0 3.8 1.7 3.8 3.8v61.1z"/></g></svg>