<?xml version="1.0" encoding="utf-8"?>
<!-- Generator: Adobe Illustrator 19.0.0, SVG Export Plug-In . SVG Version: 6.00 Build 0)  -->
<!DOCTYPE svg PUBLIC "-//W3C//DTD SVG 1.1//EN" "http://www.w3.org/Graphics/SVG/1.1/DTD/svg11.dtd">
<svg version="1.1" id="Layer_1" xmlns="http://www.w3.org/2000/svg" xmlns:xlink="http://www.w3.org/1999/xlink" x="0px" y="0px"
	 viewBox="0 0 38 38" style="enable-background:new 0 0 38 38;" xml:space="preserve">
<style type="text/css">
	.st0{clip-path:url(#XMLID_7_);fill:#929292;}
</style>
<g id="Document_x5F_Add_5_">
	<defs>
		<rect id="XMLID_1_" x="4.2" width="29.6" height="38"/>
	</defs>
	<clipPath id="XMLID_7_">
		<use xlink:href="#XMLID_1_"  style="overflow:visible;"/>
	</clipPath>
	<path class="st0" d="M24.6,1.4c4.3,0,7.7,3.5,7.7,7.7s-3.5,7.7-7.7,7.7c-4.3,0-7.7-3.5-7.7-7.7S20.4,1.4,24.6,1.4 M24.6,0
		c-5.1,0-9.1,4.1-9.1,9.1s4.1,9.1,9.1,9.1c5.1,0,9.1-4.1,9.1-9.1S29.7,0,24.6,0L24.6,0z"/>
	<polygon id="XMLID_3_" class="st0" points="29.6,8.4 25.3,8.4 25.3,4.2 23.9,4.2 23.9,8.4 19.7,8.4 19.7,9.9 23.9,9.9 23.9,14.1 
		25.3,14.1 25.3,9.9 29.6,9.9 	"/>
	<path id="XMLID_2_" class="st0" d="M26.7,19.5v15.7c0,0.8-0.6,1.4-1.4,1.4H7c-0.8,0-1.4-0.6-1.4-1.4V8.4C5.6,7.7,6.3,7,7,7h7.2
		c0.1-0.5,0.2-1,0.4-1.4H7c-1.5,0-2.8,1.3-2.8,2.8v26.7C4.2,36.7,5.5,38,7,38h18.3c1.5,0,2.8-1.3,2.8-2.8V19.1
		C27.7,19.3,27.2,19.4,26.7,19.5z"/>
</g>
</svg>
