<?xml version="1.0" encoding="utf-8"?>
<!-- Generator: Adobe Illustrator 19.0.0, SVG Export Plug-In . SVG Version: 6.00 Build 0)  -->
<!DOCTYPE svg PUBLIC "-//W3C//DTD SVG 1.1//EN" "http://www.w3.org/Graphics/SVG/1.1/DTD/svg11.dtd">
<svg version="1.1" id="Layer_1" xmlns="http://www.w3.org/2000/svg" xmlns:xlink="http://www.w3.org/1999/xlink" x="0px" y="0px"
	 viewBox="31 457.5 1061.2 86.5" style="enable-background:new 31 457.5 1061.2 86.5;" xml:space="preserve">
<style type="text/css">
	.st0{fill:#646464;}
	.st1{opacity:0.34;fill:#646464;enable-background:new    ;}
</style>
<g id="Layer_1_2_">
	<g id="Layer_1_1_">
		<path class="st0" d="M229.1,510.5v-4.7h8.4c0.5-0.1,0.9-0.3,0.9-0.7v-0.5c0-0.5-0.3-0.8-0.8-0.9h-4.1c-0.7,0-1.4-0.2-2-0.5
			c-1.6-0.9-2.3-2.1-2.3-3.5v-3.5c0-0.3,0.1-0.7,0.2-1.1c0.5-2.1,2-3.1,4.4-3.1h9.4l0.1,4.7h-8.5c-0.1,0-0.2,0.1-0.3,0.2
			c-0.3,0.3-0.5,0.6-0.5,0.7v0.4c0,0.4,0.3,0.8,1.1,0.9h4.1c1,0,2,0.4,2.8,1.3s1.2,1.8,1.2,2.8v3.4c0,0.8-0.3,1.5-0.7,2.2
			s-0.9,1.2-1.6,1.6c-0.5,0.3-1.3,0.4-2.2,0.4C238.7,510.5,229.1,510.5,229.1,510.5L229.1,510.5z M246.2,510.5v-14.1
			c0-0.3,0-0.5,0.1-0.9c0.3-2.3,1.8-3.5,4.3-3.5h6.6c2.5,0,4,1.2,4.3,3.5c0.1,0.3,0.1,0.6,0.1,0.9v14.1H257v-12.7
			c-0.1-0.7-0.6-1-1.6-1h-2.8c-0.9,0-1.4,0.3-1.6,1v12.8L246.2,510.5C246.2,510.6,246.2,510.5,246.2,510.5L246.2,510.5z
			 M264.8,506.4v-3.8c0-1.4,0.4-2.4,1.2-3.2c0.8-0.8,1.9-1.1,3.3-1.1h6.2v-0.9c0-0.4-0.3-0.6-1-0.8h-9.8V492h10.8
			c0.2,0,0.4,0,0.8,0.1c2.2,0.3,3.5,1.4,3.8,3.5c0.1,0.3,0.1,0.5,0.1,0.8v9.8c0,0.3,0,0.6-0.1,0.9c-0.2,1-0.7,1.9-1.5,2.5
			c-0.8,0.6-1.6,0.9-2.7,0.9h-6.4c-2.8,0-4.3-1.1-4.7-3.4C264.9,507,264.9,506.7,264.8,506.4L264.8,506.4z M269.7,505.6
			c0.2,0.2,0.3,0.3,0.7,0.4h3.9c0.8,0,1.2-0.3,1.2-1v-1.3c0-0.4-0.2-0.8-0.6-1c-0.1-0.1-0.3-0.2-0.6-0.2h-4.1
			c-0.4,0.1-0.6,0.3-0.7,0.9v1.5C269.5,505.1,269.6,505.3,269.7,505.6L269.7,505.6z M283.5,517.5v-20.6c0-0.3,0-0.5,0.1-0.9
			c0.3-2.2,1.4-3.5,3.5-3.9c0.3-0.1,0.4-0.1,0.6-0.1h6.7c0.3,0,0.6,0,0.9,0.1c2.3,0.4,3.5,2,3.5,4.7v9.6c0,0.9-0.3,1.6-0.9,2.3
			c-0.1,0.2-0.3,0.3-0.5,0.6c-0.9,0.9-1.9,1.3-3,1.3H288v6.9H283.5L283.5,517.5z M288.2,504.7c0.1,0.6,0.5,0.9,1.1,1.1h3.8
			c0.3-0.1,0.5-0.2,0.8-0.4c0.2-0.3,0.3-0.5,0.3-0.7v-7c-0.1-0.5-0.3-0.8-0.9-0.9h-3.8c-0.5,0-0.9,0.3-1.1,0.8
			c-0.1,0.2-0.2,0.4-0.2,0.6L288.2,504.7L288.2,504.7z M302.2,510.5v-21.2c0-1.3,0.5-2.3,1.6-3.1c0.9-0.7,2.1-1,3.5-1h2.9v4.4h-2.1
			c-0.9,0.2-1.3,0.6-1.3,1.4v0.9h3.3v4.7h-3.3v13.8H302.2z M311.9,506.4v-3.8c0-1.4,0.4-2.4,1.2-3.2c0.8-0.8,1.9-1.1,3.3-1.1h6.2
			v-0.9c0-0.4-0.3-0.6-1-0.8h-9.7V492h10.8c0.2,0,0.4,0,0.8,0.1c2.2,0.3,3.5,1.4,3.8,3.5c0.1,0.3,0.1,0.5,0.1,0.8v9.8
			c0,0.3,0,0.6-0.1,0.9c-0.2,1-0.7,1.9-1.5,2.5c-0.8,0.6-1.6,0.9-2.7,0.9h-6.5c-2.8,0-4.3-1.1-4.7-3.4
			C312,507,312,506.7,311.9,506.4L311.9,506.4z M316.8,505.5c0.2,0.2,0.3,0.3,0.7,0.4h4c0.8,0,1.2-0.3,1.2-1v-1.3
			c0-0.4-0.2-0.8-0.6-0.9c-0.1-0.1-0.3-0.2-0.6-0.2h-4.1c-0.4,0.1-0.6,0.3-0.7,0.9v1.5C316.6,505.1,316.7,505.3,316.8,505.5z
			 M330.4,510.5v-4.7h8.4c0.5-0.1,0.9-0.3,0.9-0.7v-0.5c0-0.5-0.3-0.8-0.8-0.9h-4.1c-0.7,0-1.4-0.2-2-0.5c-1.6-0.9-2.3-2.1-2.3-3.5
			v-3.5c0-0.3,0.1-0.7,0.2-1.1c0.5-2.1,2-3.1,4.4-3.1h9.4l0.1,4.7h-8.5c-0.1,0-0.2,0.1-0.3,0.2c-0.3,0.3-0.5,0.6-0.5,0.7v0.4
			c0,0.4,0.3,0.8,1.1,0.9h4.1c1,0,2,0.4,2.8,1.3s1.2,1.8,1.2,2.8v3.4c0,0.8-0.3,1.5-0.6,2.2c-0.4,0.7-0.9,1.2-1.6,1.6
			c-0.5,0.3-1.3,0.4-2.2,0.4L330.4,510.5L330.4,510.5z M347.5,510.5v-25.4h4.7v6.9h3.1v4.7h-3.1v13.8
			C352.2,510.5,347.5,510.5,347.5,510.5z"/>
		<path class="st1" d="M229.1,510.5v-4.7h8.4c0.5-0.1,0.9-0.3,0.9-0.7v-0.5c0-0.5-0.3-0.8-0.8-0.9h-4.1c-0.7,0-1.4-0.2-2-0.5
			c-1.6-0.9-2.3-2.1-2.3-3.5v-3.5c0-0.3,0.1-0.7,0.2-1.1c0.5-2.1,2-3.1,4.4-3.1h9.4l0.1,4.7h-8.5c-0.1,0-0.2,0.1-0.3,0.2
			c-0.3,0.3-0.5,0.6-0.5,0.7v0.4c0,0.4,0.3,0.8,1.1,0.9h4.1c1,0,2,0.4,2.8,1.3s1.2,1.8,1.2,2.8v3.4c0,0.8-0.3,1.5-0.7,2.2
			s-0.9,1.2-1.6,1.6c-0.5,0.3-1.3,0.4-2.2,0.4C238.7,510.5,229.1,510.5,229.1,510.5L229.1,510.5z M246.2,510.5v-14.1
			c0-0.3,0-0.5,0.1-0.9c0.3-2.3,1.8-3.5,4.3-3.5h6.6c2.5,0,4,1.2,4.3,3.5c0.1,0.3,0.1,0.6,0.1,0.9v14.1H257v-12.7
			c-0.1-0.7-0.6-1-1.6-1h-2.8c-0.9,0-1.4,0.3-1.6,1v12.8L246.2,510.5C246.2,510.6,246.2,510.5,246.2,510.5L246.2,510.5z
			 M264.8,506.4v-3.8c0-1.4,0.4-2.4,1.2-3.2c0.8-0.8,1.9-1.1,3.3-1.1h6.2v-0.9c0-0.4-0.3-0.6-1-0.8h-9.8V492h10.8
			c0.2,0,0.4,0,0.8,0.1c2.2,0.3,3.5,1.4,3.8,3.5c0.1,0.3,0.1,0.5,0.1,0.8v9.8c0,0.3,0,0.6-0.1,0.9c-0.2,1-0.7,1.9-1.5,2.5
			c-0.8,0.6-1.6,0.9-2.7,0.9h-6.4c-2.8,0-4.3-1.1-4.7-3.4C264.9,507,264.9,506.7,264.8,506.4L264.8,506.4z M269.7,505.6
			c0.2,0.2,0.3,0.3,0.7,0.4h3.9c0.8,0,1.2-0.3,1.2-1v-1.3c0-0.4-0.2-0.8-0.6-1c-0.1-0.1-0.3-0.2-0.6-0.2h-4.1
			c-0.4,0.1-0.6,0.3-0.7,0.9v1.5C269.5,505.1,269.6,505.3,269.7,505.6L269.7,505.6z M283.5,517.5v-20.6c0-0.3,0-0.5,0.1-0.9
			c0.3-2.2,1.4-3.5,3.5-3.9c0.3-0.1,0.4-0.1,0.6-0.1h6.7c0.3,0,0.6,0,0.9,0.1c2.3,0.4,3.5,2,3.5,4.7v9.6c0,0.9-0.3,1.6-0.9,2.3
			c-0.1,0.2-0.3,0.3-0.5,0.6c-0.9,0.9-1.9,1.3-3,1.3H288v6.9H283.5L283.5,517.5z M288.2,504.7c0.1,0.6,0.5,0.9,1.1,1.1h3.8
			c0.3-0.1,0.5-0.2,0.8-0.4c0.2-0.3,0.3-0.5,0.3-0.7v-7c-0.1-0.5-0.3-0.8-0.9-0.9h-3.8c-0.5,0-0.9,0.3-1.1,0.8
			c-0.1,0.2-0.2,0.4-0.2,0.6L288.2,504.7L288.2,504.7z M302.2,510.5v-21.2c0-1.3,0.5-2.3,1.6-3.1c0.9-0.7,2.1-1,3.5-1h2.9v4.4h-2.1
			c-0.9,0.2-1.3,0.6-1.3,1.4v0.9h3.3v4.7h-3.3v13.8H302.2z M311.9,506.4v-3.8c0-1.4,0.4-2.4,1.2-3.2c0.8-0.8,1.9-1.1,3.3-1.1h6.2
			v-0.9c0-0.4-0.3-0.6-1-0.8h-9.7V492h10.8c0.2,0,0.4,0,0.8,0.1c2.2,0.3,3.5,1.4,3.8,3.5c0.1,0.3,0.1,0.5,0.1,0.8v9.8
			c0,0.3,0,0.6-0.1,0.9c-0.2,1-0.7,1.9-1.5,2.5c-0.8,0.6-1.6,0.9-2.7,0.9h-6.5c-2.8,0-4.3-1.1-4.7-3.4
			C312,507,312,506.7,311.9,506.4L311.9,506.4z M316.8,505.5c0.2,0.2,0.3,0.3,0.7,0.4h4c0.8,0,1.2-0.3,1.2-1v-1.3
			c0-0.4-0.2-0.8-0.6-0.9c-0.1-0.1-0.3-0.2-0.6-0.2h-4.1c-0.4,0.1-0.6,0.3-0.7,0.9v1.5C316.6,505.1,316.7,505.3,316.8,505.5z
			 M330.4,510.5v-4.7h8.4c0.5-0.1,0.9-0.3,0.9-0.7v-0.5c0-0.5-0.3-0.8-0.8-0.9h-4.1c-0.7,0-1.4-0.2-2-0.5c-1.6-0.9-2.3-2.1-2.3-3.5
			v-3.5c0-0.3,0.1-0.7,0.2-1.1c0.5-2.1,2-3.1,4.4-3.1h9.4l0.1,4.7h-8.5c-0.1,0-0.2,0.1-0.3,0.2c-0.3,0.3-0.5,0.6-0.5,0.7v0.4
			c0,0.4,0.3,0.8,1.1,0.9h4.1c1,0,2,0.4,2.8,1.3s1.2,1.8,1.2,2.8v3.4c0,0.8-0.3,1.5-0.6,2.2c-0.4,0.7-0.9,1.2-1.6,1.6
			c-0.5,0.3-1.3,0.4-2.2,0.4L330.4,510.5L330.4,510.5z M347.5,510.5v-25.4h4.7v6.9h3.1v4.7h-3.1v13.8
			C352.2,510.5,347.5,510.5,347.5,510.5z"/>
	</g>
	<g id="Layer_2_1_">
		<path class="st0" d="M1036,507.4c1.8,3.4,3.4,6.4,5.1,9.3c0.2,0.5,1.1,0.6,1.6,0.6c7.7,0.1,15.4,0,23.1,0h2.2
			c-1.5,2.6-3,4.9-4.1,7.5c-1.1,2.5-2.8,3-5.4,3c-7.3-0.2-14.5-0.1-21.7-0.1c-0.9,0-1.5-0.2-2-1.1c-1.1-2-2.3-4-3.5-6
			c-0.2-0.2-0.3-0.5-0.5-0.8c-1.3,2.4-2.5,4.7-3.8,7c-0.2,0.5-0.9,0.8-1.5,0.8c-5,0.1-9.9,0.1-14.9,0c-0.5,0-1.2-0.4-1.5-0.8
			c-2.8-4.7-5.6-9.5-8.4-14.2c-2.8-4.7-5.6-9.4-8.4-14.1c-0.9-1.5-1.8-2.8-2.5-4.4c-0.2-0.5-0.1-1.5,0.2-2c1.7-3,3.6-5.9,5.6-9
			c0.9,1.5,1.8,3,2.7,4.5c2.5,4.4,5.1,8.8,7.6,13.1c3,5.1,5.9,10.2,8.8,15.3c0.5,0.9,1.2,1.3,2.3,1.2c3.2-0.1,6.4-0.2,9.5,0.1
			c2,0.2,2.9-0.7,3.6-2.3c1.4-2.7,2.8-5.5,4.4-8.2c2.3-4.1,4.5-8.3,6.7-12.5c0.2-0.3,0.4-0.5,0.5-0.9c2.6,4.5,5.2,9.1,7.9,13.8
			C1045,507.4,1040.7,507.4,1036,507.4L1036,507.4z"/>
		<path class="st0" d="M996.3,482.1c2.1-3.5,4.1-6.7,6-10c0.3-0.5,0.9-0.8,1.5-0.8c3.2-0.1,6.3,0,9.5-0.1c1.2-0.1,1.6,0.5,2.2,1.3
			c3,5,5.9,9.9,8.8,14.9c0.5,0.9,1.1,1.9,1.7,3c2-3.8,4-7.5,5.9-11.1c1.3-2.5,2.5-5,3.8-7.5c0.2-0.4,0.7-0.6,1.1-0.6
			c5.5-0.1,10.8-0.1,16.3,0c0.5,0,0.9,0.5,1.2,0.8c2.3,3.7,4.5,7.4,6.8,11.1l7,11.6c2,3.2,3.9,6.5,5.8,9.7c0.3,0.5,0.5,1.4,0.2,1.8
			c-1.6,3.1-3.4,6.2-5.1,9.5c-2.1-3.4-4.1-6.6-5.9-9.8c-2.1-3.5-4.1-7-6.3-10.6c-2.5-4.1-4.9-8.2-7.4-12.3c-0.5-0.7-0.9-1-1.7-0.9
			c-3.9,0.1-7.8,0.1-11.7,0c-1.3,0-1.7,0.5-2.3,1.5c-3.8,7.3-7.7,14.5-11.6,22c-1.6-2.7-3.2-5.3-4.7-7.9l-4.8-8.3
			c-1.3-2.1-2.5-4.1-3.7-6.3c-0.5-0.9-1-1-1.9-0.9C1003.5,482.1,1000.1,482.1,996.3,482.1L996.3,482.1z"/>
	</g>
</g>
<g id="Layer_2">
	<path class="st0" d="M742.5,491.4c0,0,1.5-0.8,1.7-3.3c0,0,0-1.3-0.2-2.9c0,0-0.2-1-0.5-1.4c0,0-1.4-0.2-3.1,0.3
		c0,0-4.3,1-10.8,4.6c0,0-2.8,1.7-3.3,2c0,0-0.8,0.5,0.2,1c0,0,0.9,0.2,2.1,0.1h0.4c0,0-1.8,1.3-2.4,1.6c0,0-2.4,1.5-3.3,3
		c0,0-1.2,1.5-1,4.3c0,0,0.2,3.6,2.1,7.5c0,0,0.5,1,1.2,1.8c0,0,0.3,0.5,1.4,0.4c0,0,5.7,0.3,8.9-0.3c0,0,4.8-0.5,5.1-2.8
		c0,0,0.1-1.3,0-1.8c0,0,0-0.2,0.3-0.2c0,0,2.6-0.8,3.1-2.4c0,0,0.2-0.5,0.3-1.8c0,0,0.2-0.8-0.2-1.2c0,0-0.2-0.3-0.7-0.2
		c0,0-2.4,0.5-4.1,0.8c0,0-5.7,1.1-10.8,0.6c0,0-2.4,0.2-1.4-1.4c0,0,0.9-1.3,3.3-2.8c0,0,3.5-2.2,6.3-3.3
		C736.7,493.4,741.1,491.5,742.5,491.4L742.5,491.4z M760.1,511l-0.5-2.9c-0.5-2.7-0.4-4.9-0.4-4.9c0.1-1.4,0.5-4.2,0.5-4.2
		c0.1-0.9-0.1-1.3-0.1-1.3c-1.4-2.2-3.3-4-3.3-4c-0.5-0.6-1.1-0.2-1.1-0.2l-0.3,0.2c-0.6,0.5-1-0.1-1-0.1c-0.8-0.6-1.3-0.1-1.3-0.1
		c-0.6,0.5-2.7,2.3-2.7,2.3c-0.3,0.5,0,0.8,0,0.9c0,0.2-0.2,0.4-0.2,0.4c-0.5,0.6-2.4,4-2.4,4c-0.9,1.3-1.5,3.4-1.5,3.4
		c-0.5,1.3-0.5,4.3-0.5,4.3c0.1,1,0.8,1.7,0.8,1.7c0.6,0.9,1.4,0.5,1.4,0.5c0.7-0.1,2.9-1.9,2.9-1.9c0.6-0.5,3.3-2.5,3.3-2.5
		l0.2,0.1c0.5,1,2.5,4.1,2.5,4.1c0.4,0.5,0.6,0.5,0.6,0.5c0.3,0.1,0.6,0.2,0.6,0.2l1.4,0.3C760.4,512.2,760.1,511,760.1,511
		L760.1,511z M752.8,501.4c0,0-2.4,1.9-3.3,2.7c0,0-0.6,1-0.5-0.2c0,0,0-0.9,1-2.4c0,0,0.6-1.2,1.1-1.6c0,0,0.5-0.1,1.2,0.5
		C752.3,500.4,753,500.9,752.8,501.4z M770.7,484.1c0,0,0.3-0.5,1-0.5h0.9c0,0,0.5-0.1,0.6,0.8l0.2,2.6c0,0,0.2,0.7-0.5,2
		c0,0-0.4,0.8-0.6,1.7l-2.4,7.3c0,0-0.2,0.3,0.2,0.3c0,0,1.3,0.3,1.3,1.3c0,0,0,0.2,0.5,0c0,0,1.3-0.5,1.1,1.1c0,0,0,1.3-1,3.3
		c0,0,0.5,6.3,0.6,8.7c0,0,0.1,1.8,0.1,2.8c0,0,0.2,1-1.1,1.7c0,0-2.2,1.3-3.7,1.3c0,0-0.5,0.2-1.1-0.4c0,0-1.7-2-2.7-4.6
		c0,0-0.9-2.2-1.2-3.1c0,0-0.7-2.1-0.7-4.2c0,0,0.1-3,0.7-5.2c0,0,1.3-4.5,3.3-8.6c0,0,2.5-4.9,3.3-6.4
		C769.5,486,770.7,484.1,770.7,484.1L770.7,484.1z"/>
	<path class="st0" d="M768.8,511.2c0,1,0.4,1.6,0.4,1.6c0.4,0.3,0.9-1.3,0.9-1.3l0.2-5.2c0-0.5-0.5-0.5-0.5-0.5h-0.5
		c-0.5,0-0.5,0.5-0.5,0.5C768.6,508.3,768.8,511.2,768.8,511.2L768.8,511.2z M786.3,504.8c0,0-1.6,0.5-3-0.1c0,0-1.1-0.5-1.4-1
		c0,0.2-0.2,0-0.1-0.2c0,0,4.4-3.7,5.2-5.2c0,0,1.1-1.8,0.9-3.1c0,0-0.6-1.2-3-1.4c0,0-1.7-0.3-3-0.1c0,0-0.5,0.2-1.1,0.5
		c0,0-2.5,1.7-4.8,5.5c0,0-1.4,2.1-1.4,5.1c0,0-0.2,1.7,1,3.3c0,0,1.4,2.2,4.1,2.6c0,0,2.8,0.5,4.7-0.3c0,0,1-0.3,1.2-1.4
		c0,0,0.1-0.5,0.3-0.8c0,0,0.2-0.3,0.5-0.4c0,0,1.1-0.5,1.1-1.3v-1.3C787.4,505.3,787.4,504.5,786.3,504.8L786.3,504.8z
		 M780.8,500.8c0,0,0.1-1,0.9-2.2c0,0,0.5-1.1,1.3-1.4c0,0,1.2-0.2,1.5,0.5c0,0-0.5,0.6-1.8,1.9C782.5,499.6,780.8,501,780.8,500.8
		L780.8,500.8z M823.3,505.8c0-0.9-1-1-1-1c-0.8-0.1-2.5-0.6-2.5-0.6c-3.4-1.1-6.7-3.6-6.7-3.6c-1.9-1.3-3.3-3-3.3-3
		c1.8-0.1,6.4-0.5,6.4-0.5c2.2-0.1,4.2-0.6,4.2-0.6c3-0.7,2.7-2.4,2.7-2.4c-0.1-1.3-0.5-3.3-0.5-3.3c-0.3-0.7-0.5-2.2-0.5-2.2
		c-0.3-1.5-2.5-2.5-2.5-2.5c-2.5-1.3-6.4-2-6.4-2c-2.1-0.5-4.9-0.5-4.9-0.5c-0.5,0-1.4,0.3-1.4,0.3l-2.4,0.7
		c-1.1,0.3-2.3,0.5-2.3,0.5c-1.3,0-1.3,1-1.3,1c0,0.7-0.2,1.7-0.2,1.7c-0.1,1,0.8,1,1.1,0.7l0.8,0.1c0.7,0.2,0.5,0.7,0.5,0.7
		l-0.3,2.4c-0.5,2.8-0.8,5.4-1,8.4v0.1c-0.3,3,0.3,7.5,0.3,7.5c0.3,0.9,0.8,1.4,0.8,1.4c0.5,0.4,1.8,0.9,1.8,0.9
		c1.6,0.9,1.8-0.7,1.8-0.7l0.3-3c0-0.8,0.2-1,0.2-1c1.6,1.1,5.3,3,5.3,3c2.9,1.4,5.2,1.8,5.2,1.8c0.9,0,1-0.2,1-0.2
		c0.9-0.8,2.4-2.1,2.4-2.1c0.6-0.5,1.5-0.6,1.5-0.6C823.7,506.8,823.3,505.8,823.3,505.8L823.3,505.8z M809.1,490.8
		c0.4-0.2,1.8,0.1,2,0.2c2.7,0.3,5.9,1.3,5.9,1.3c0.7,0.3,0.7,0.5,0.7,0.5c-0.1,0.6-2.5,1.1-2.5,1.1c-2.8,0.8-6.8,1.4-6.8,1.4
		C808.6,493.5,809.1,490.8,809.1,490.8L809.1,490.8z M827.3,492.3l2.9-3.1c0,0,0.4-0.4,0.8-0.5l2.8-0.8c0,0,0.6-0.3,1,0.5l0.6,1.4
		c0,0,0.5,0.6-0.3,1.4l-4,3.3c0,0-0.6,0.6-1.7,0l-1.8-1.3C827.6,493.2,826.9,492.8,827.3,492.3z M831.5,496.4c0,0,1-0.5,1.7-0.5
		c0,0,0.2-0.1,0.7,0.7c0,0,0.6,0.7,0.5,1.7c0,0-0.6,3.5-0.9,6c0,0-0.8,5-0.9,5.4c0,0-0.3,1.6-2.2,1c0,0-1.3-0.4-2.3-1
		c0,0-0.6-0.5-0.9-1.2c0,0-0.5-1.7-0.5-2.1c0,0-0.1-0.5-0.7-0.5h-0.6c0,0-0.5,0.1-0.5-1c0,0-0.2-1.4,0-2.1c0,0,0.2-1.1,1.1-2.2
		C826,500.6,827.6,498.5,831.5,496.4z M848.5,496.6c-2.9-2.7-4.8-2.9-4.8-2.9c-2-0.6-3.2,0.4-3.2,0.4l-3.1,3.2
		c-0.6,0.5-0.1,1.2,0,1.3c0.4,0.7,0.2,1.7,0.2,1.7c-0.4,1.5-0.5,4.6-0.5,4.6c-0.2,1.7,0.2,4.1,0.2,4.1c0,1.1,1,1.6,1,1.6
		c1.4,0.8,3.7-0.3,3.7-0.3c2.4-1.4,3.7-3.3,3.7-3.3c2.9-4,3.4-7,3.4-7C849.6,497.6,848.5,496.6,848.5,496.6L848.5,496.6z
		 M843.1,502.5c0,0-1.7,1.7-2.3,1.1c0,0-0.3-0.7-0.2-2.5c0,0,0-0.6,0.1-0.5c0,0,2.1,0.8,2.6,1.5C843.4,502,843.3,502.3,843.1,502.5
		L843.1,502.5z"/>
</g>
<path class="st0" d="M517.9,490.7v1.9c1.1-0.3,2.3-0.5,3.4-0.8v-1.9c-0.4,0.1-0.7,0.2-1.1,0.2v-7.7c0.6-0.1,1.2-0.3,1.8-0.4l1.3,9.2
	v0.2c1-0.2,2-0.3,3-0.4v-1.9c-0.5,0.1-0.9,0.1-1.4,0.2l-1-7.6l1.9-0.3v-6c-2.6,0.3-5.3,0.7-7.8,1.4v1.9c0.2,0,0.3-0.1,0.5-0.1v12.1
	C518.2,490.7,518,490.7,517.9,490.7L517.9,490.7z M523.9,477.5v2.4c-1.3,0.2-2.4,0.4-3.7,0.6v-2.4
	C521.4,478,522.7,477.7,523.9,477.5z"/>
<path class="st0" d="M546.1,473.3c-4.2-1.2-8.6-1.8-13.1-1.9v1.9h0.7V489h-4v-15.8h0.7v-1.9c-4.4,0.1-8.8,0.7-13.1,1.9v1.9
	c3.4-0.9,6.9-1.5,10.5-1.8V491c1.3-0.1,2.6-0.2,3.9-0.2c1.3,0,2.6,0.1,3.9,0.2v-17.6c3.6,0.3,7.1,0.9,10.5,1.8V473.3z"/>
<path class="st0" d="M545.4,480.2v-3.4c-2.6-0.6-5.2-1.1-7.8-1.4v3.4c0.6,0.1,1.3,0.2,1.9,0.2v-1.5c0.4,0.1,0.8,0.1,1.2,0.2v12.1
	c-0.4-0.1-0.7-0.1-1.1-0.2v1.9c1.3,0.2,2.5,0.5,3.8,0.7v-1.9c-0.3-0.1-0.6-0.1-0.9-0.2V478c0.4,0.1,0.8,0.2,1.2,0.3v1.5
	C544.2,479.9,544.8,480,545.4,480.2L545.4,480.2z M547.6,475.7c0.4,0.1,0.7,0.3,1.1,0.4v4.1c-0.2,0-0.3-0.1-0.5-0.1v2
	c0.2,0,0.3,0.1,0.5,0.2v9.6c-0.4-0.1-0.7-0.3-1.1-0.4v2c2.7,0.8,5.2,1.8,7.7,3.1l0.1-3.2c-0.6-0.3-1.3-0.5-1.8-0.8v1.2
	c-1-0.5-2-0.8-3.1-1.2v-9.6l2.2,0.8v-2l-2.2-0.8v-4.1c1.2,0.5,2.3,0.9,3.4,1.4v1.6c0.6,0.3,1.3,0.5,1.8,0.8l0.1-3.6
	c-2.7-1.3-5.4-2.3-8.2-3.2L547.6,475.7L547.6,475.7z M525.6,467.9c-6.7,0.7-13.2,2.7-19.3,5.7l0.1,2.1c5.9-3.2,12.5-5.1,19.2-5.9
	V467.9L525.6,467.9z M537.8,467.9v1.9c6.7,0.7,13.1,2.7,19,5.8l0.1-2.1C550.9,470.5,544.4,468.6,537.8,467.9L537.8,467.9z
	 M515.9,498.3v-3.1c-2.8,0.8-5.5,1.8-8.1,3.1v0.1l0.2,5.9h0.1c2.1,0.2,4.1,0.5,6,0.7v10.3c-1.4-0.4-2.6-0.6-4.1-0.8l-0.1-5.6
	c0.5-0.2,1-0.5,1.4-0.6v-2c-1.1,0.5-2.3,0.9-3.3,1.4l0.2,8.4c2.7,0.4,5.2,1,7.7,1.6v-14.3c-2.1-0.4-4.1-0.6-6.1-0.8l-0.1-3.1
	c1.4-0.6,2.9-1.2,4.4-1.7v1.1C514.7,498.7,515.3,498.5,515.9,498.3L515.9,498.3z M531.7,530.9c-3.7-3.2-8.1-5.8-13.2-7.7
	c-3.4-1.3-7.1-2.2-11-2.7l0.1,1.9c3.7,0.5,7.1,1.4,10.3,2.6c5.2,2,9.7,4.7,13.2,7.8l0.6,0.5l0.6-0.5c3.6-3.2,8.1-5.9,13.2-7.8
	c3.2-1.2,6.5-2.1,10.1-2.5l0.1-1.9c-3.8,0.5-7.4,1.4-10.8,2.7C539.8,525.1,535.3,527.9,531.7,530.9L531.7,530.9z"/>
<path class="st0" d="M525.7,525.1V524c-0.5-0.6-1.2-1.7-1.7-3.3c0.6,0.3,1.2,0.5,1.7,0.8V497c-3.1,0.4-6,0.9-9,1.7v1.9
	c0.3-0.1,0.5-0.2,0.8-0.2v17.7c1.6,0.5,3.2,1.1,4.6,1.7c0.2,0.6,0.4,1.2,0.5,1.7c-4.6-2.1-9.8-3.6-15.4-4.4l0.1,1.9
	c3.5,0.5,6.8,1.3,9.9,2.3C520.3,522.4,523.1,523.7,525.7,525.1z M519.4,516.8v-16.9c1.4-0.4,3-0.6,4.4-0.8v19.5l-0.5-0.3
	c-0.2-0.8-0.3-1.8-0.4-2.8c-0.5-0.2-1-0.4-1.5-0.5c0,1,0.1,1.9,0.3,2.7C521,517.3,520.2,517,519.4,516.8L519.4,516.8z M527.8,524.2
	v2.2c1.2,0.7,2.3,1.5,3.2,2.3l0.5,0.5l0.5-0.5c1.1-0.8,2.2-1.6,3.3-2.3v-2.2c-1.4,0.8-2.7,1.7-3.9,2.6
	C530.4,526,529.2,525.1,527.8,524.2L527.8,524.2z"/>
<path class="st0" d="M546.1,494.9c-4.2-1.2-8.6-1.8-13.1-1.9v1.9h0.7v26.7c-0.7,0.5-1.4,0.8-2,1.3c-0.6-0.5-1.4-0.8-2-1.3v-26.7h0.7
	V493c-4.4,0.1-8.8,0.7-13.1,1.9v1.9c3.4-0.9,6.9-1.5,10.5-1.8v27.7h0.1c1.2,0.6,2.3,1.4,3.2,2.1l0.5,0.4l0.5-0.4
	c1.1-0.7,2.2-1.4,3.3-2.1V495c3.6,0.3,7.1,0.9,10.5,1.8L546.1,494.9L546.1,494.9z"/>
<path class="st0" d="M539.5,504.8c1.3,0.2,2.5,0.5,3.8,0.7l1.4,11.1c-0.5,0.2-0.9,0.3-1.4,0.5v2c1.1-0.5,2.3-0.8,3.3-1.2l-2.3-17.7
	c0.4,0.1,0.6,0.2,1,0.3v-1.9c-2.5-0.6-5.1-1.1-7.7-1.4v5.7h-0.4v1.9h0.4v20.6c5.1-3,11.3-5,18-6l0.1-1.9c-5.9,0.8-11.4,2.5-16.2,4.9
	V504.8L539.5,504.8z M539.5,499l3,0.5l0.5,3.9c-1.2-0.3-2.3-0.5-3.5-0.6L539.5,499L539.5,499z"/>
<path class="st0" d="M547.6,515.6v1.9c2.3-0.6,4.8-1.2,7.3-1.6l0.5-17.7c-2.5-1.2-5-2.2-7.7-2.9v2l0.8,0.3v17.9
	C548.2,515.4,547.9,515.5,547.6,515.6z M550.3,498.1c1.1,0.4,2.1,0.8,3.2,1.3l-0.4,15c-0.9,0.2-1.9,0.4-2.8,0.5V498.1L550.3,498.1z
	 M536.3,468.9h-0.5v0.2c-0.4,0-0.8-0.1-1.3-0.1V468h0.8v-0.5h-0.8v-0.7c0.5,0,0.8,0,1.3,0.1v0.3h0.5v-0.8c-0.8-0.1-1.5-0.1-2.3-0.2
	v2.6h-0.4v0.5c0.9,0,1.8,0.1,2.7,0.2V468.9z M526.9,467.4c0.2,0,0.4,0,0.5-0.1v-0.5c0.2,0,0.5,0,0.6-0.1v2.1h-0.2v0.5
	c0.4,0,0.6,0,1-0.1v-0.5h-0.3v-2.1c0.8,0,1.6-0.1,2.4-0.1v-0.5c-1.4,0-2.8,0.1-4.2,0.2L526.9,467.4L526.9,467.4z"/>
<path class="st0" d="M531.8,467.9h-1v-0.5h-0.5v1.5H530v0.5h1.2v-0.5h-0.4v-0.5h1.7v0.5h-0.4v0.5h0.9v-2.6h0.4v-0.5h-1.3v0.5h0.4
	v1.1L531.8,467.9L531.8,467.9z M516.3,478.1c-0.2,0-0.4,0.1-0.5,0.1v-4.6c-3,0.9-5.9,2-8.6,3.3l0.1,2.1c0.5-0.2,0.9-0.5,1.4-0.6V494
	c-0.4,0.2-0.6,0.3-1,0.5l0.1,2.1c2.8-1.4,5.7-2.5,8.6-3.3L516.3,478.1L516.3,478.1z M510.5,477.6l3.5-1.4v2.7
	c-1.2,0.4-2.3,0.8-3.5,1.3V477.6z M514.5,491.7c-1.4,0.5-2.7,0.9-4,1.4v-11c1.3-0.5,2.6-1.1,4-1.5V491.7L514.5,491.7z"/>
<g>
	<polygon class="st0" points="79.7,470.4 96.6,470.4 96.6,510.9 	"/>
	<polygon class="st0" points="67.8,470.4 50.8,470.4 50.8,510.9 	"/>
	<polygon class="st0" points="73.7,485.4 84.5,510.9 77.4,510.9 74.2,502.8 66.3,502.8 	"/>
	<g>
		<path class="st0" d="M54,529.6l-0.7,3.5c0,0.1-0.1,0.2-0.2,0.2H51c-0.1,0-0.2,0-0.2-0.2l3-12.7c0.1-0.4,0.1-0.6,0.1-1.2
			c0-0.1,0-0.1,0.1-0.1h3.1c0.1,0,0.2,0,0.2,0.2l3.5,14c0,0.1,0,0.2-0.1,0.2h-2.4c-0.1,0-0.2-0.1-0.2-0.2l-0.8-3.5H54z M56.7,527.2
			c-0.3-1.6-0.9-4.1-1.1-5.7h0c-0.2,1.6-0.7,3.7-1,5.7H56.7z"/>
		<path class="st0" d="M61.1,527.8c0-3.3,1.9-5.8,5-5.8h0.4v-3.8c0-0.1,0-0.1,0.1-0.1h2.4c0.1,0,0.1,0,0.1,0.1V531
			c0,0.3,0,0.8,0.1,1.5c0,0.1,0,0.1-0.1,0.2c-0.9,0.5-2.1,0.8-3.2,0.8C63,533.4,61.1,531.6,61.1,527.8z M66.4,524.4
			c-0.1,0-0.2-0.1-0.5-0.1c-1.2,0-2.2,1.1-2.2,3.4c0,2.4,0.9,3.3,2.2,3.3c0.2,0,0.4,0,0.5-0.1V524.4z"/>
		<path class="st0" d="M78.6,527.7c0,3.5-1.5,5.8-4.1,5.8c-2.9,0-4.1-2.5-4.1-5.8c0-3.3,1.5-5.7,4.1-5.7
			C77.1,522,78.6,524.1,78.6,527.7z M73.1,527.7c0,2.1,0.4,3.4,1.4,3.4c1,0,1.4-1.2,1.4-3.4c0-2.1-0.4-3.4-1.4-3.4
			C73.6,524.3,73.1,525.4,73.1,527.7z"/>
		<path class="st0" d="M82.5,518.1c0.1,0,0.1,0,0.1,0.1v3.9c0.3-0.1,0.7-0.1,1.2-0.1c2.3,0,4.1,1.8,4.1,5.2c0,4-2.3,6.2-5.2,6.2
			c-0.8,0-1.7-0.1-2.6-0.4c-0.1,0-0.1-0.1-0.1-0.2v-14.7c0-0.1,0-0.1,0.1-0.1H82.5z M83.4,524.4c-0.2,0-0.6,0-0.8,0.1v6.6
			c0.2,0,0.3,0,0.5,0c1,0,2.2-1,2.2-3.8C85.3,525.1,84.4,524.4,83.4,524.4z"/>
		<path class="st0" d="M91.5,528.3c0,1.7,0.6,2.8,2.5,2.8c0.6,0,1.1-0.1,1.7-0.3c0.1,0,0.2,0,0.2,0.1v1.9c0,0.2,0,0.2-0.2,0.3
			c-0.6,0.3-1.5,0.4-2.2,0.4c-3.3,0-4.5-2.4-4.5-5.6c0-3.3,1.5-5.9,4.1-5.9c2.7,0,3.5,2.4,3.5,4.4c0,0.7-0.1,1.4-0.1,1.7
			c0,0.1-0.1,0.2-0.2,0.2c-0.2,0-0.9,0.1-2.1,0.1H91.5z M93.4,526.2c0.4,0,0.6,0,0.7,0c0-0.1,0-0.2,0-0.2c0-0.8-0.3-1.7-1.2-1.7
			c-0.9,0-1.2,0.9-1.4,2H93.4z"/>
	</g>
</g>
</svg>
