<?xml version="1.0" encoding="utf-8"?>
<!-- Generator: Adobe Illustrator 19.0.0, SVG Export Plug-In . SVG Version: 6.00 Build 0)  -->
<!DOCTYPE svg PUBLIC "-//W3C//DTD SVG 1.1//EN" "http://www.w3.org/Graphics/SVG/1.1/DTD/svg11.dtd">
<svg version="1.1" id="Layer_1" xmlns="http://www.w3.org/2000/svg" xmlns:xlink="http://www.w3.org/1999/xlink" x="0px" y="0px"
	 viewBox="31 457.5 1061.2 86.5" style="enable-background:new 31 457.5 1061.2 86.5;" xml:space="preserve">
<style type="text/css">
	.st0{fill:#646464;}
	.st1{opacity:0.34;fill:#646464;enable-background:new    ;}
</style>
<g id="Layer_1_2_">
	<g id="Layer_1_1_">
		<path class="st0" d="M248.9,511.5v-4.7h8.4c0.5-0.1,0.9-0.3,0.9-0.7v-0.5c0-0.5-0.3-0.8-0.8-0.9h-4.1c-0.7,0-1.4-0.2-2-0.5
			c-1.6-0.9-2.3-2.1-2.3-3.5v-3.5c0-0.3,0.1-0.7,0.2-1.1c0.5-2.1,2-3.1,4.4-3.1h9.4l0.1,4.7h-8.5c-0.1,0-0.2,0.1-0.3,0.2
			c-0.3,0.3-0.5,0.6-0.5,0.7v0.4c0,0.4,0.3,0.8,1.1,0.9h4.1c1,0,2,0.4,2.8,1.3c0.8,0.9,1.2,1.8,1.2,2.8v3.4c0,0.8-0.3,1.5-0.7,2.2
			s-0.9,1.2-1.6,1.6c-0.5,0.3-1.3,0.4-2.2,0.4C258.5,511.5,248.9,511.5,248.9,511.5L248.9,511.5z M266,511.5v-14.1
			c0-0.3,0-0.5,0.1-0.9c0.3-2.3,1.8-3.5,4.3-3.5h6.6c2.5,0,4,1.2,4.3,3.5c0.1,0.3,0.1,0.6,0.1,0.9v14.1h-4.6v-12.7
			c-0.1-0.7-0.6-1-1.6-1h-2.8c-0.9,0-1.4,0.3-1.6,1v12.8L266,511.5C266,511.6,266,511.5,266,511.5L266,511.5z M284.6,507.4v-3.8
			c0-1.4,0.4-2.4,1.2-3.2c0.8-0.8,1.9-1.1,3.3-1.1h6.2v-0.9c0-0.4-0.3-0.6-1-0.8h-9.8V493h10.8c0.2,0,0.4,0,0.8,0.1
			c2.2,0.3,3.5,1.4,3.8,3.5c0.1,0.3,0.1,0.5,0.1,0.8v9.8c0,0.3,0,0.6-0.1,0.9c-0.2,1-0.7,1.9-1.5,2.5s-1.6,0.9-2.7,0.9h-6.4
			c-2.8,0-4.3-1.1-4.7-3.4C284.7,508,284.7,507.7,284.6,507.4L284.6,507.4z M289.5,506.6c0.2,0.2,0.3,0.3,0.7,0.4h3.9
			c0.8,0,1.2-0.3,1.2-1v-1.3c0-0.4-0.2-0.8-0.6-1c-0.1-0.1-0.3-0.2-0.6-0.2H290c-0.4,0.1-0.6,0.3-0.7,0.9v1.5
			C289.3,506.1,289.4,506.3,289.5,506.6L289.5,506.6z M303.3,518.5v-20.6c0-0.3,0-0.5,0.1-0.9c0.3-2.2,1.4-3.5,3.5-3.9
			c0.3-0.1,0.4-0.1,0.6-0.1h6.7c0.3,0,0.6,0,0.9,0.1c2.3,0.4,3.5,2,3.5,4.7v9.6c0,0.9-0.3,1.6-0.9,2.3c-0.1,0.2-0.3,0.3-0.5,0.6
			c-0.9,0.9-1.9,1.3-3,1.3h-6.4v6.9H303.3L303.3,518.5z M308,505.7c0.1,0.6,0.5,0.9,1.1,1.1h3.8c0.3-0.1,0.5-0.2,0.8-0.4
			c0.2-0.3,0.3-0.5,0.3-0.7v-7c-0.1-0.5-0.3-0.8-0.9-0.9h-3.8c-0.5,0-0.9,0.3-1.1,0.8c-0.1,0.2-0.2,0.4-0.2,0.6L308,505.7L308,505.7
			z M322,511.5v-21.2c0-1.3,0.5-2.3,1.6-3.1c0.9-0.7,2.1-1,3.5-1h2.9v4.4h-2.1c-0.9,0.2-1.3,0.6-1.3,1.4v0.9h3.3v4.7h-3.3v13.8H322
			V511.5z M331.7,507.4v-3.8c0-1.4,0.4-2.4,1.2-3.2c0.8-0.8,1.9-1.1,3.3-1.1h6.2v-0.9c0-0.4-0.3-0.6-1-0.8h-9.7V493h10.8
			c0.2,0,0.4,0,0.8,0.1c2.2,0.3,3.5,1.4,3.8,3.5c0.1,0.3,0.1,0.5,0.1,0.8v9.8c0,0.3,0,0.6-0.1,0.9c-0.2,1-0.7,1.9-1.5,2.5
			s-1.6,0.9-2.7,0.9h-6.5c-2.8,0-4.3-1.1-4.7-3.4C331.8,508,331.8,507.7,331.7,507.4L331.7,507.4z M336.6,506.5
			c0.2,0.2,0.3,0.3,0.7,0.4h4c0.8,0,1.2-0.3,1.2-1v-1.3c0-0.4-0.2-0.8-0.6-0.9c-0.1-0.1-0.3-0.2-0.6-0.2h-4.1
			c-0.4,0.1-0.6,0.3-0.7,0.9v1.5C336.4,506.1,336.5,506.3,336.6,506.5z M350.2,511.5v-4.7h8.4c0.5-0.1,0.9-0.3,0.9-0.7v-0.5
			c0-0.5-0.3-0.8-0.8-0.9h-4.1c-0.7,0-1.4-0.2-2-0.5c-1.6-0.9-2.3-2.1-2.3-3.5v-3.5c0-0.3,0.1-0.7,0.2-1.1c0.5-2.1,2-3.1,4.4-3.1
			h9.4l0.1,4.7h-8.5c-0.1,0-0.2,0.1-0.3,0.2c-0.3,0.3-0.5,0.6-0.5,0.7v0.4c0,0.4,0.3,0.8,1.1,0.9h4.1c1,0,2,0.4,2.8,1.3
			s1.2,1.8,1.2,2.8v3.4c0,0.8-0.3,1.5-0.6,2.2c-0.4,0.7-0.9,1.2-1.6,1.6c-0.5,0.3-1.3,0.4-2.2,0.4L350.2,511.5L350.2,511.5z
			 M367.3,511.5v-25.4h4.7v6.9h3.1v4.7H372v13.8H367.3z"/>
		<path class="st1" d="M248.9,511.5v-4.7h8.4c0.5-0.1,0.9-0.3,0.9-0.7v-0.5c0-0.5-0.3-0.8-0.8-0.9h-4.1c-0.7,0-1.4-0.2-2-0.5
			c-1.6-0.9-2.3-2.1-2.3-3.5v-3.5c0-0.3,0.1-0.7,0.2-1.1c0.5-2.1,2-3.1,4.4-3.1h9.4l0.1,4.7h-8.5c-0.1,0-0.2,0.1-0.3,0.2
			c-0.3,0.3-0.5,0.6-0.5,0.7v0.4c0,0.4,0.3,0.8,1.1,0.9h4.1c1,0,2,0.4,2.8,1.3c0.8,0.9,1.2,1.8,1.2,2.8v3.4c0,0.8-0.3,1.5-0.7,2.2
			s-0.9,1.2-1.6,1.6c-0.5,0.3-1.3,0.4-2.2,0.4C258.5,511.5,248.9,511.5,248.9,511.5L248.9,511.5z M266,511.5v-14.1
			c0-0.3,0-0.5,0.1-0.9c0.3-2.3,1.8-3.5,4.3-3.5h6.6c2.5,0,4,1.2,4.3,3.5c0.1,0.3,0.1,0.6,0.1,0.9v14.1h-4.6v-12.7
			c-0.1-0.7-0.6-1-1.6-1h-2.8c-0.9,0-1.4,0.3-1.6,1v12.8L266,511.5C266,511.6,266,511.5,266,511.5L266,511.5z M284.6,507.4v-3.8
			c0-1.4,0.4-2.4,1.2-3.2c0.8-0.8,1.9-1.1,3.3-1.1h6.2v-0.9c0-0.4-0.3-0.6-1-0.8h-9.8V493h10.8c0.2,0,0.4,0,0.8,0.1
			c2.2,0.3,3.5,1.4,3.8,3.5c0.1,0.3,0.1,0.5,0.1,0.8v9.8c0,0.3,0,0.6-0.1,0.9c-0.2,1-0.7,1.9-1.5,2.5s-1.6,0.9-2.7,0.9h-6.4
			c-2.8,0-4.3-1.1-4.7-3.4C284.7,508,284.7,507.7,284.6,507.4L284.6,507.4z M289.5,506.6c0.2,0.2,0.3,0.3,0.7,0.4h3.9
			c0.8,0,1.2-0.3,1.2-1v-1.3c0-0.4-0.2-0.8-0.6-1c-0.1-0.1-0.3-0.2-0.6-0.2H290c-0.4,0.1-0.6,0.3-0.7,0.9v1.5
			C289.3,506.1,289.4,506.3,289.5,506.6L289.5,506.6z M303.3,518.5v-20.6c0-0.3,0-0.5,0.1-0.9c0.3-2.2,1.4-3.5,3.5-3.9
			c0.3-0.1,0.4-0.1,0.6-0.1h6.7c0.3,0,0.6,0,0.9,0.1c2.3,0.4,3.5,2,3.5,4.7v9.6c0,0.9-0.3,1.6-0.9,2.3c-0.1,0.2-0.3,0.3-0.5,0.6
			c-0.9,0.9-1.9,1.3-3,1.3h-6.4v6.9H303.3L303.3,518.5z M308,505.7c0.1,0.6,0.5,0.9,1.1,1.1h3.8c0.3-0.1,0.5-0.2,0.8-0.4
			c0.2-0.3,0.3-0.5,0.3-0.7v-7c-0.1-0.5-0.3-0.8-0.9-0.9h-3.8c-0.5,0-0.9,0.3-1.1,0.8c-0.1,0.2-0.2,0.4-0.2,0.6L308,505.7L308,505.7
			z M322,511.5v-21.2c0-1.3,0.5-2.3,1.6-3.1c0.9-0.7,2.1-1,3.5-1h2.9v4.4h-2.1c-0.9,0.2-1.3,0.6-1.3,1.4v0.9h3.3v4.7h-3.3v13.8H322
			V511.5z M331.7,507.4v-3.8c0-1.4,0.4-2.4,1.2-3.2c0.8-0.8,1.9-1.1,3.3-1.1h6.2v-0.9c0-0.4-0.3-0.6-1-0.8h-9.7V493h10.8
			c0.2,0,0.4,0,0.8,0.1c2.2,0.3,3.5,1.4,3.8,3.5c0.1,0.3,0.1,0.5,0.1,0.8v9.8c0,0.3,0,0.6-0.1,0.9c-0.2,1-0.7,1.9-1.5,2.5
			s-1.6,0.9-2.7,0.9h-6.5c-2.8,0-4.3-1.1-4.7-3.4C331.8,508,331.8,507.7,331.7,507.4L331.7,507.4z M336.6,506.5
			c0.2,0.2,0.3,0.3,0.7,0.4h4c0.8,0,1.2-0.3,1.2-1v-1.3c0-0.4-0.2-0.8-0.6-0.9c-0.1-0.1-0.3-0.2-0.6-0.2h-4.1
			c-0.4,0.1-0.6,0.3-0.7,0.9v1.5C336.4,506.1,336.5,506.3,336.6,506.5z M350.2,511.5v-4.7h8.4c0.5-0.1,0.9-0.3,0.9-0.7v-0.5
			c0-0.5-0.3-0.8-0.8-0.9h-4.1c-0.7,0-1.4-0.2-2-0.5c-1.6-0.9-2.3-2.1-2.3-3.5v-3.5c0-0.3,0.1-0.7,0.2-1.1c0.5-2.1,2-3.1,4.4-3.1
			h9.4l0.1,4.7h-8.5c-0.1,0-0.2,0.1-0.3,0.2c-0.3,0.3-0.5,0.6-0.5,0.7v0.4c0,0.4,0.3,0.8,1.1,0.9h4.1c1,0,2,0.4,2.8,1.3
			s1.2,1.8,1.2,2.8v3.4c0,0.8-0.3,1.5-0.6,2.2c-0.4,0.7-0.9,1.2-1.6,1.6c-0.5,0.3-1.3,0.4-2.2,0.4L350.2,511.5L350.2,511.5z
			 M367.3,511.5v-25.4h4.7v6.9h3.1v4.7H372v13.8H367.3z"/>
	</g>
	<g id="Layer_2_1_">
		<path class="st0" d="M1037.8,508.4c1.8,3.4,3.4,6.4,5.1,9.3c0.2,0.5,1.1,0.6,1.6,0.6c7.7,0.1,15.4,0,23.1,0h2.2
			c-1.5,2.6-3,4.9-4.1,7.5c-1.1,2.5-2.8,3-5.4,3c-7.3-0.2-14.5-0.1-21.7-0.1c-0.9,0-1.5-0.2-2-1.1c-1.1-2-2.3-4-3.5-6
			c-0.2-0.2-0.3-0.5-0.5-0.8c-1.3,2.4-2.5,4.7-3.8,7c-0.2,0.5-0.9,0.8-1.5,0.8c-5,0.1-9.9,0.1-14.9,0c-0.5,0-1.2-0.4-1.5-0.8
			c-2.8-4.7-5.6-9.5-8.4-14.2c-2.8-4.7-5.6-9.4-8.4-14.1c-0.9-1.5-1.8-2.8-2.5-4.4c-0.2-0.5-0.1-1.5,0.2-2c1.7-3,3.6-5.9,5.6-9
			c0.9,1.5,1.8,3,2.7,4.5c2.5,4.4,5.1,8.8,7.6,13.1c3,5.1,5.9,10.2,8.8,15.3c0.5,0.9,1.2,1.3,2.3,1.2c3.2-0.1,6.4-0.2,9.5,0.1
			c2,0.2,2.9-0.7,3.6-2.3c1.4-2.7,2.8-5.5,4.4-8.2c2.3-4.1,4.5-8.3,6.7-12.5c0.2-0.3,0.4-0.5,0.5-0.9c2.6,4.5,5.2,9.1,7.9,13.8
			C1046.8,508.4,1042.5,508.4,1037.8,508.4L1037.8,508.4z"/>
		<path class="st0" d="M998.1,483.1c2.1-3.5,4.1-6.7,6-10c0.3-0.5,0.9-0.8,1.5-0.8c3.2-0.1,6.3,0,9.5-0.1c1.2-0.1,1.6,0.5,2.2,1.3
			c3,5,5.9,9.9,8.8,14.9c0.5,0.9,1.1,1.9,1.7,3c2-3.8,4-7.5,5.9-11.1c1.3-2.5,2.5-5,3.8-7.5c0.2-0.4,0.7-0.6,1.1-0.6
			c5.5-0.1,10.8-0.1,16.3,0c0.5,0,0.9,0.5,1.2,0.8c2.3,3.7,4.5,7.4,6.8,11.1l7,11.6c2,3.2,3.9,6.5,5.8,9.7c0.3,0.5,0.5,1.4,0.2,1.8
			c-1.6,3.1-3.4,6.2-5.1,9.5c-2.1-3.4-4.1-6.6-5.9-9.8c-2.1-3.5-4.1-7-6.3-10.6c-2.5-4.1-4.9-8.2-7.4-12.3c-0.5-0.7-0.9-1-1.7-0.9
			c-3.9,0.1-7.8,0.1-11.7,0c-1.3,0-1.7,0.5-2.3,1.5c-3.8,7.3-7.7,14.5-11.6,22c-1.6-2.7-3.2-5.3-4.7-7.9l-4.8-8.3
			c-1.3-2.1-2.5-4.1-3.7-6.3c-0.5-0.9-1-1-1.9-0.9C1005.3,483.1,1001.9,483.1,998.1,483.1L998.1,483.1z"/>
	</g>
</g>
<g id="Layer_2">
	<path class="st0" d="M759.3,492.4c0,0,1.5-0.8,1.7-3.3c0,0,0-1.3-0.2-2.9c0,0-0.2-1-0.5-1.4c0,0-1.4-0.2-3.1,0.3
		c0,0-4.3,1-10.8,4.6c0,0-2.8,1.7-3.3,2c0,0-0.8,0.5,0.2,1c0,0,0.9,0.2,2.1,0.1h0.4c0,0-1.8,1.3-2.4,1.6c0,0-2.4,1.5-3.3,3
		c0,0-1.2,1.5-1,4.3c0,0,0.2,3.6,2.1,7.5c0,0,0.5,1,1.2,1.8c0,0,0.3,0.5,1.4,0.4c0,0,5.7,0.3,8.9-0.3c0,0,4.8-0.5,5.1-2.8
		c0,0,0.1-1.3,0-1.8c0,0,0-0.2,0.3-0.2c0,0,2.6-0.8,3.1-2.4c0,0,0.2-0.5,0.3-1.8c0,0,0.2-0.8-0.2-1.2c0,0-0.2-0.3-0.7-0.2
		c0,0-2.4,0.5-4.1,0.8c0,0-5.7,1.1-10.8,0.6c0,0-2.4,0.2-1.4-1.4c0,0,0.9-1.3,3.3-2.8c0,0,3.5-2.2,6.3-3.3
		C753.5,494.4,757.9,492.5,759.3,492.4L759.3,492.4z M776.9,512l-0.5-2.9c-0.5-2.7-0.4-4.9-0.4-4.9c0.1-1.4,0.5-4.2,0.5-4.2
		c0.1-0.9-0.1-1.3-0.1-1.3c-1.4-2.2-3.3-4-3.3-4c-0.5-0.6-1.1-0.2-1.1-0.2l-0.3,0.2c-0.6,0.5-1-0.1-1-0.1c-0.8-0.6-1.3-0.1-1.3-0.1
		c-0.6,0.5-2.7,2.3-2.7,2.3c-0.3,0.5,0,0.8,0,0.9c0,0.2-0.2,0.4-0.2,0.4c-0.5,0.6-2.4,4-2.4,4c-0.9,1.3-1.5,3.4-1.5,3.4
		c-0.5,1.3-0.5,4.3-0.5,4.3c0.1,1,0.8,1.7,0.8,1.7c0.6,0.9,1.4,0.5,1.4,0.5c0.7-0.1,2.9-1.9,2.9-1.9c0.6-0.5,3.3-2.5,3.3-2.5
		l0.2,0.1c0.5,1,2.5,4.1,2.5,4.1c0.4,0.5,0.6,0.5,0.6,0.5c0.3,0.1,0.6,0.2,0.6,0.2l1.4,0.3C777.2,513.2,776.9,512,776.9,512
		L776.9,512z M769.6,502.4c0,0-2.4,1.9-3.3,2.7c0,0-0.6,1-0.5-0.2c0,0,0-0.9,1-2.4c0,0,0.6-1.2,1.1-1.6c0,0,0.5-0.1,1.2,0.5
		C769.1,501.4,769.8,501.9,769.6,502.4z M787.5,485.1c0,0,0.3-0.5,1-0.5h0.9c0,0,0.5-0.1,0.6,0.8l0.2,2.6c0,0,0.2,0.7-0.5,2
		c0,0-0.4,0.8-0.6,1.7l-2.4,7.3c0,0-0.2,0.3,0.2,0.3c0,0,1.3,0.3,1.3,1.3c0,0,0,0.2,0.5,0c0,0,1.3-0.5,1.1,1.1c0,0,0,1.3-1,3.3
		c0,0,0.5,6.3,0.6,8.7c0,0,0.1,1.8,0.1,2.8c0,0,0.2,1-1.1,1.7c0,0-2.2,1.3-3.7,1.3c0,0-0.5,0.2-1.1-0.4c0,0-1.7-2-2.7-4.6
		c0,0-0.9-2.2-1.2-3.1c0,0-0.7-2.1-0.7-4.2c0,0,0.1-3,0.7-5.2c0,0,1.3-4.5,3.3-8.6c0,0,2.5-4.9,3.3-6.4
		C786.3,487,787.5,485.1,787.5,485.1L787.5,485.1z"/>
	<path class="st0" d="M785.6,512.2c0,1,0.4,1.6,0.4,1.6c0.4,0.3,0.9-1.3,0.9-1.3l0.2-5.2c0-0.5-0.5-0.5-0.5-0.5h-0.5
		c-0.5,0-0.5,0.5-0.5,0.5C785.4,509.3,785.6,512.2,785.6,512.2L785.6,512.2z M803.1,505.8c0,0-1.6,0.5-3-0.1c0,0-1.1-0.5-1.4-1
		c0,0.2-0.2,0-0.1-0.2c0,0,4.4-3.7,5.2-5.2c0,0,1.1-1.8,0.9-3.1c0,0-0.6-1.2-3-1.4c0,0-1.7-0.3-3-0.1c0,0-0.5,0.2-1.1,0.5
		c0,0-2.5,1.7-4.8,5.5c0,0-1.4,2.1-1.4,5.1c0,0-0.2,1.7,1,3.3c0,0,1.4,2.2,4.1,2.6c0,0,2.8,0.5,4.7-0.3c0,0,1-0.3,1.2-1.4
		c0,0,0.1-0.5,0.3-0.8c0,0,0.2-0.3,0.5-0.4c0,0,1.1-0.5,1.1-1.3v-1.3C804.2,506.3,804.2,505.5,803.1,505.8L803.1,505.8z
		 M797.6,501.8c0,0,0.1-1,0.9-2.2c0,0,0.5-1.1,1.3-1.4c0,0,1.2-0.2,1.5,0.5c0,0-0.5,0.6-1.8,1.9C799.3,500.6,797.6,502,797.6,501.8
		L797.6,501.8z M840.1,506.8c0-0.9-1-1-1-1c-0.8-0.1-2.5-0.6-2.5-0.6c-3.4-1.1-6.7-3.6-6.7-3.6c-1.9-1.3-3.3-3-3.3-3
		c1.8-0.1,6.4-0.5,6.4-0.5c2.2-0.1,4.2-0.6,4.2-0.6c3-0.7,2.7-2.4,2.7-2.4c-0.1-1.3-0.5-3.3-0.5-3.3c-0.3-0.7-0.5-2.2-0.5-2.2
		c-0.3-1.5-2.5-2.5-2.5-2.5c-2.5-1.3-6.4-2-6.4-2c-2.1-0.5-4.9-0.5-4.9-0.5c-0.5,0-1.4,0.3-1.4,0.3l-2.4,0.7
		c-1.1,0.3-2.3,0.5-2.3,0.5c-1.3,0-1.3,1-1.3,1c0,0.7-0.2,1.7-0.2,1.7c-0.1,1,0.8,1,1.1,0.7l0.8,0.1c0.7,0.2,0.5,0.7,0.5,0.7
		l-0.3,2.4c-0.5,2.8-0.8,5.4-1,8.4v0.1c-0.3,3,0.3,7.5,0.3,7.5c0.3,0.9,0.8,1.4,0.8,1.4c0.5,0.4,1.8,0.9,1.8,0.9
		c1.6,0.9,1.8-0.7,1.8-0.7l0.3-3c0-0.8,0.2-1,0.2-1c1.6,1.1,5.3,3,5.3,3c2.9,1.4,5.2,1.8,5.2,1.8c0.9,0,1-0.2,1-0.2
		c0.9-0.8,2.4-2.1,2.4-2.1c0.6-0.5,1.5-0.6,1.5-0.6C840.5,507.8,840.1,506.8,840.1,506.8L840.1,506.8z M825.9,491.8
		c0.4-0.2,1.8,0.1,2,0.2c2.7,0.3,5.9,1.3,5.9,1.3c0.7,0.3,0.7,0.5,0.7,0.5c-0.1,0.6-2.5,1.1-2.5,1.1c-2.8,0.8-6.8,1.4-6.8,1.4
		C825.4,494.5,825.9,491.8,825.9,491.8L825.9,491.8z M844.1,493.3l2.9-3.1c0,0,0.4-0.4,0.8-0.5l2.8-0.8c0,0,0.6-0.3,1,0.5l0.6,1.4
		c0,0,0.5,0.6-0.3,1.4l-4,3.3c0,0-0.6,0.6-1.7,0l-1.8-1.3C844.4,494.2,843.7,493.8,844.1,493.3z M848.3,497.4c0,0,1-0.5,1.7-0.5
		c0,0,0.2-0.1,0.7,0.7c0,0,0.6,0.7,0.5,1.7c0,0-0.6,3.5-0.9,6c0,0-0.8,5-0.9,5.4c0,0-0.3,1.6-2.2,1c0,0-1.3-0.4-2.3-1
		c0,0-0.6-0.5-0.9-1.2c0,0-0.5-1.7-0.5-2.1c0,0-0.1-0.5-0.7-0.5h-0.6c0,0-0.5,0.1-0.5-1c0,0-0.2-1.4,0-2.1c0,0,0.2-1.1,1.1-2.2
		C842.8,501.6,844.4,499.5,848.3,497.4z M865.3,497.6c-2.9-2.7-4.8-2.9-4.8-2.9c-2-0.6-3.2,0.4-3.2,0.4l-3.1,3.2
		c-0.6,0.5-0.1,1.2,0,1.3c0.4,0.7,0.2,1.7,0.2,1.7c-0.4,1.5-0.5,4.6-0.5,4.6c-0.2,1.7,0.2,4.1,0.2,4.1c0,1.1,1,1.6,1,1.6
		c1.4,0.8,3.7-0.3,3.7-0.3c2.4-1.4,3.7-3.3,3.7-3.3c2.9-4,3.4-7,3.4-7C866.4,498.6,865.3,497.6,865.3,497.6L865.3,497.6z
		 M859.9,503.5c0,0-1.7,1.7-2.3,1.1c0,0-0.3-0.7-0.2-2.5c0,0,0-0.6,0.1-0.5c0,0,2.1,0.8,2.6,1.5C860.2,503,860.1,503.3,859.9,503.5
		L859.9,503.5z"/>
</g>
<path class="st0" d="M550.7,491.7v1.9c1.1-0.3,2.3-0.5,3.4-0.8v-1.9c-0.4,0.1-0.7,0.2-1.1,0.2v-7.7c0.6-0.1,1.2-0.3,1.8-0.4l1.3,9.2
	v0.2c1-0.2,2-0.3,3-0.4v-1.9c-0.5,0.1-0.9,0.1-1.4,0.2l-1-7.6l1.9-0.3v-6c-2.6,0.3-5.3,0.7-7.8,1.4v1.9c0.2,0,0.3-0.1,0.5-0.1v12.1
	C551,491.7,550.8,491.7,550.7,491.7L550.7,491.7z M556.7,478.5v2.4c-1.3,0.2-2.4,0.4-3.7,0.6v-2.4
	C554.2,479,555.5,478.7,556.7,478.5z"/>
<path class="st0" d="M578.9,474.3c-4.2-1.2-8.6-1.8-13.1-1.9v1.9h0.7V490h-4v-15.8h0.7v-1.9c-4.4,0.1-8.8,0.7-13.1,1.9v1.9
	c3.4-0.9,6.9-1.5,10.5-1.8V492c1.3-0.1,2.6-0.2,3.9-0.2c1.3,0,2.6,0.1,3.9,0.2v-17.6c3.6,0.3,7.1,0.9,10.5,1.8L578.9,474.3
	L578.9,474.3z"/>
<path class="st0" d="M578.2,481.2v-3.4c-2.6-0.6-5.2-1.1-7.8-1.4v3.4c0.6,0.1,1.3,0.2,1.9,0.2v-1.5c0.4,0.1,0.8,0.1,1.2,0.2v12.1
	c-0.4-0.1-0.7-0.1-1.1-0.2v1.9c1.3,0.2,2.5,0.5,3.8,0.7v-1.9c-0.3-0.1-0.6-0.1-0.9-0.2V479c0.4,0.1,0.8,0.2,1.2,0.3v1.5
	C577,480.9,577.6,481,578.2,481.2L578.2,481.2z M580.4,476.7c0.4,0.1,0.7,0.3,1.1,0.4v4.1c-0.2,0-0.3-0.1-0.5-0.1v2
	c0.2,0,0.3,0.1,0.5,0.2v9.6c-0.4-0.1-0.7-0.3-1.1-0.4v2c2.7,0.8,5.2,1.8,7.7,3.1l0.1-3.2c-0.6-0.3-1.3-0.5-1.8-0.8v1.2
	c-1-0.5-2-0.8-3.1-1.2V484l2.2,0.8v-2l-2.2-0.8v-4.1c1.2,0.5,2.3,0.9,3.4,1.4v1.6c0.6,0.3,1.3,0.5,1.8,0.8l0.1-3.6
	c-2.7-1.3-5.4-2.3-8.2-3.2V476.7L580.4,476.7z M558.4,468.9c-6.7,0.7-13.2,2.7-19.3,5.7l0.1,2.1c5.9-3.2,12.5-5.1,19.2-5.9V468.9
	L558.4,468.9z M570.6,468.9v1.9c6.7,0.7,13.1,2.7,19,5.8l0.1-2.1C583.7,471.5,577.2,469.6,570.6,468.9L570.6,468.9z M548.7,499.3
	v-3.1c-2.8,0.8-5.5,1.8-8.1,3.1v0.1l0.2,5.9h0.1c2.1,0.2,4.1,0.5,6,0.7v10.3c-1.4-0.4-2.6-0.6-4.1-0.8l-0.1-5.6
	c0.5-0.2,1-0.5,1.4-0.6v-2c-1.1,0.5-2.3,0.9-3.3,1.4l0.2,8.4c2.7,0.4,5.2,1,7.7,1.6v-14.3c-2.1-0.4-4.1-0.6-6.1-0.8l-0.1-3.1
	c1.4-0.6,2.9-1.2,4.4-1.7v1.1C547.5,499.7,548.1,499.5,548.7,499.3L548.7,499.3z M564.5,531.9c-3.7-3.2-8.1-5.8-13.2-7.7
	c-3.4-1.3-7.1-2.2-11-2.7l0.1,1.9c3.7,0.5,7.1,1.4,10.3,2.6c5.2,2,9.7,4.7,13.2,7.8l0.6,0.5l0.6-0.5c3.6-3.2,8.1-5.9,13.2-7.8
	c3.2-1.2,6.5-2.1,10.1-2.5l0.1-1.9c-3.8,0.5-7.4,1.4-10.8,2.7C572.6,526.1,568.1,528.9,564.5,531.9L564.5,531.9z"/>
<path class="st0" d="M558.5,526.1V525c-0.5-0.6-1.2-1.7-1.7-3.3c0.6,0.3,1.2,0.5,1.7,0.8V498c-3.1,0.4-6,0.9-9,1.7v1.9
	c0.3-0.1,0.5-0.2,0.8-0.2v17.7c1.6,0.5,3.2,1.1,4.6,1.7c0.2,0.6,0.4,1.2,0.5,1.7c-4.6-2.1-9.8-3.6-15.4-4.4l0.1,1.9
	c3.5,0.5,6.8,1.3,9.9,2.3C553.1,523.4,555.9,524.7,558.5,526.1z M552.2,517.8v-16.9c1.4-0.4,3-0.6,4.4-0.8v19.5l-0.5-0.3
	c-0.2-0.8-0.3-1.8-0.4-2.8c-0.5-0.2-1-0.4-1.5-0.5c0,1,0.1,1.9,0.3,2.7C553.8,518.3,553,518,552.2,517.8L552.2,517.8z M560.6,525.2
	v2.2c1.2,0.7,2.3,1.5,3.2,2.3l0.5,0.5l0.5-0.5c1.1-0.8,2.2-1.6,3.3-2.3v-2.2c-1.4,0.8-2.7,1.7-3.9,2.6
	C563.2,527,562,526.1,560.6,525.2L560.6,525.2z"/>
<path class="st0" d="M578.9,495.9c-4.2-1.2-8.6-1.8-13.1-1.9v1.9h0.7v26.7c-0.7,0.5-1.4,0.8-2,1.3c-0.6-0.5-1.4-0.8-2-1.3v-26.7h0.7
	V494c-4.4,0.1-8.8,0.7-13.1,1.9v1.9c3.4-0.9,6.9-1.5,10.5-1.8v27.7h0.1c1.2,0.6,2.3,1.4,3.2,2.1l0.5,0.4l0.5-0.4
	c1.1-0.7,2.2-1.4,3.3-2.1V496c3.6,0.3,7.1,0.9,10.5,1.8L578.9,495.9L578.9,495.9z"/>
<path class="st0" d="M572.3,505.8c1.3,0.2,2.5,0.5,3.8,0.7l1.4,11.1c-0.5,0.2-0.9,0.3-1.4,0.5v2c1.1-0.5,2.3-0.8,3.3-1.2l-2.3-17.7
	c0.4,0.1,0.6,0.2,1,0.3v-1.9c-2.5-0.6-5.1-1.1-7.7-1.4v5.7H570v1.9h0.4v20.6c5.1-3,11.3-5,18-6l0.1-1.9c-5.9,0.8-11.4,2.5-16.2,4.9
	L572.3,505.8L572.3,505.8z M572.3,500l3,0.5l0.5,3.9c-1.2-0.3-2.3-0.5-3.5-0.6V500L572.3,500z"/>
<path class="st0" d="M580.4,516.6v1.9c2.3-0.6,4.8-1.2,7.3-1.6l0.5-17.7c-2.5-1.2-5-2.2-7.7-2.9v2l0.8,0.3v17.9
	C581,516.4,580.7,516.5,580.4,516.6z M583.1,499.1c1.1,0.4,2.1,0.8,3.2,1.3l-0.4,15c-0.9,0.2-1.9,0.4-2.8,0.5V499.1L583.1,499.1z
	 M569.1,469.9h-0.5v0.2c-0.4,0-0.8-0.1-1.3-0.1v-1h0.8v-0.5h-0.8v-0.7c0.5,0,0.8,0,1.3,0.1v0.3h0.5v-0.8c-0.8-0.1-1.5-0.1-2.3-0.2
	v2.6h-0.4v0.5c0.9,0,1.8,0.1,2.7,0.2V469.9z M559.7,468.4c0.2,0,0.4,0,0.5-0.1v-0.5c0.2,0,0.5,0,0.6-0.1v2.1h-0.2v0.5
	c0.4,0,0.6,0,1-0.1v-0.5h-0.3v-2.1c0.8,0,1.6-0.1,2.4-0.1V467c-1.4,0-2.8,0.1-4.2,0.2L559.7,468.4L559.7,468.4z"/>
<path class="st0" d="M564.6,468.9h-1v-0.5h-0.5v1.5h-0.3v0.5h1.2v-0.5h-0.4v-0.5h1.7v0.5h-0.4v0.5h0.9v-2.6h0.4v-0.5h-1.3v0.5h0.4
	v1.1H564.6L564.6,468.9z M549.1,479.1c-0.2,0-0.4,0.1-0.5,0.1v-4.6c-3,0.9-5.9,2-8.6,3.3l0.1,2.1c0.5-0.2,0.9-0.5,1.4-0.6V495
	c-0.4,0.2-0.6,0.3-1,0.5l0.1,2.1c2.8-1.4,5.7-2.5,8.6-3.3L549.1,479.1L549.1,479.1z M543.3,478.6l3.5-1.4v2.7
	c-1.2,0.4-2.3,0.8-3.5,1.3V478.6z M547.3,492.7c-1.4,0.5-2.7,0.9-4,1.4v-11c1.3-0.5,2.6-1.1,4-1.5V492.7L547.3,492.7z"/>
<g>
	<polygon class="st0" points="81.5,471.4 98.4,471.4 98.4,511.9 	"/>
	<polygon class="st0" points="69.6,471.4 52.6,471.4 52.6,511.9 	"/>
	<polygon class="st0" points="75.5,486.4 86.3,511.9 79.2,511.9 76,503.8 68.1,503.8 	"/>
	<g>
		<path class="st0" d="M55.8,530.6l-0.7,3.5c0,0.1-0.1,0.2-0.2,0.2h-2.1c-0.1,0-0.2,0-0.2-0.2l3-12.7c0.1-0.4,0.1-0.6,0.1-1.2
			c0-0.1,0-0.1,0.1-0.1h3.1c0.1,0,0.2,0,0.2,0.2l3.5,14c0,0.1,0,0.2-0.1,0.2h-2.4c-0.1,0-0.2-0.1-0.2-0.2l-0.8-3.5h-3.3V530.6z
			 M58.5,528.2c-0.3-1.6-0.9-4.1-1.1-5.7l0,0c-0.2,1.6-0.7,3.7-1,5.7H58.5z"/>
		<path class="st0" d="M62.9,528.8c0-3.3,1.9-5.8,5-5.8h0.4v-3.8c0-0.1,0-0.1,0.1-0.1h2.4c0.1,0,0.1,0,0.1,0.1V532
			c0,0.3,0,0.8,0.1,1.5c0,0.1,0,0.1-0.1,0.2c-0.9,0.5-2.1,0.8-3.2,0.8C64.8,534.4,62.9,532.6,62.9,528.8z M68.2,525.4
			c-0.1,0-0.2-0.1-0.5-0.1c-1.2,0-2.2,1.1-2.2,3.4c0,2.4,0.9,3.3,2.2,3.3c0.2,0,0.4,0,0.5-0.1V525.4z"/>
		<path class="st0" d="M80.4,528.7c0,3.5-1.5,5.8-4.1,5.8c-2.9,0-4.1-2.5-4.1-5.8s1.5-5.7,4.1-5.7C78.9,523,80.4,525.1,80.4,528.7z
			 M74.9,528.7c0,2.1,0.4,3.4,1.4,3.4s1.4-1.2,1.4-3.4c0-2.1-0.4-3.4-1.4-3.4C75.4,525.3,74.9,526.4,74.9,528.7z"/>
		<path class="st0" d="M84.3,519.1c0.1,0,0.1,0,0.1,0.1v3.9c0.3-0.1,0.7-0.1,1.2-0.1c2.3,0,4.1,1.8,4.1,5.2c0,4-2.3,6.2-5.2,6.2
			c-0.8,0-1.7-0.1-2.6-0.4c-0.1,0-0.1-0.1-0.1-0.2v-14.7c0-0.1,0-0.1,0.1-0.1L84.3,519.1L84.3,519.1z M85.2,525.4
			c-0.2,0-0.6,0-0.8,0.1v6.6c0.2,0,0.3,0,0.5,0c1,0,2.2-1,2.2-3.8C87.1,526.1,86.2,525.4,85.2,525.4z"/>
		<path class="st0" d="M93.3,529.3c0,1.7,0.6,2.8,2.5,2.8c0.6,0,1.1-0.1,1.7-0.3c0.1,0,0.2,0,0.2,0.1v1.9c0,0.2,0,0.2-0.2,0.3
			c-0.6,0.3-1.5,0.4-2.2,0.4c-3.3,0-4.5-2.4-4.5-5.6c0-3.3,1.5-5.9,4.1-5.9c2.7,0,3.5,2.4,3.5,4.4c0,0.7-0.1,1.4-0.1,1.7
			c0,0.1-0.1,0.2-0.2,0.2c-0.2,0-0.9,0.1-2.1,0.1h-2.7V529.3z M95.2,527.2c0.4,0,0.6,0,0.7,0c0-0.1,0-0.2,0-0.2
			c0-0.8-0.3-1.7-1.2-1.7c-0.9,0-1.2,0.9-1.4,2L95.2,527.2L95.2,527.2z"/>
	</g>
</g>
</svg>
