<?xml version="1.0" encoding="utf-8"?>
<!-- Generator: Adobe Illustrator 19.0.0, SVG Export Plug-In . SVG Version: 6.00 Build 0)  -->
<!DOCTYPE svg PUBLIC "-//W3C//DTD SVG 1.1//EN" "http://www.w3.org/Graphics/SVG/1.1/DTD/svg11.dtd">
<svg version="1.1" id="Layer_1" xmlns="http://www.w3.org/2000/svg" xmlns:xlink="http://www.w3.org/1999/xlink" x="0px" y="0px"
	 viewBox="0 0 38 38" style="enable-background:new 0 0 38 38;" xml:space="preserve">
<style type="text/css">
	.st0{clip-path:url(#XMLID_8_);fill:#929292;}
</style>
<g id="Database_x5F_Add_3_">
	<defs>
		<rect id="XMLID_1_" x="4" y="0.1" width="32" height="37.8"/>
	</defs>
	<clipPath id="XMLID_8_">
		<use xlink:href="#XMLID_1_"  style="overflow:visible;"/>
	</clipPath>
	<polygon id="XMLID_6_" class="st0" points="31.6,8.8 27.3,8.8 27.3,4.5 25.8,4.5 25.8,8.8 21.5,8.8 21.5,10.3 25.8,10.3 25.8,14.6 
		27.3,14.6 27.3,10.3 31.6,10.3 	"/>
	<path class="st0" d="M26.5,0.1c-5.2,0-9.5,4.2-9.5,9.5s4.2,9.5,9.5,9.5S36,14.8,36,9.5S31.8,0.1,26.5,0.1z M26.5,17.8
		c-4.6,0-8.3-3.7-8.3-8.3s3.7-8.3,8.3-8.3s8.3,3.7,8.3,8.3S31.1,17.8,26.5,17.8z"/>
	<path class="st0" d="M30.2,19.8c-0.5,0.2-1,0.3-1.5,0.4v4.6c0,0.8-0.7,1.5-1.5,1.5H6.9c-0.8,0-1.5-0.7-1.5-1.5V19
		c0-0.8,0.7-1.5,1.5-1.5h12.2c-0.5-0.4-0.9-0.9-1.3-1.5H6.9c-0.8,0-1.5-0.7-1.5-1.5V8.8c0-0.8,0.7-1.5,1.5-1.5h8.9
		c0.1-0.5,0.2-1,0.4-1.5H6.9C5.3,5.9,4,7.2,4,8.8v5.8c0,0.9,0.4,1.6,1,2.2c-0.6,0.5-1,1.3-1,2.2v5.8c0,0.9,0.4,1.6,1,2.2
		c-0.6,0.5-1,1.3-1,2.2V35c0,1.6,1.3,2.9,2.9,2.9h20.4c1.6,0,2.9-1.3,2.9-2.9v-5.8c0-0.9-0.4-1.6-1-2.2c0.6-0.5,1-1.3,1-2.2V19.8z
		 M28.7,35c0,0.8-0.7,1.5-1.5,1.5H6.9c-0.8,0-1.5-0.7-1.5-1.5v-5.8c0-0.8,0.7-1.5,1.5-1.5h20.4c0.8,0,1.5,0.7,1.5,1.5V35z"/>
</g>
</svg>
