<?xml version="1.0" encoding="utf-8"?>
<!-- Generator: Adobe Illustrator 19.0.0, SVG Export Plug-In . SVG Version: 6.00 Build 0)  -->
<!DOCTYPE svg PUBLIC "-//W3C//DTD SVG 1.1//EN" "http://www.w3.org/Graphics/SVG/1.1/DTD/svg11.dtd">
<svg version="1.1" id="Layer_1" xmlns="http://www.w3.org/2000/svg" xmlns:xlink="http://www.w3.org/1999/xlink" x="0px" y="0px"
	 viewBox="0 0 577 419.8" style="enable-background:new 0 0 577 419.8;" xml:space="preserve">
<style type="text/css">
	.st0{fill:#575756;}
</style>
<g>
	<path d="M1.8,3.8c0-0.6,0.5-1.1,1.1-1.1C3.5,2.8,4,3.2,4,3.8c0,0.6-0.5,1.1-1.1,1.1C2.3,4.9,1.8,4.4,1.8,3.8z M2.2,20V7h1.4v13H2.2
		z"/>
	<path d="M12.6,20V3.4H6.7V2h13.3v1.4h-5.9V20H12.6z"/>
	<path d="M29.5,20v-1.9c-1.1,1.2-2.8,2.2-4.7,2.2c-2.6,0-4.1-1.2-4.1-4.2V7h1.4v8.9c0,2.5,1.3,3.2,3.2,3.2c1.7,0,3.4-1,4.2-2.2V7
		h1.4v13H29.5z"/>
	<path d="M44.1,20v-8.8c0-2.5-1.3-3.3-3.2-3.3c-1.7,0-3.4,1.1-4.2,2.2V20h-1.4V7h1.4v2c0.9-1.1,2.8-2.3,4.7-2.3
		c2.6,0,4.1,1.3,4.1,4.2V20H44.1z"/>
	<path d="M49.1,13.5c0-3.8,2.6-6.8,6.3-6.8c4,0,6.2,3.1,6.2,6.9v0.4H50.6c0.1,2.8,2,5.2,5.1,5.2c1.6,0,3.2-0.6,4.3-1.8l0.7,0.9
		c-1.3,1.4-2.9,2.1-5.1,2.1C51.8,20.3,49.1,17.5,49.1,13.5z M55.3,7.9c-3.1,0-4.6,2.7-4.7,5h9.5C60.1,10.6,58.6,7.9,55.3,7.9z"/>
	<path d="M64,18.2l0.8-1c0.8,1.1,2.4,1.9,4.2,1.9c2.2,0,3.5-1.1,3.5-2.6c0-3.6-8.2-1.5-8.2-6.2c0-2,1.7-3.6,4.6-3.6
		c2.2,0,3.7,0.9,4.7,1.9l-0.8,1c-0.8-1-2.2-1.7-3.9-1.7c-2,0-3.2,1-3.2,2.4c0,3.3,8.2,1.3,8.2,6.3c0,2.1-1.6,3.8-4.9,3.8
		C66.9,20.3,65.3,19.7,64,18.2z"/>
</g>
<g>
	<path d="M249.6,20v-7.7L242.4,2h1.9l6.1,8.9l6.1-8.9h1.9l-7.2,10.3V20H249.6z"/>
	<path d="M256.7,13.5c0-3.8,2.4-6.8,6.2-6.8c3.9,0,6.3,3,6.3,6.8s-2.4,6.9-6.3,6.9C259.1,20.3,256.7,17.3,256.7,13.5z M267.7,13.5
		c0-2.9-1.7-5.6-4.8-5.6c-3,0-4.8,2.7-4.8,5.6c0,2.9,1.7,5.6,4.8,5.6C266,19.1,267.7,16.4,267.7,13.5z"/>
	<path d="M281.6,20v-1.9c-1.1,1.2-2.8,2.2-4.7,2.2c-2.6,0-4.1-1.2-4.1-4.2V7h1.4v8.9c0,2.5,1.3,3.2,3.2,3.2c1.7,0,3.4-1,4.2-2.2V7
		h1.4v13H281.6z"/>
	<path d="M287.7,17.5V8.2h-2.2V7h2.2V3.4h1.4V7h2.6v1.2h-2.6v9.1c0,1.1,0.4,1.8,1.3,1.8c0.6,0,1.2-0.3,1.5-0.6l0.5,1.1
		c-0.5,0.5-1.1,0.8-2.2,0.8C288.5,20.3,287.7,19.3,287.7,17.5z"/>
	<path d="M303.6,20v-1.9c-1.1,1.2-2.8,2.2-4.7,2.2c-2.6,0-4.1-1.2-4.1-4.2V7h1.4v8.9c0,2.5,1.3,3.2,3.2,3.2c1.7,0,3.4-1,4.2-2.2V7
		h1.4v13H303.6z"/>
	<path d="M309.4,20V2h1.4v7.1c1.1-1.5,2.7-2.4,4.5-2.4c3.5,0,5.8,2.7,5.8,6.9c0,4.2-2.4,6.8-5.8,6.8c-1.9,0-3.6-1.1-4.5-2.4V20
		H309.4z M315.1,19.1c2.9,0,4.6-2.4,4.6-5.6s-1.6-5.6-4.6-5.6c-1.8,0-3.5,1.1-4.3,2.4v6.5C311.5,18,313.3,19.1,315.1,19.1z"/>
	<path d="M324.1,13.5c0-3.8,2.6-6.8,6.3-6.8c4,0,6.2,3.1,6.2,6.9v0.4h-10.9c0.1,2.8,2,5.2,5.1,5.2c1.6,0,3.2-0.6,4.3-1.8l0.7,0.9
		c-1.3,1.4-2.9,2.1-5.1,2.1C326.8,20.3,324.1,17.5,324.1,13.5z M330.3,7.9c-3.1,0-4.6,2.7-4.7,5h9.5C335,10.6,333.6,7.9,330.3,7.9z"
		/>
</g>
<g>
	<path d="M514.2,20V2h7.4c3,0,5,1.8,5,4.6c0,2.3-1.5,3.8-3.2,4.1c1.9,0.3,3.5,2.3,3.5,4.4c0,3-1.9,4.9-5.2,4.9H514.2z M525,6.7
		c0-1.8-1.2-3.3-3.5-3.3h-5.7v6.7h5.7C523.8,10.1,525,8.6,525,6.7z M525.3,15c0-1.8-1.3-3.6-3.8-3.6h-5.8v7.1h5.8
		C523.9,18.6,525.3,17.2,525.3,15z"/>
	<path d="M530.8,20V2h1.4v18H530.8z"/>
	<path d="M535.8,13.5c0-3.8,2.4-6.8,6.2-6.8c3.9,0,6.3,3,6.3,6.8s-2.4,6.9-6.3,6.9C538.3,20.3,535.8,17.3,535.8,13.5z M546.9,13.5
		c0-2.9-1.7-5.6-4.8-5.6c-3,0-4.8,2.7-4.8,5.6c0,2.9,1.7,5.6,4.8,5.6C545.2,19.1,546.9,16.4,546.9,13.5z"/>
	<path d="M552,23.3l0.8-1.1c1.1,1.3,2.4,1.8,4.3,1.8c2.3,0,4.4-1.2,4.4-4.1v-2.1c-0.9,1.3-2.6,2.5-4.5,2.5c-3.5,0-5.8-2.6-5.8-6.8
		c0-4.1,2.3-6.8,5.8-6.8c1.9,0,3.5,0.9,4.5,2.4V7h1.4v12.9c0,4-2.7,5.4-5.9,5.4C555,25.3,553.6,24.9,552,23.3z M561.6,16.6v-6.3
		c-0.8-1.3-2.5-2.4-4.3-2.4c-2.9,0-4.6,2.4-4.6,5.6s1.7,5.5,4.6,5.5C559.1,19,560.8,17.9,561.6,16.6z"/>
	<path d="M566.2,18.2l0.8-1c0.8,1.1,2.4,1.9,4.2,1.9c2.2,0,3.5-1.1,3.5-2.6c0-3.6-8.2-1.5-8.2-6.2c0-2,1.7-3.6,4.6-3.6
		c2.2,0,3.7,0.9,4.7,1.9l-0.8,1c-0.8-1-2.2-1.7-3.9-1.7c-2,0-3.2,1-3.2,2.4c0,3.3,8.2,1.3,8.2,6.3c0,2.1-1.6,3.8-4.9,3.8
		C569.2,20.3,567.5,19.7,566.2,18.2z"/>
</g>
<g>
	<path d="M232.4,337v-10.5l-9.8-14.1h2.6l8.3,12.1l8.3-12.1h2.6l-9.8,14.1V337H232.4z"/>
	<path d="M242.1,328c0-5.2,3.3-9.4,8.5-9.4c5.3,0,8.6,4.1,8.6,9.4c0,5.2-3.3,9.4-8.6,9.4C245.4,337.4,242.1,333.3,242.1,328z
		 M257.2,328c0-4-2.3-7.6-6.5-7.6c-4.1,0-6.5,3.7-6.5,7.6c0,4,2.4,7.7,6.5,7.7C254.9,335.7,257.2,332,257.2,328z"/>
	<path d="M276.3,337v-2.6c-1.4,1.6-3.8,3.1-6.4,3.1c-3.6,0-5.6-1.7-5.6-5.7v-12.6h1.9v12.1c0,3.5,1.7,4.4,4.3,4.4
		c2.3,0,4.6-1.4,5.8-3v-13.6h1.9V337H276.3z"/>
	<path d="M284.2,337v-17.9h1.9v3.1c1.5-2,3.6-3.4,6-3.4v2.1c-0.3-0.1-0.6-0.1-1-0.1c-1.8,0-4.3,1.6-5.1,3.2v13H284.2z"/>
	<path d="M304.2,333.5l1.4-1.6c1.6,1.8,4.2,3.6,7.7,3.6c5,0,6.5-2.8,6.5-4.9c0-7.3-14.8-3.5-14.8-12.1c0-4,3.6-6.6,8.1-6.6
		c3.7,0,6.5,1.3,8.4,3.5l-1.4,1.6c-1.8-2.1-4.3-3.1-7.1-3.1c-3.3,0-5.8,1.9-5.8,4.6c0,6.3,14.8,2.8,14.8,12.1c0,3.2-2.1,7-8.8,7
		C309.2,337.4,306.1,335.8,304.2,333.5z"/>
	<path d="M326.5,314.8c0-0.8,0.7-1.4,1.5-1.4c0.8,0,1.5,0.6,1.5,1.4c0,0.8-0.7,1.5-1.5,1.5C327.2,316.3,326.5,315.6,326.5,314.8z
		 M327,337v-17.9h1.9V337H327z"/>
	<path d="M335.3,333.6v-12.7h-3v-1.7h3v-4.9h2v4.9h3.6v1.7h-3.6v12.4c0,1.4,0.6,2.4,1.9,2.4c0.9,0,1.6-0.4,2-0.9l0.7,1.5
		c-0.7,0.7-1.6,1.1-3,1.1C336.4,337.4,335.3,336,335.3,333.6z"/>
	<path d="M344.1,328c0-5.2,3.6-9.4,8.6-9.4c5.4,0,8.4,4.3,8.4,9.5v0.5h-14.9c0.2,3.9,2.8,7.1,7,7.1c2.3,0,4.3-0.9,5.8-2.5l1,1.3
		c-1.8,1.9-4,2.9-7,2.9C347.8,337.4,344.1,333.6,344.1,328z M352.6,320.3c-4.2,0-6.3,3.7-6.5,6.8h13
		C359.1,324.1,357.1,320.3,352.6,320.3z"/>
</g>
<path class="st0" d="M445.4,163.2c-3.8,7.4-4.9,15.4-4.9,23.5c0,1.8,2.1,2.9,3.7,2.4c7.9-3.2,15.7-7.3,21.9-13.5
	c1.8-1.8-1.2-4.5-3-3c-5.2,3.9-10.8,7.1-16.8,9.8c0.1-2,0.4-4.2,0.8-6.2c0.2,2.3,3.6,4.1,5.5,1.7c23.9-29.4,55.1-54.5,73.3-87.9
	c1.5-2.6-2.9-5.3-4.6-2.8c-21.5,31.6-49.5,57.2-73.6,86.8c-0.1,0.2-0.3,0.4-0.3,0.4c0.7-3,1.7-5.8,3.2-8.8
	C452.6,162.4,447.2,159.8,445.4,163.2z"/>
<path class="st0" d="M136.3,174.1c6.5,5.2,14.2,7.9,22.1,9.4c1.8,0.3,3.3-1.5,3.1-3.2c-1.6-8.4-4.1-16.9-8.9-24.1
	c-1.5-2.1-4.6,0.2-3.5,2.3c2.8,5.9,4.9,12,6.3,18.4c-1.9-0.5-4-1.2-5.9-2c2.3,0.2,4.7-2.7,2.8-5c-24.1-29.2-42.6-64.7-71.8-89.1
	c-2.3-2-5.8,1.8-3.7,4c26.8,27.3,46.4,59.8,70.7,89.2c0.1,0.2,0.3,0.4,0.3,0.4c-2.9-1.2-5.4-2.8-8-4.8
	C136.9,166.9,133.3,171.7,136.3,174.1z"/>
<path class="st0" d="M280.6,164.1c1.5,7.4,5.3,13.7,9.9,19.3c1.1,1.3,3.2,0.8,4-0.4c3.8-6.7,6.9-14.1,7.8-21.9
	c0.2-2.3-3.4-2.5-3.8-0.4c-1.5,5.7-3.6,11.1-6.3,16.4c-1.1-1.5-2.1-3.2-2.9-4.8c1.5,1.5,4.8,0.8,4.8-1.9c0.2-34.2,8-69.5,1.9-103.4
	c-0.4-2.7-5-2.1-4.8,0.6c2.7,34.5-2.5,68.3-2.7,102.7c0,0.2,0,0.4,0,0.4c-1.3-2.5-2.1-5-2.7-8C285.3,159.5,280,160.8,280.6,164.1z"
	/>
<g>
	<path class="st0" d="M307,226c-48.8-13.2-115.5,18.9-117.7,73.6c-2.8-3.1-6-6-9.1-8.8c-2.5-2.2-6,0-5.3,3.1
		c2.2,16,11.6,29.9,22,42.2c0.9,1.3,3.8,1.3,4.7,0c9.4-12,12.3-26.7,13.8-41.2c0.3-2.5-3.1-4.1-5-2.8c-4.1,2.8-9.4,5-13.8,8.2
		c4.4-24.5,15.7-42.8,38.1-56.3c21.4-12.9,47.2-15.4,71.7-13.5C308.9,230.7,309.2,226.6,307,226z M183,300.8
		c2.2,1.9,4.1,3.5,6.3,5.3c0.3,0.3,0.6,0.3,0.9,0.6c0.3,0.3,0.9,0.6,1.6,0.9c0.6,1.3,2.2,2.2,3.8,0.9c4.1-2.5,8.2-5,12.3-7.6
		c-1.6,9.4-3.8,19.2-9.1,27.1C192.1,320,186.1,310.9,183,300.8z"/>
	<path class="st0" d="M391.6,358.4c-16.7,5-33,11.3-50.3,14.8c-2.8,0.6-2.8,5.3,0,6c7.6,1.3,14.8,3.5,22,4.7
		c-10.4,8.2-19.5,15.4-32.4,20.5c-15.1,5.7-31.1,7.9-47.2,7.2c-34-0.9-63.9-18.9-73-52.5c-0.6-2.2-4.4-1.9-4.1,0.6
		c3.8,34.9,34.6,54.7,67.3,58.5c28,3.1,72.1-2.5,92.8-26.4c0.6,6.6,2.8,12.9,6.6,18.6c1.6,2.2,4.1,2.2,5.7,0
		c9.8-14.2,12-31.8,16.4-47.8C396.3,360,394.1,357.8,391.6,358.4z M373,385.8c0-0.6-0.3-1.3-0.6-1.9c1.6-3.1-2.2-5.3-4.7-3.5
		l-0.3,0.3c0,0,0,0-0.3,0c-4.4-1.3-8.8-2.8-13.2-4.1c11.3-2.8,22.7-6.9,34-10.4c-3.1,12.3-5.3,24.9-11.6,35.9
		C374.3,397.1,373.4,391.8,373,385.8z"/>
	<path class="st0" d="M357.3,251.8c4.1-4.4,7.2-9.4,12.6-12.6c2.5-1.3,2.2-5.3-0.9-6c-14.8-3.5-29.9-3.5-44.7-3.5
		c-3.1,0-4.1,3.5-2.2,5.7c9.8,11.6,17,24.9,23.9,38.4c1.6,2.8,6.3,1.6,6.3-1.6c-0.3-5,0.3-9.8,0.6-14.8
		c27.1,18.9,34.9,53.5,36.5,84.6c0,2.8,3.8,2.5,4.1,0C396.6,309.7,385.3,270.6,357.3,251.8z M351.3,248.6c-0.3,0.3-0.6,0.3-0.6,0.6
		c-0.9,0.3-1.6,1.3-1.9,1.9c-0.3,0.3-0.6,0.6-0.6,1.3c-0.3,2.8-0.9,6-1.3,8.8c-4.7-8.8-9.8-17.3-15.7-25.2c9.8,0,19.8,0.3,29.3,1.9
		C357.3,241.4,354.5,245.2,351.3,248.6z"/>
</g>
</svg>
