<?xml version="1.0" encoding="utf-8"?>
<!-- Generator: Adobe Illustrator 19.0.0, SVG Export Plug-In . SVG Version: 6.00 Build 0)  -->
<!DOCTYPE svg PUBLIC "-//W3C//DTD SVG 1.1//EN" "http://www.w3.org/Graphics/SVG/1.1/DTD/svg11.dtd">
<svg version="1.1" id="Layer_1" xmlns="http://www.w3.org/2000/svg" xmlns:xlink="http://www.w3.org/1999/xlink" x="0px" y="0px"
	 viewBox="512 -24.5 1061.2 86.5" style="enable-background:new 512 -24.5 1061.2 86.5;" xml:space="preserve">
<style type="text/css">
	.st0{fill:#646464;}
	.st1{opacity:0.34;fill:#646464;enable-background:new    ;}
</style>
<path class="st0" d="M1247.9,9.6c0,0,1.7-0.9,1.9-3.7c0,0,0-1.4-0.2-3.2c0,0-0.2-1.1-0.6-1.6c0,0-1.6-0.2-3.4,0.3
	c0,0-4.8,1.1-11.9,5.1c0,0-3.1,1.9-3.6,2.2c0,0-0.9,0.6,0.2,1.1c0,0,1,0.2,2.3,0.1h0.4c0,0-2,1.4-2.7,1.8c0,0-2.7,1.7-3.6,3.3
	c0,0-1.3,1.7-1.1,4.8c0,0,0.2,4,2.3,8.3c0,0,0.5,1.1,1.3,2c0,0,0.3,0.5,1.5,0.4c0,0,6.3,0.3,9.8-0.3c0,0,5.3-0.6,5.6-3.1
	c0,0,0.1-1.4,0-2c0,0,0-0.2,0.3-0.2c0,0,2.9-0.9,3.4-2.6c0,0,0.2-0.6,0.3-2c0,0,0.2-0.9-0.2-1.3c0,0-0.2-0.3-0.8-0.2
	c0,0-2.7,0.6-4.5,0.9c0,0-6.3,1.2-12,0.7c0,0-2.6,0.2-1.5-1.5c0,0,1-1.4,3.7-3.1c0,0,3.9-2.4,7-3.7
	C1241.5,11.8,1246.4,9.7,1247.9,9.6z M1256.3,14.5c0,0,2.3-1.9,3-2.5c0,0,0.5-0.6,1.4,0.1c0,0,0.4,0.6,1.1,0.1l0.3-0.2
	c0,0,0.6-0.5,1.2,0.2c0,0,2.1,2,3.7,4.4c0,0,0.2,0.4,0.1,1.4c0,0-0.5,3.1-0.6,4.7c0,0-0.2,2.4,0.4,5.4l0.5,3.2c0,0,0.3,1.3-1.2,0.9
	l-1.5-0.3c0,0-0.4-0.1-0.7-0.2c0,0-0.3,0-0.7-0.6c0,0-2.2-3.4-2.8-4.5l-0.2-0.1c0,0-2.9,2.3-3.6,2.8c0,0-2.4,2-3.2,2.1
	c0,0-0.8,0.4-1.5-0.6c0,0-0.8-0.8-0.9-1.9c0,0,0-3.4,0.6-4.8c0,0,0.7-2.4,1.7-3.8c0,0,2.2-3.7,2.7-4.4c0,0,0.2-0.2,0.2-0.4
	C1256.3,15.4,1256,15,1256.3,14.5L1256.3,14.5z M1256.2,20.9c-1.1,1.6-1.1,2.6-1.1,2.6c-0.1,1.3,0.6,0.2,0.6,0.2
	c0.9-0.9,3.6-3,3.6-3c0.2-0.6-0.6-1.1-0.6-1.1c-0.7-0.6-1.3-0.5-1.3-0.5C1256.9,19.6,1256.2,20.9,1256.2,20.9L1256.2,20.9z
	 M1279.1,1.6c0,0,0.3-0.6,1.1-0.6h1c0,0,0.6-0.1,0.7,0.9l0.2,2.9c0,0,0.2,0.8-0.5,2.2c0,0-0.4,0.9-0.7,1.9l-2.6,8.1
	c0,0-0.2,0.3,0.2,0.3c0,0,1.4,0.3,1.4,1.4c0,0,0,0.2,0.6,0c0,0,1.4-0.6,1.2,1.2c0,0,0,1.4-1.1,3.7c0,0,0.6,7,0.7,9.6
	c0,0,0.1,2,0.1,3.1c0,0,0.2,1.1-1.2,1.9c0,0-2.4,1.4-4.1,1.4c0,0-0.6,0.2-1.2-0.4c0,0-1.9-2.2-3-5.1c0,0-1-2.4-1.3-3.4
	c0,0-0.8-2.3-0.8-4.7c0,0,0.1-3.3,0.8-5.7c0,0,1.4-5,3.7-9.5c0,0,2.8-5.4,3.7-7.1C1277.8,3.7,1279.1,1.6,1279.1,1.6z M1277,31.5
	c0,1.1,0.4,1.8,0.4,1.8c0.4,0.3,1-1.4,1-1.4l0.2-5.8c0-0.6-0.6-0.6-0.6-0.6h-0.5c-0.6,0-0.5,0.6-0.5,0.6
	C1276.8,28.3,1277,31.5,1277,31.5L1277,31.5z M1290.3,20c0,0,0.1-1.1,1-2.4c0,0,0.6-1.2,1.4-1.5c0,0,1.3-0.2,1.7,0.5
	c0,0-0.6,0.7-2,2.1C1292.2,18.7,1290.3,20.2,1290.3,20L1290.3,20z M1291.3,23c0,0,4.9-4.1,5.8-5.8c0,0,1.2-2,1-3.4
	c0,0-0.7-1.3-3.3-1.6c0,0-1.9-0.3-3.3-0.1c0,0-0.5,0.2-1.2,0.5c0,0-2.8,1.9-5.3,6.1c0,0-1.5,2.3-1.6,5.6c0,0-0.2,1.9,1.1,3.7
	c0,0,1.5,2.4,4.5,2.9c0,0,3.1,0.6,5.2-0.3c0,0,1.1-0.3,1.3-1.5c0,0,0.1-0.6,0.3-0.9c0,0,0.2-0.3,0.6-0.4c0,0,1.2-0.5,1.2-1.4v-1.4
	c0,0,0-0.9-1.3-0.6c0,0-1.8,0.5-3.3-0.1c0,0-1.2-0.5-1.6-1.1C1291.4,23.4,1291.2,23.2,1291.3,23z M1312.3,5.5c0,0,0.2-1.1,0.2-1.9
	c0,0,0-1.1,1.4-1.1c0,0,1.3-0.2,2.5-0.5l2.6-0.8c0,0,0.9-0.3,1.5-0.3c0,0,3.1,0.1,5.4,0.6c0,0,4.3,0.8,7.1,2.2c0,0,2.5,1.1,2.8,2.8
	c0,0,0.3,1.6,0.6,2.4c0,0,0.5,2.3,0.6,3.7c0,0,0.3,1.9-3,2.7c0,0-2.2,0.6-4.6,0.7c0,0-5.1,0.4-7.1,0.5c0,0,1.6,1.9,3.7,3.3
	c0,0,3.6,2.8,7.4,4c0,0,1.9,0.6,2.8,0.7c0,0,1.1,0.1,1.1,1.1c0,0,0.4,1.1-1,1.4c0,0-1,0.1-1.7,0.7c0,0-1.6,1.4-2.6,2.3
	c0,0-0.1,0.2-1.1,0.2c0,0-2.5-0.5-5.7-2c0,0-4.1-2.1-5.9-3.3c0,0-0.2,0.2-0.2,1.1c0,0-0.2,2.2-0.3,3.3c0,0-0.2,1.8-2,0.8
	c0,0-1.4-0.6-2-1c0,0-0.6-0.5-0.9-1.5c0,0-0.6-5-0.3-8.3v-0.1c0.2-3.3,0.5-6.2,1.1-9.3l0.3-2.7c0,0,0.2-0.6-0.6-0.8l-0.9-0.1
	C1313.2,6.6,1312.2,6.6,1312.3,5.5L1312.3,5.5z M1321.6,9c0,0-0.6,3-0.8,4.9c0,0,4.4-0.6,7.5-1.5c0,0,2.7-0.5,2.8-1.2
	c0,0,0-0.3-0.8-0.6c0,0-3.5-1.1-6.5-1.4C1323.6,9.1,1322,8.8,1321.6,9z M1341.7,10.6l3.2-3.4c0,0,0.4-0.4,0.9-0.6l3.1-0.9
	c0,0,0.7-0.3,1.1,0.6l0.7,1.5c0,0,0.5,0.7-0.3,1.5l-4.4,3.7c0,0-0.7,0.7-1.9,0l-2-1.4C1342,11.6,1341.3,11.2,1341.7,10.6z
	 M1346.4,15.2c0,0,1.1-0.6,1.9-0.6c0,0,0.2-0.1,0.8,0.8c0,0,0.7,0.8,0.6,1.9c0,0-0.7,3.9-1,6.6c0,0-0.9,5.5-1,6c0,0-0.3,1.8-2.4,1.1
	c0,0-1.4-0.4-2.5-1.1c0,0-0.7-0.5-1-1.3c0,0-0.5-1.9-0.6-2.3c0,0-0.1-0.6-0.8-0.6h-0.7c0,0-0.6,0.1-0.6-1.1c0,0-0.2-1.5,0-2.3
	c0,0,0.2-1.2,1.2-2.4C1340.3,19.8,1342,17.5,1346.4,15.2L1346.4,15.2z M1353,16.1l3.4-3.5c0,0,1.3-1.1,3.5-0.4c0,0,2.1,0.2,5.3,3.2
	c0,0,1.2,1.1,0.7,3.7c0,0-0.6,3.3-3.8,7.7c0,0-1.4,2.2-4.1,3.7c0,0-2.6,1.2-4.1,0.3c0,0-1.1-0.6-1.1-1.8c0,0-0.4-2.6-0.2-4.5
	c0,0,0.2-3.4,0.6-5.1c0,0,0.2-1.1-0.2-1.9C1352.9,17.4,1352.3,16.6,1353,16.1z M1356.5,20.3c-0.1,2,0.2,2.8,0.2,2.8
	c0.6,0.7,2.5-1.2,2.5-1.2c0.2-0.2,0.3-0.5,0.3-0.5c-0.6-0.8-2.9-1.7-2.9-1.7C1356.5,19.6,1356.5,20.3,1356.5,20.3L1356.5,20.3z"/>
<polygon class="st0" points="1079,-14.9 1107,-14.9 1107,52 "/>
<polygon class="st0" points="1059.4,-14.9 1031.4,-14.9 1031.4,52 "/>
<polygon class="st0" points="1069.2,9.7 1087,52 1075.3,52 1070,38.5 1057,38.5 "/>
<g id="Layer_1_1_">
	<path class="st0" d="M741.1,31.2v-5.5h9.7c0.6-0.1,1-0.4,1.1-0.8c0-0.1,0-0.1,0-0.2v-0.4c0-0.6-0.3-0.9-0.9-1h-4.7
		c-0.8,0-1.6-0.2-2.3-0.6c-1.8-1-2.7-2.4-2.7-4v-4c0-0.4,0.1-0.8,0.2-1.3c0.6-2.4,2.3-3.6,5.1-3.6h10.9l0.1,5.5h-9.9
		c-0.1,0-0.2,0.1-0.4,0.2c-0.4,0.4-0.6,0.7-0.6,0.8v0.5c0,0.5,0.4,0.9,1.3,1h4.8c1.2,0,2.3,0.5,3.3,1.5c1,1,1.4,2.1,1.4,3.3v3.9
		c0,0.9-0.3,1.7-0.8,2.5c-0.5,0.8-1.1,1.4-1.8,1.8c-0.6,0.3-1.5,0.5-2.5,0.5C752.3,31.2,741.1,31.2,741.1,31.2z M761,31.2V14.9
		c0-0.3,0-0.6,0.1-1c0.4-2.7,2.1-4.1,5-4.1h7.6c2.9,0,4.6,1.4,5,4.1c0.1,0.4,0.1,0.7,0.1,1v16.3h-5.4V16.8c0-0.1,0-0.2,0-0.3
		c-0.1-0.8-0.7-1.2-1.8-1.2h-3.3c-1.1,0-1.6,0.4-1.8,1.2v14.8H761L761,31.2z M782.5,26.4V22c0-1.6,0.5-2.8,1.4-3.7
		c0.9-0.9,2.2-1.3,3.8-1.3h7.2v-1.1c0-0.5-0.4-0.7-1.2-0.9h-11.3V9.8h12.5c0.2,0,0.5,0,0.9,0.1c2.5,0.3,4,1.6,4.4,4
		c0.1,0.3,0.1,0.6,0.1,0.9v11.4c0,0.4,0,0.7-0.1,1c-0.2,1.2-0.8,2.2-1.7,2.9c-0.9,0.7-1.9,1.1-3.1,1.1H788c-3.2,0-5-1.3-5.4-3.9
		C782.6,27.2,782.6,26.8,782.5,26.4z M788.2,25.5c0.2,0.2,0.4,0.4,0.8,0.5c0.1,0,0.2,0,0.3,0h4.2c0.9,0,1.4-0.4,1.4-1.2v-1.5
		c0-0.5-0.2-0.9-0.7-1.1c-0.1-0.1-0.4-0.2-0.7-0.2h-4.8c-0.5,0.1-0.7,0.4-0.8,1.1v1.7C787.9,25,788,25.2,788.2,25.5z M804.1,39.3
		V15.5c0-0.3,0-0.6,0.1-1.1c0.3-2.6,1.6-4.1,4-4.5c0.3-0.1,0.5-0.1,0.7-0.1h7.8c0.3,0,0.7,0,1.1,0.1c2.7,0.5,4.1,2.3,4.1,5.4v11.1
		c0,1-0.3,1.9-1,2.7c-0.1,0.2-0.3,0.4-0.6,0.7c-1,1-2.2,1.5-3.5,1.5h-7.4v8h-1.4C807.3,39.3,805.9,39.3,804.1,39.3L804.1,39.3z
		 M809.6,24.5c0.1,0.7,0.6,1.1,1.3,1.3c0.1,0,0.2,0,0.3,0h4.1c0.4-0.1,0.6-0.2,0.9-0.5c0.2-0.4,0.3-0.6,0.3-0.8v-8.1
		c-0.1-0.6-0.4-0.9-1-1c-0.1,0-0.1,0-0.2,0h-4.2c-0.6,0-1.1,0.3-1.3,0.9c-0.1,0.2-0.2,0.5-0.2,0.7v7.3
		C809.6,24.3,809.6,24.4,809.6,24.5L809.6,24.5z M825.8,31.2V6.7c0-1.5,0.6-2.7,1.8-3.6c1.1-0.8,2.4-1.2,4-1.2h3.4V7h-2.2
		c-0.1,0-0.1,0-0.2,0c-1,0.2-1.5,0.7-1.5,1.6v1.1h3.8v5.5h-3.8v16L825.8,31.2L825.8,31.2z M837,26.4V22c0-1.6,0.5-2.8,1.4-3.7
		c0.9-0.9,2.2-1.3,3.8-1.3h7.2v-1.1c0-0.5-0.4-0.7-1.2-0.9H837V9.8h12.5c0.2,0,0.5,0,0.9,0.1c2.5,0.3,4,1.6,4.4,4
		c0.1,0.3,0.1,0.6,0.1,0.9v11.4c0,0.4,0,0.7-0.1,1c-0.2,1.2-0.8,2.2-1.7,2.9c-0.9,0.7-1.9,1.1-3.1,1.1h-7.5c-3.2,0-5-1.3-5.4-3.9
		C837.1,27.2,837.1,26.8,837,26.4z M842.7,25.4c0.2,0.2,0.4,0.4,0.8,0.5c0.1,0,0.2,0,0.3,0h4.3c0.9,0,1.4-0.4,1.4-1.2v-1.5
		c0-0.5-0.2-0.9-0.7-1.1c-0.1-0.1-0.4-0.2-0.7-0.2h-4.8c-0.5,0.1-0.7,0.4-0.8,1.1v1.7C842.5,25,842.6,25.2,842.7,25.4z M858.4,31.2
		v-5.5h9.7c0.6-0.1,1-0.4,1.1-0.8c0-0.1,0-0.1,0-0.2v-0.4c0-0.6-0.3-0.9-0.9-1h-4.7c-0.8,0-1.6-0.2-2.3-0.6c-1.8-1-2.7-2.4-2.7-4v-4
		c0-0.4,0.1-0.8,0.2-1.3c0.6-2.4,2.3-3.6,5.1-3.6h10.9l0.1,5.5h-9.9c-0.1,0-0.2,0.1-0.4,0.2c-0.4,0.4-0.6,0.7-0.6,0.8v0.5
		c0,0.5,0.4,0.9,1.3,1h4.8c1.2,0,2.3,0.5,3.3,1.5c1,1,1.4,2.1,1.4,3.3v3.9c0,0.9-0.3,1.7-0.7,2.5c-0.5,0.8-1.1,1.4-1.8,1.8
		c-0.6,0.3-1.5,0.5-2.5,0.5L858.4,31.2L858.4,31.2z M878.2,31.2V1.8h5.4v8h3.6v5.5h-3.6v16C883.7,31.2,878.2,31.2,878.2,31.2z"/>
	<path class="st1" d="M741.1,31.2v-5.5h9.7c0.6-0.1,1-0.4,1.1-0.8c0-0.1,0-0.1,0-0.2v-0.4c0-0.6-0.3-0.9-0.9-1h-4.7
		c-0.8,0-1.6-0.2-2.3-0.6c-1.8-1-2.7-2.4-2.7-4v-4c0-0.4,0.1-0.8,0.2-1.3c0.6-2.4,2.3-3.6,5.1-3.6h10.9l0.1,5.5h-9.9
		c-0.1,0-0.2,0.1-0.4,0.2c-0.4,0.4-0.6,0.7-0.6,0.8v0.5c0,0.5,0.4,0.9,1.3,1h4.8c1.2,0,2.3,0.5,3.3,1.5c1,1,1.4,2.1,1.4,3.3v3.9
		c0,0.9-0.3,1.7-0.8,2.5c-0.5,0.8-1.1,1.4-1.8,1.8c-0.6,0.3-1.5,0.5-2.5,0.5C752.3,31.2,741.1,31.2,741.1,31.2z M761,31.2V14.9
		c0-0.3,0-0.6,0.1-1c0.4-2.7,2.1-4.1,5-4.1h7.6c2.9,0,4.6,1.4,5,4.1c0.1,0.4,0.1,0.7,0.1,1v16.3h-5.4V16.8c0-0.1,0-0.2,0-0.3
		c-0.1-0.8-0.7-1.2-1.8-1.2h-3.3c-1.1,0-1.6,0.4-1.8,1.2v14.8H761L761,31.2z M782.5,26.4V22c0-1.6,0.5-2.8,1.4-3.7
		c0.9-0.9,2.2-1.3,3.8-1.3h7.2v-1.1c0-0.5-0.4-0.7-1.2-0.9h-11.3V9.8h12.5c0.2,0,0.5,0,0.9,0.1c2.5,0.3,4,1.6,4.4,4
		c0.1,0.3,0.1,0.6,0.1,0.9v11.4c0,0.4,0,0.7-0.1,1c-0.2,1.2-0.8,2.2-1.7,2.9c-0.9,0.7-1.9,1.1-3.1,1.1H788c-3.2,0-5-1.3-5.4-3.9
		C782.6,27.2,782.6,26.8,782.5,26.4z M788.2,25.5c0.2,0.2,0.4,0.4,0.8,0.5c0.1,0,0.2,0,0.3,0h4.2c0.9,0,1.4-0.4,1.4-1.2v-1.5
		c0-0.5-0.2-0.9-0.7-1.1c-0.1-0.1-0.4-0.2-0.7-0.2h-4.8c-0.5,0.1-0.7,0.4-0.8,1.1v1.7C787.9,25,788,25.2,788.2,25.5z M804.1,39.3
		V15.5c0-0.3,0-0.6,0.1-1.1c0.3-2.6,1.6-4.1,4-4.5c0.3-0.1,0.5-0.1,0.7-0.1h7.8c0.3,0,0.7,0,1.1,0.1c2.7,0.5,4.1,2.3,4.1,5.4v11.1
		c0,1-0.3,1.9-1,2.7c-0.1,0.2-0.3,0.4-0.6,0.7c-1,1-2.2,1.5-3.5,1.5h-7.4v8h-1.4C807.3,39.3,805.9,39.3,804.1,39.3L804.1,39.3z
		 M809.6,24.5c0.1,0.7,0.6,1.1,1.3,1.3c0.1,0,0.2,0,0.3,0h4.1c0.4-0.1,0.6-0.2,0.9-0.5c0.2-0.4,0.3-0.6,0.3-0.8v-8.1
		c-0.1-0.6-0.4-0.9-1-1c-0.1,0-0.1,0-0.2,0h-4.2c-0.6,0-1.1,0.3-1.3,0.9c-0.1,0.2-0.2,0.5-0.2,0.7v7.3
		C809.6,24.3,809.6,24.4,809.6,24.5L809.6,24.5z M825.8,31.2V6.7c0-1.5,0.6-2.7,1.8-3.6c1.1-0.8,2.4-1.2,4-1.2h3.4V7h-2.2
		c-0.1,0-0.1,0-0.2,0c-1,0.2-1.5,0.7-1.5,1.6v1.1h3.8v5.5h-3.8v16L825.8,31.2L825.8,31.2z M837,26.4V22c0-1.6,0.5-2.8,1.4-3.7
		c0.9-0.9,2.2-1.3,3.8-1.3h7.2v-1.1c0-0.5-0.4-0.7-1.2-0.9H837V9.8h12.5c0.2,0,0.5,0,0.9,0.1c2.5,0.3,4,1.6,4.4,4
		c0.1,0.3,0.1,0.6,0.1,0.9v11.4c0,0.4,0,0.7-0.1,1c-0.2,1.2-0.8,2.2-1.7,2.9c-0.9,0.7-1.9,1.1-3.1,1.1h-7.5c-3.2,0-5-1.3-5.4-3.9
		C837.1,27.2,837.1,26.8,837,26.4z M842.7,25.4c0.2,0.2,0.4,0.4,0.8,0.5c0.1,0,0.2,0,0.3,0h4.3c0.9,0,1.4-0.4,1.4-1.2v-1.5
		c0-0.5-0.2-0.9-0.7-1.1c-0.1-0.1-0.4-0.2-0.7-0.2h-4.8c-0.5,0.1-0.7,0.4-0.8,1.1v1.7C842.5,25,842.6,25.2,842.7,25.4z M858.4,31.2
		v-5.5h9.7c0.6-0.1,1-0.4,1.1-0.8c0-0.1,0-0.1,0-0.2v-0.4c0-0.6-0.3-0.9-0.9-1h-4.7c-0.8,0-1.6-0.2-2.3-0.6c-1.8-1-2.7-2.4-2.7-4v-4
		c0-0.4,0.1-0.8,0.2-1.3c0.6-2.4,2.3-3.6,5.1-3.6h10.9l0.1,5.5h-9.9c-0.1,0-0.2,0.1-0.4,0.2c-0.4,0.4-0.6,0.7-0.6,0.8v0.5
		c0,0.5,0.4,0.9,1.3,1h4.8c1.2,0,2.3,0.5,3.3,1.5c1,1,1.4,2.1,1.4,3.3v3.9c0,0.9-0.3,1.7-0.7,2.5c-0.5,0.8-1.1,1.4-1.8,1.8
		c-0.6,0.3-1.5,0.5-2.5,0.5L858.4,31.2L858.4,31.2z M878.2,31.2V1.8h5.4v8h3.6v5.5h-3.6v16C883.7,31.2,878.2,31.2,878.2,31.2z"/>
</g>
<g id="Layer_2">
</g>
<g id="Layer_2_1_">
	<path class="st0" d="M1520.1,28.8c2.3,4.3,4.4,8.2,6.5,11.9c0.3,0.6,1.4,0.8,2.1,0.8c9.8,0.1,19.7,0,29.5,0h2.8
		c-1.9,3.3-3.8,6.3-5.2,9.6c-1.4,3.2-3.6,3.9-6.9,3.8c-9.3-0.3-18.6-0.1-27.8-0.1c-1.2,0-1.9-0.3-2.5-1.4c-1.4-2.6-3-5.1-4.5-7.7
		c-0.2-0.3-0.4-0.6-0.7-1c-1.7,3.1-3.2,6-4.9,8.9c-0.3,0.6-1.2,1-1.9,1c-6.4,0.1-12.7,0.1-19.1,0c-0.6,0-1.5-0.5-1.9-1
		c-3.6-6-7.1-12.2-10.7-18.2s-7.1-12-10.7-18c-1.1-1.9-2.3-3.6-3.2-5.6c-0.3-0.6-0.1-1.9,0.3-2.5c2.2-3.8,4.6-7.6,7.1-11.5
		c1.2,1.9,2.3,3.8,3.4,5.8c3.2,5.6,6.5,11.2,9.7,16.8c3.8,6.5,7.6,13,11.3,19.6c0.6,1.2,1.5,1.6,2.9,1.5c4.1-0.1,8.2-0.3,12.2,0.1
		c2.5,0.2,3.7-0.9,4.6-2.9c1.8-3.5,3.6-7,5.6-10.5c2.9-5.3,5.8-10.6,8.6-16c0.2-0.4,0.5-0.7,0.7-1.2c3.3,5.8,6.7,11.6,10.1,17.6
		C1531.6,28.8,1526.1,28.8,1520.1,28.8z"/>
	<path class="st0" d="M1469.3-3.5c2.7-4.5,5.2-8.6,7.7-12.8c0.4-0.6,1.2-1,1.9-1c4.1-0.1,8.1,0,12.2-0.1c1.5-0.1,2.1,0.6,2.8,1.7
		c3.8,6.4,7.5,12.7,11.3,19.1c0.7,1.2,1.4,2.4,2.2,3.9c2.6-4.9,5.1-9.6,7.6-14.2c1.7-3.2,3.2-6.4,4.9-9.6c0.2-0.5,0.9-0.8,1.4-0.8
		c7-0.1,13.8-0.1,20.8,0c0.6,0,1.2,0.6,1.5,1c3,4.7,5.8,9.5,8.7,14.2l8.9,14.8c2.5,4.1,5,8.3,7.4,12.4c0.4,0.6,0.6,1.8,0.3,2.3
		c-2,4-4.3,7.9-6.5,12.1c-2.7-4.4-5.2-8.4-7.6-12.5c-2.7-4.5-5.3-9-8-13.5c-3.2-5.3-6.3-10.5-9.4-15.7c-0.6-0.9-1.1-1.3-2.2-1.2
		c-5,0.1-10,0.1-14.9,0c-1.6,0-2.2,0.6-3,1.9c-4.8,9.3-9.8,18.6-14.8,28.1c-2-3.4-4.1-6.8-6-10.1l-6.1-10.6c-1.6-2.7-3.2-5.3-4.7-8
		c-0.6-1.1-1.3-1.3-2.4-1.2C1478.6-3.5,1474.2-3.5,1469.3-3.5L1469.3-3.5z"/>
</g>
<g>
	<path class="st0" d="M566.5,22.5c0-10.4-8.4-18.7-18.7-18.7h-28.6l47.3,53C566.5,56.7,566.5,22.5,566.5,22.5z M571.4,22.5
		c0-10.4,8.4-18.7,18.7-18.7h28.6l-47.3,53C571.4,56.7,571.4,22.5,571.4,22.5z M524.7-14.6c3.6,0,5.8,1.5,5.9,4.6h-3.2
		c0,0,0.2-1.9-2.6-1.9c-0.8,0-2,0.4-2,1.2c0,1.4,3.2,1.4,4.7,1.8c2.1,0.5,3.8,1.8,3.7,4.1c0,2-1.3,4.5-5.5,4.6
		c-2.2,0-3.6-0.5-4.7-1.2c-1.8-1.2-2-3.6-1.9-4h3.4c0,0-0.1,2.4,2.8,2.4c1.2,0,2.3-0.4,2.3-1.7c0-2.2-8.1-0.7-8.3-5.3
		C519.1-12.5,521-14.6,524.7-14.6L524.7-14.6z M539.1-14.5c1.7,0,4.8,0.9,4.8,4.7v9.3h-3.8v-8.3c0-1-0.5-2.5-2.3-2.5
		c-1.7,0-2.5,1.3-2.5,2.3v8.5h-3.8v-13.8h3.8v1.2C536.1-13.7,536.8-14.5,539.1-14.5z M605.2-14.4v3.2h-0.9c-1.9,0-3.3,1.1-3.3,3.2
		v7.5h-3.9v-13.8h3.9v1.1C601.8-14.2,603.6-15,605.2-14.4z M557.6-14.2h3.7l2.2,8.1l2.3-8.1h3.3l2.3,8.3l2.3-8.3h3.8l-4.2,13.8h-3.4
		l-2.4-8.8L565-0.4h-3.4L557.6-14.2L557.6-14.2z M592-14.2h3.9v13.8H592C592-0.4,592-14.2,592-14.2z M551.5-14.5
		c-4.3,0-6.9,3.1-7.1,7.3c-0.2,4.2,3.1,7.2,7,7.2c4.2-0.1,7.1-3.2,7-7.3C558.4-11.6,555.6-14.5,551.5-14.5z M551.7-2.9
		c-2.2,0-3.2-1.9-3.2-4.1c-0.1-2.2,0.7-4.6,3.3-4.4c2.4,0.1,3,2.2,3.1,4.4C554.9-4.8,553.7-2.9,551.7-2.9L551.7-2.9z M585.4-14.6
		c-1.6,0-3.2,0.8-3.9,1.3v-6.1h-3.8v18.8h3.9v-1c0.5,0.4,1.9,1.5,3.6,1.4c4-0.2,6.1-3,6.1-7.1C591.4-11.2,589.4-14.5,585.4-14.6
		L585.4-14.6z M584.5-3.1c-1.9,0-3.2-2.1-3.2-4.2c0.1-2,1.1-4,3.1-4c2,0,3.1,1.6,3.1,4.1C587.5-4.8,586.3-3.1,584.5-3.1z"/>
	<path class="st0" d="M614.9-19.2v6.1c-1-0.8-2.4-1.3-3.9-1.3c-4.1,0.1-6.1,3.9-6,7.5c0.1,3.5,2.2,6.9,6,7c2,0,3.4-1.2,3.7-1.7
		l0.1,1.1h3.6v-18.7H614.9z M611.7-3.2c-1.9,0-3-2.1-3-4.2c0-1.9,1.1-3.8,3-3.9c2.4,0,3,2.1,3,4C614.8-5.1,613.7-3.2,611.7-3.2z"/>
</g>
</svg>
