<?xml version="1.0" encoding="utf-8"?>
<!-- Generator: Adobe Illustrator 19.0.0, SVG Export Plug-In . SVG Version: 6.00 Build 0)  -->
<!DOCTYPE svg PUBLIC "-//W3C//DTD SVG 1.1//EN" "http://www.w3.org/Graphics/SVG/1.1/DTD/svg11.dtd">
<svg version="1.1" id="Layer_1" xmlns="http://www.w3.org/2000/svg" xmlns:xlink="http://www.w3.org/1999/xlink" x="0px" y="0px"
	 viewBox="0 0 771 271" style="enable-background:new 0 0 771 271;" xml:space="preserve">
<g>
	<g>
		<path d="M100.1,20.5v-20h7.5c3.8,0,6,2.7,6,5.9c0,3.1-2.2,5.8-6,5.8h-5.8v8.3H100.1z M111.8,6.3c0-2.5-1.7-4.3-4.4-4.3h-5.6v8.6
			h5.6C110.1,10.6,111.8,8.8,111.8,6.3z"/>
		<path d="M134,20.5V11h-12.7v9.5h-1.7v-20h1.7v8.9H134V0.5h1.7v20H134z"/>
		<path d="M157.6,20.5l-2-4.9H145l-2,4.9h-2l8.2-20h2.1l8.2,20H157.6z M150.3,2.3L145.6,14h9.4L150.3,2.3z"/>
		<path d="M163.2,17.7l1.1-1.3c1.3,1.5,3.4,2.9,6.3,2.9c4.1,0,5.2-2.3,5.2-4c0-5.9-12-2.8-12-9.8c0-3.3,2.9-5.3,6.6-5.3
			c3,0,5.2,1.1,6.8,2.8l-1.1,1.3c-1.4-1.7-3.5-2.5-5.7-2.5c-2.7,0-4.7,1.5-4.7,3.7c0,5.1,12,2.3,12,9.8c0,2.6-1.7,5.7-7.1,5.7
			C167.2,20.9,164.8,19.5,163.2,17.7z"/>
		<path d="M184.1,20.5v-20h12.7v1.6h-11v7.4h10.8V11h-10.8v7.9h11v1.6H184.1z"/>
		<path d="M218.7,20.5V2.1h-6.5V0.5h14.8v1.6h-6.5v18.4H218.7z"/>
		<path d="M247.3,20.5V11h-12.7v9.5h-1.7v-20h1.7v8.9h12.7V0.5h1.7v20H247.3z"/>
		<path d="M268,20.5l-5.6-8.3H258v8.3h-1.7v-20h7.5c3.5,0,6.1,2.2,6.1,5.9c0,3.6-2.5,5.6-5.5,5.8l5.8,8.4H268z M268.1,6.3
			c0-2.5-1.8-4.3-4.4-4.3H258v8.6h5.6C266.3,10.7,268.1,8.9,268.1,6.3z"/>
		<path d="M276.5,20.5v-20h12.7v1.6h-11v7.4H289V11h-10.8v7.9h11v1.6H276.5z"/>
		<path d="M295.8,20.5v-20h12.7v1.6h-11v7.4h10.8V11h-10.8v7.9h11v1.6H295.8z"/>
		<path d="M314.5,7.1c0-0.7,0.6-1.3,1.4-1.3c0.7,0,1.3,0.6,1.3,1.3c0,0.7-0.6,1.3-1.3,1.3C315.2,8.4,314.5,7.8,314.5,7.1z
			 M314.5,19.5c0-0.7,0.6-1.3,1.4-1.3c0.7,0,1.3,0.6,1.3,1.3c0,0.7-0.6,1.3-1.3,1.3C315.2,20.8,314.5,20.2,314.5,19.5z"/>
		<path d="M333.4,10.5c0-6.1,4.5-10.3,10.1-10.3c3.2,0,5.6,1.4,7.3,3.5l-1.4,0.9c-1.3-1.7-3.5-2.9-5.9-2.9c-4.7,0-8.3,3.6-8.3,8.8
			c0,5.2,3.7,8.8,8.3,8.8c2.4,0,4.6-1.2,5.9-2.9l1.5,0.9c-1.8,2.2-4.1,3.6-7.3,3.6C337.8,20.9,333.4,16.7,333.4,10.5z"/>
		<path d="M355.8,10.5c0-5.8,3.8-10.3,9.7-10.3c5.8,0,9.7,4.5,9.7,10.3c0,5.9-3.9,10.3-9.7,10.3C359.7,20.9,355.8,16.4,355.8,10.5z
			 M373.5,10.5c0-5.1-3.1-8.8-7.9-8.8c-4.8,0-7.9,3.7-7.9,8.8c0,5,3.1,8.8,7.9,8.8C370.4,19.3,373.5,15.6,373.5,10.5z"/>
		<path d="M396.2,20.5L383.6,3.3v17.2h-1.7v-20h1.7l12.5,16.9V0.5h1.7v20H396.2z"/>
		<path d="M410.3,20.5V2.1h-6.5V0.5h14.8v1.6h-6.5v18.4H410.3z"/>
		<path d="M424.5,20.5v-20h12.7v1.6h-11v7.4H437V11h-10.8v7.9h11v1.6H424.5z"/>
		<path d="M458.1,20.5L445.5,3.3v17.2h-1.7v-20h1.7l12.5,16.9V0.5h1.7v20H458.1z"/>
		<path d="M472.2,20.5V2.1h-6.5V0.5h14.8v1.6H474v18.4H472.2z"/>
		<path d="M513.6,20.5V2.7l-7.3,17.8h-0.7l-7.3-17.8v17.8h-1.7v-20h2.5l6.8,16.6l6.8-16.6h2.6v20H513.6z"/>
		<path d="M537.1,20.5l-2-4.9h-10.6l-2,4.9h-2l8.2-20h2.1l8.2,20H537.1z M529.9,2.3L525.1,14h9.4L529.9,2.3z"/>
		<path d="M556.2,20.5l-5.6-8.3h-4.4v8.3h-1.7v-20h7.5c3.4,0,6.1,2.2,6.1,5.9c0,3.6-2.6,5.6-5.5,5.8l5.8,8.4H556.2z M556.2,6.3
			c0-2.5-1.8-4.3-4.4-4.3h-5.6v8.6h5.6C554.4,10.7,556.2,8.9,556.2,6.3z"/>
		<path d="M576.8,20.5l-8.2-9.4l-2.2,2.4v7h-1.7v-20h1.7v10.9L576,0.5h2.2l-8.5,9.5l9.3,10.5H576.8z"/>
		<path d="M584.6,20.5v-20h12.7v1.6h-11v7.4H597V11h-10.8v7.9h11v1.6H584.6z"/>
		<path d="M609,20.5V2.1h-6.5V0.5h14.8v1.6h-6.5v18.4H609z"/>
		<path d="M623.1,20.5v-20h1.7v20H623.1z"/>
		<path d="M646.5,20.5L633.9,3.3v17.2h-1.7v-20h1.7l12.5,16.9V0.5h1.7v20H646.5z"/>
		<path d="M654.8,10.5c0-6.2,4.5-10.3,10.1-10.3c3.3,0,5.7,1.3,7.5,3.4l-1.3,0.9c-1.4-1.7-3.7-2.8-6.2-2.8c-4.7,0-8.3,3.6-8.3,8.8
			c0,5.2,3.7,8.8,8.3,8.8c2.7,0,4.8-1.3,5.9-2.4v-4.8h-7.6v-1.5h9.3v7c-1.8,2-4.4,3.3-7.6,3.3C659.3,20.9,654.8,16.7,654.8,10.5z"/>
	</g>
	<g>
		<path d="M302.4,52.7c-1.4-0.1-2.5-0.7-3.2-1.5l0.5-0.6c0.6,0.6,1.4,1.3,2.6,1.3V48c-1.4-0.4-2.9-0.9-2.9-2.5
			c0-1.5,1.3-2.4,2.9-2.5v-1.3h0.6V43c1.2,0.1,2.1,0.6,2.7,1.3l-0.5,0.6c-0.6-0.7-1.3-1.1-2.2-1.1v3.5c1.4,0.4,2.9,0.9,2.9,2.7
			c0,1.1-0.7,2.5-2.9,2.6v1.2h-0.6V52.7z M302.4,47.1v-3.4c-1.2,0.1-2,0.8-2,1.7C300.4,46.4,301.3,46.8,302.4,47.1z M303.1,48.2v3.7
			c1.6-0.1,2.1-1.1,2.1-1.8C305.2,48.9,304.2,48.5,303.1,48.2z"/>
		<path d="M309.3,52.5v-0.7c3.2-2.6,5.3-4.4,5.3-6.2c0-1.3-1.1-1.9-2.1-1.9c-1.2,0-2.1,0.5-2.6,1.2l-0.5-0.5
			c0.7-0.9,1.8-1.4,3.1-1.4c1.4,0,2.9,0.8,2.9,2.6c0,2.1-2.2,3.9-4.9,6.1h4.9v0.7H309.3z"/>
		<path d="M319.4,51.1l0.5-0.5c0.6,0.9,1.4,1.3,2.6,1.3c1.4,0,2.3-1,2.3-2.3c0-1.4-1-2.3-2.3-2.3c-0.9,0-1.6,0.3-2.3,0.9l-0.6-0.3
			v-4.9h5.4v0.7h-4.6v3.7c0.5-0.4,1.3-0.9,2.2-0.9c1.6,0,3,1,3,3c0,1.9-1.4,3-3.2,3C321,52.7,320.1,52.1,319.4,51.1z"/>
		<path d="M329.1,47.8c0-2.2,0.9-4.8,3.5-4.8c2.5,0,3.4,2.6,3.4,4.8c0,2.2-1,4.8-3.4,4.8C330.1,52.7,329.1,50,329.1,47.8z
			 M335.2,47.8c0-1.9-0.6-4.1-2.6-4.1c-2,0-2.6,2.2-2.6,4.1c0,1.9,0.6,4.1,2.6,4.1C334.5,51.9,335.2,49.8,335.2,47.8z"/>
		<path d="M339.4,47.8c0-2.2,0.9-4.8,3.5-4.8c2.5,0,3.4,2.6,3.4,4.8c0,2.2-1,4.8-3.4,4.8C340.3,52.7,339.4,50,339.4,47.8z
			 M345.4,47.8c0-1.9-0.6-4.1-2.6-4.1c-2,0-2.6,2.2-2.6,4.1c0,1.9,0.6,4.1,2.6,4.1C344.8,51.9,345.4,49.8,345.4,47.8z"/>
		<path d="M355.4,52.5v-9.3h0.8v9.3H355.4z"/>
		<path d="M366.9,52.5l-5.9-8v8h-0.8v-9.3h0.8l5.9,7.9v-7.9h0.8v9.3H366.9z"/>
		<path d="M380.9,52.5V50h-4.4v-0.7l4.1-6.1h1.1v6.1h1.4V50h-1.4v2.5H380.9z M380.9,44l-3.6,5.3h3.6V44z"/>
		<path d="M391.9,52.5v-9.3h3.5c1.8,0,2.8,1.3,2.8,2.7c0,1.5-1,2.7-2.8,2.7h-2.7v3.9H391.9z M397.3,45.9c0-1.2-0.8-2-2.1-2h-2.6v4
			h2.6C396.5,47.9,397.3,47.1,397.3,45.9z"/>
		<path d="M407.3,52.5l-0.9-2.3h-4.9l-0.9,2.3h-0.9l3.8-9.3h1l3.8,9.3H407.3z M403.9,44l-2.2,5.5h4.4L403.9,44z"/>
		<path d="M413.2,52.5v-4l-3.7-5.4h1l3.2,4.6l3.2-4.6h1l-3.7,5.4v4H413.2z"/>
		<path d="M428.8,52.5v-8.3l-3.4,8.3H425l-3.4-8.3v8.3h-0.8v-9.3h1.2l3.2,7.8l3.2-7.8h1.2v9.3H428.8z"/>
		<path d="M433.6,52.5v-9.3h5.9v0.7h-5.1v3.5h5v0.7h-5v3.7h5.1v0.7H433.6z"/>
		<path d="M450,52.5l-5.9-8v8h-0.8v-9.3h0.8l5.9,7.9v-7.9h0.8v9.3H450z"/>
		<path d="M457.2,52.5v-8.6h-3.1v-0.7h6.9v0.7H458v8.6H457.2z"/>
		<path d="M463.9,51.2l0.5-0.6c0.6,0.7,1.6,1.4,2.9,1.4c1.9,0,2.5-1.1,2.5-1.9c0-2.7-5.6-1.3-5.6-4.6c0-1.5,1.4-2.5,3.1-2.5
			c1.4,0,2.5,0.5,3.2,1.3l-0.5,0.6c-0.7-0.8-1.6-1.2-2.7-1.2c-1.2,0-2.2,0.7-2.2,1.7c0,2.4,5.6,1.1,5.6,4.6c0,1.2-0.8,2.6-3.3,2.6
			C465.8,52.7,464.6,52,463.9,51.2z"/>
	</g>
	<polygon points="770.5,43 769.5,43 769.5,31.5 1.5,31.5 1.5,43 0.5,43 0.5,30.5 770.5,30.5 	"/>
	<path d="M193.8,270.5H0.5V77.2h193.2V270.5z M1.5,269.5h191.2V78.2H1.5V269.5z"/>
	<path d="M386,270.5H192.8V77.2H386V270.5z M193.8,269.5H385V78.2H193.8V269.5z"/>
	<path d="M578.2,270.5H385V77.2h193.2V270.5z M386,269.5h191.2V78.2H386V269.5z"/>
	<path d="M770.5,270.5H577.2V77.2h193.2V270.5z M578.2,269.5h191.2V78.2H578.2V269.5z"/>
	<g>
		<path d="M69.7,183.2v-10.7l-4.4,10.7h-0.4l-4.4-10.7v10.7h-1v-12H61l4.1,10l4.1-10h1.5v12H69.7z"/>
		<path d="M74.7,177.2c0-3.5,2.3-6.2,5.8-6.2c3.5,0,5.8,2.7,5.8,6.2s-2.3,6.2-5.8,6.2C77,183.4,74.7,180.7,74.7,177.2z M85.3,177.2
			c0-3-1.9-5.3-4.8-5.3c-2.9,0-4.8,2.2-4.8,5.3c0,3,1.9,5.3,4.8,5.3C83.4,182.4,85.3,180.2,85.3,177.2z"/>
		<path d="M98.9,183.2l-7.6-10.3v10.3h-1v-12h1l7.5,10.2v-10.2h1v12H98.9z"/>
		<path d="M107.4,183.2v-11.1h-3.9v-0.9h8.9v0.9h-3.9v11.1H107.4z"/>
		<path d="M124.6,183.2v-5.7H117v5.7h-1v-12h1v5.4h7.6v-5.4h1v12H124.6z"/>
		<path d="M136.3,181.8l0.6-0.7c0.6,0.8,1.3,1.3,2.6,1.3c2.6,0,3.5-2.8,3.5-5.3c0-0.2,0-0.4,0-0.6c-0.5,0.8-1.9,2-3.5,2
			c-2.2,0-3.9-1.2-3.9-3.8c0-2,1.5-3.8,4-3.8c3.2,0,4.4,3,4.4,6.2c0,3.1-1.3,6.2-4.6,6.2C138,183.4,137,182.7,136.3,181.8z
			 M143,175.6c-0.1-1.6-1-3.7-3.3-3.7c-2.1,0-3,1.6-3,2.9c0,2,1.3,2.9,3,2.9C141.1,177.7,142.3,176.8,143,175.6z"/>
	</g>
	<g>
		<path d="M83.4,237.3c-1.5-0.1-2.7-0.7-3.4-1.6l0.6-0.6c0.6,0.7,1.5,1.3,2.8,1.4v-4.2c-1.5-0.4-3.1-0.9-3.1-2.7
			c0-1.6,1.3-2.6,3.1-2.7v-1.4h0.7v1.4c1.3,0.1,2.2,0.6,2.9,1.4l-0.6,0.6c-0.6-0.7-1.4-1.1-2.4-1.2v3.8c1.5,0.4,3.1,1,3.1,2.9
			c0,1.2-0.8,2.7-3.1,2.8v1.3h-0.7V237.3z M83.4,231.4v-3.6c-1.2,0.1-2.2,0.8-2.2,1.8C81.3,230.7,82.3,231.1,83.4,231.4z
			 M84.1,232.5v4c1.7-0.1,2.2-1.2,2.2-2C86.4,233.4,85.3,232.9,84.1,232.5z"/>
		<path d="M90.2,232.2c0-2.6,1.1-5.2,3.8-5.2c1.3,0,2.1,0.5,2.7,1.3l-0.5,0.6c-0.5-0.6-1.1-1.1-2.2-1.1c-2.2,0-3,2.3-3,4.4
			c0,0.2,0,0.3,0,0.5c0.4-0.7,1.6-1.7,2.9-1.7c1.8,0,3.2,1,3.2,3.2c0,1.6-1.2,3.2-3.4,3.2C91.1,237.3,90.2,234.9,90.2,232.2z
			 M96.3,234.2c0-1.6-1.1-2.4-2.5-2.4c-1.1,0-2.2,0.7-2.7,1.7c0.1,1.4,0.8,3.1,2.7,3.1C95.5,236.6,96.3,235.2,96.3,234.2z"/>
		<path d="M100.1,237.2v-0.7c3.4-2.7,5.7-4.7,5.7-6.6c0-1.4-1.2-2-2.3-2c-1.2,0-2.2,0.5-2.7,1.3l-0.6-0.5c0.7-1,1.9-1.5,3.3-1.5
			c1.5,0,3.1,0.8,3.1,2.8c0,2.2-2.3,4.2-5.2,6.6h5.3v0.8H100.1z"/>
		<path d="M110.3,235.7l0.6-0.6c0.6,0.9,1.5,1.4,2.8,1.4c1.5,0,2.5-1,2.5-2.4c0-1.5-1-2.4-2.5-2.4c-0.9,0-1.7,0.3-2.4,1l-0.6-0.3
			v-5.2h5.8v0.8h-4.9v3.9c0.5-0.5,1.4-0.9,2.4-0.9c1.7,0,3.2,1.1,3.2,3.2c0,2-1.5,3.2-3.4,3.2C112,237.3,111,236.7,110.3,235.7z"/>
	</g>
	<g>
		<path d="M257.4,183.2v-10.7l-4.4,10.7h-0.4l-4.4-10.7v10.7h-1v-12h1.5l4.1,10l4.1-10h1.5v12H257.4z"/>
		<path d="M262.4,177.2c0-3.5,2.3-6.2,5.8-6.2c3.5,0,5.8,2.7,5.8,6.2s-2.3,6.2-5.8,6.2C264.7,183.4,262.4,180.7,262.4,177.2z
			 M273,177.2c0-3-1.9-5.3-4.8-5.3c-2.9,0-4.8,2.2-4.8,5.3c0,3,1.9,5.3,4.8,5.3C271.1,182.4,273,180.2,273,177.2z"/>
		<path d="M286.6,183.2l-7.6-10.3v10.3h-1v-12h1l7.5,10.2v-10.2h1v12H286.6z"/>
		<path d="M295.1,183.2v-11.1h-3.9v-0.9h8.9v0.9h-3.9v11.1H295.1z"/>
		<path d="M312.3,183.2v-5.7h-7.6v5.7h-1v-12h1v5.4h7.6v-5.4h1v12H312.3z"/>
		<path d="M325.4,183.2v-10.6l-1.9,2.1l-0.6-0.7l2.6-2.8h0.9v12H325.4z"/>
		<path d="M330.4,177.2c0-2.9,1.2-6.2,4.4-6.2c3.2,0,4.4,3.3,4.4,6.2c0,2.8-1.2,6.2-4.4,6.2C331.6,183.4,330.4,180,330.4,177.2z
			 M338.1,177.2c0-2.5-0.8-5.3-3.3-5.3c-2.5,0-3.4,2.8-3.4,5.3c0,2.5,0.8,5.3,3.4,5.3C337.3,182.4,338.1,179.6,338.1,177.2z"/>
	</g>
	<g>
		<path d="M274.1,237.3c-1.5-0.1-2.7-0.7-3.4-1.6l0.6-0.6c0.6,0.7,1.5,1.3,2.8,1.4v-4.2c-1.5-0.4-3.1-0.9-3.1-2.7
			c0-1.6,1.3-2.6,3.1-2.7v-1.4h0.7v1.4c1.3,0.1,2.2,0.6,2.9,1.4l-0.6,0.6c-0.6-0.7-1.4-1.1-2.4-1.2v3.8c1.5,0.4,3.1,1,3.1,2.9
			c0,1.2-0.8,2.7-3.1,2.8v1.3h-0.7V237.3z M274.1,231.4v-3.6c-1.2,0.1-2.2,0.8-2.2,1.8C271.9,230.7,272.9,231.1,274.1,231.4z
			 M274.8,232.5v4c1.7-0.1,2.2-1.2,2.2-2C277,233.4,276,232.9,274.8,232.5z"/>
		<path d="M280.8,232.2c0-2.6,1.1-5.2,3.8-5.2c1.3,0,2.1,0.5,2.7,1.3l-0.5,0.6c-0.5-0.6-1.1-1.1-2.2-1.1c-2.2,0-3,2.3-3,4.4
			c0,0.2,0,0.3,0,0.5c0.4-0.7,1.6-1.7,2.9-1.7c1.8,0,3.2,1,3.2,3.2c0,1.6-1.2,3.2-3.4,3.2C281.8,237.3,280.8,234.9,280.8,232.2z
			 M287,234.2c0-1.6-1.1-2.4-2.5-2.4c-1.1,0-2.2,0.7-2.7,1.7c0.1,1.4,0.8,3.1,2.7,3.1C286.2,236.6,287,235.2,287,234.2z"/>
		<path d="M290.8,237.2v-0.7c3.4-2.7,5.7-4.7,5.7-6.6c0-1.4-1.2-2-2.3-2c-1.2,0-2.2,0.5-2.7,1.3l-0.6-0.5c0.7-1,1.9-1.5,3.3-1.5
			c1.5,0,3.1,0.8,3.1,2.8c0,2.2-2.3,4.2-5.2,6.6h5.3v0.8H290.8z"/>
		<path d="M301,235.7l0.6-0.6c0.6,0.9,1.5,1.4,2.8,1.4c1.5,0,2.5-1,2.5-2.4c0-1.5-1-2.4-2.5-2.4c-0.9,0-1.7,0.3-2.4,1l-0.6-0.3v-5.2
			h5.8v0.8h-4.9v3.9c0.5-0.5,1.4-0.9,2.4-0.9c1.7,0,3.2,1.1,3.2,3.2c0,2-1.5,3.2-3.4,3.2C302.7,237.3,301.6,236.7,301,235.7z"/>
	</g>
	<g>
		<path d="M448,179.8v-10.7l-4.4,10.7h-0.4l-4.4-10.7v10.7h-1v-12h1.5l4.1,10l4.1-10h1.5v12H448z"/>
		<path d="M453,173.8c0-3.5,2.3-6.2,5.8-6.2c3.5,0,5.8,2.7,5.8,6.2c0,3.5-2.3,6.2-5.8,6.2C455.3,180,453,177.3,453,173.8z
			 M463.6,173.8c0-3-1.9-5.3-4.8-5.3c-2.9,0-4.8,2.2-4.8,5.3c0,3,1.9,5.3,4.8,5.3C461.8,179.1,463.6,176.9,463.6,173.8z"/>
		<path d="M477.3,179.8l-7.6-10.3v10.3h-1v-12h1l7.5,10.2v-10.2h1v12H477.3z"/>
		<path d="M485.8,179.8v-11.1h-3.9v-0.9h8.9v0.9h-3.9v11.1H485.8z"/>
		<path d="M502.9,179.8v-5.7h-7.6v5.7h-1v-12h1v5.4h7.6v-5.4h1v12H502.9z"/>
		<path d="M516,179.8v-10.6l-1.9,2.1l-0.6-0.7l2.6-2.8h0.9v12H516z"/>
		<path d="M523,179.8v-10.6l-1.9,2.1l-0.6-0.7l2.6-2.8h0.9v12H523z"/>
	</g>
	<g>
		<path d="M464.8,234c-1.5-0.1-2.7-0.7-3.4-1.6l0.6-0.6c0.6,0.7,1.5,1.3,2.8,1.4V229c-1.5-0.4-3.1-0.9-3.1-2.7
			c0-1.6,1.3-2.6,3.1-2.7v-1.4h0.7v1.4c1.3,0.1,2.2,0.6,2.9,1.4l-0.6,0.6c-0.6-0.7-1.4-1.1-2.4-1.2v3.8c1.5,0.4,3.2,1,3.2,2.9
			c0,1.2-0.8,2.7-3.2,2.8v1.3h-0.7V234z M464.8,228.1v-3.6c-1.2,0.1-2.2,0.8-2.2,1.8C462.6,227.3,463.6,227.7,464.8,228.1z
			 M465.5,229.2v4c1.7-0.1,2.2-1.2,2.2-2C467.7,230,466.7,229.6,465.5,229.2z"/>
		<path d="M471.5,228.8c0-2.6,1.1-5.2,3.8-5.2c1.3,0,2.1,0.5,2.7,1.3l-0.5,0.6c-0.5-0.6-1.1-1.1-2.2-1.1c-2.2,0-3,2.3-3,4.4
			c0,0.2,0,0.3,0,0.5c0.4-0.7,1.6-1.7,2.9-1.7c1.8,0,3.2,1,3.2,3.2c0,1.6-1.2,3.2-3.4,3.2C472.5,234,471.5,231.5,471.5,228.8z
			 M477.7,230.8c0-1.6-1.1-2.4-2.5-2.4c-1.1,0-2.2,0.7-2.7,1.7c0.1,1.4,0.8,3.1,2.7,3.1C476.9,233.2,477.7,231.9,477.7,230.8z"/>
		<path d="M481.4,233.8v-0.7c3.4-2.7,5.7-4.7,5.7-6.6c0-1.4-1.2-2-2.3-2c-1.2,0-2.2,0.5-2.7,1.3l-0.6-0.5c0.7-1,1.9-1.5,3.3-1.5
			c1.5,0,3.1,0.8,3.1,2.8c0,2.2-2.3,4.2-5.2,6.6h5.3v0.8H481.4z"/>
		<path d="M491.6,232.4l0.6-0.6c0.6,0.9,1.5,1.4,2.8,1.4c1.5,0,2.5-1,2.5-2.4c0-1.5-1-2.4-2.5-2.4c-0.9,0-1.7,0.3-2.4,1l-0.6-0.3
			v-5.2h5.8v0.8h-4.9v3.9c0.5-0.5,1.4-0.9,2.4-0.9c1.7,0,3.2,1.1,3.2,3.2c0,2-1.5,3.2-3.4,3.2C493.3,234,492.3,233.4,491.6,232.4z"
			/>
	</g>
	<g>
		<path d="M639.4,179.8v-10.7l-4.4,10.7h-0.4l-4.4-10.7v10.7h-1v-12h1.5l4.1,10l4.1-10h1.5v12H639.4z"/>
		<path d="M644.4,173.8c0-3.5,2.3-6.2,5.8-6.2c3.5,0,5.8,2.7,5.8,6.2s-2.3,6.2-5.8,6.2C646.7,180,644.4,177.3,644.4,173.8z
			 M655,173.8c0-3-1.9-5.3-4.8-5.3c-2.9,0-4.8,2.2-4.8,5.3c0,3,1.9,5.3,4.8,5.3C653.1,179.1,655,176.9,655,173.8z"/>
		<path d="M668.6,179.8l-7.6-10.3v10.3h-1v-12h1l7.5,10.2v-10.2h1v12H668.6z"/>
		<path d="M677.1,179.8v-11.1h-3.9v-0.9h8.9v0.9h-3.9v11.1H677.1z"/>
		<path d="M694.3,179.8v-5.7h-7.6v5.7h-1v-12h1v5.4h7.6v-5.4h1v12H694.3z"/>
		<path d="M707.4,179.8v-10.6l-1.9,2.1l-0.6-0.7l2.6-2.8h0.9v12H707.4z"/>
		<path d="M712.3,179.8V179c4.1-3.3,6.8-5.6,6.8-8c0-1.7-1.4-2.4-2.7-2.4c-1.5,0-2.6,0.6-3.3,1.6l-0.7-0.6c0.8-1.2,2.3-1.9,4-1.9
			c1.8,0,3.8,1,3.8,3.4c0,2.6-2.8,5.1-6.3,7.9h6.3v0.9H712.3z"/>
	</g>
	<g>
		<path d="M656.1,234c-1.5-0.1-2.7-0.7-3.4-1.6l0.6-0.6c0.6,0.7,1.5,1.3,2.8,1.4V229c-1.5-0.4-3.1-0.9-3.1-2.7
			c0-1.6,1.3-2.6,3.1-2.7v-1.4h0.7v1.4c1.3,0.1,2.2,0.6,2.9,1.4l-0.6,0.6c-0.6-0.7-1.4-1.1-2.4-1.2v3.8c1.5,0.4,3.2,1,3.2,2.9
			c0,1.2-0.8,2.7-3.2,2.8v1.3h-0.7V234z M656.1,228.1v-3.6c-1.2,0.1-2.2,0.8-2.2,1.8C653.9,227.3,654.9,227.7,656.1,228.1z
			 M656.8,229.2v4c1.7-0.1,2.2-1.2,2.2-2C659,230,658,229.6,656.8,229.2z"/>
		<path d="M662.8,228.8c0-2.6,1.1-5.2,3.8-5.2c1.3,0,2.1,0.5,2.7,1.3l-0.5,0.6c-0.5-0.6-1.1-1.1-2.2-1.1c-2.2,0-3,2.3-3,4.4
			c0,0.2,0,0.3,0,0.5c0.4-0.7,1.6-1.7,2.9-1.7c1.8,0,3.2,1,3.2,3.2c0,1.6-1.2,3.2-3.4,3.2C663.8,234,662.8,231.5,662.8,228.8z
			 M669,230.8c0-1.6-1.1-2.4-2.5-2.4c-1.1,0-2.2,0.7-2.7,1.7c0.1,1.4,0.8,3.1,2.7,3.1C668.2,233.2,669,231.9,669,230.8z"/>
		<path d="M672.8,233.8v-0.7c3.4-2.7,5.7-4.7,5.7-6.6c0-1.4-1.2-2-2.3-2c-1.2,0-2.2,0.5-2.7,1.3l-0.6-0.5c0.7-1,1.9-1.5,3.3-1.5
			c1.5,0,3.1,0.8,3.1,2.8c0,2.2-2.3,4.2-5.2,6.6h5.3v0.8H672.8z"/>
		<path d="M683,232.4l0.6-0.6c0.6,0.9,1.5,1.4,2.8,1.4c1.5,0,2.5-1,2.5-2.4c0-1.5-1-2.4-2.5-2.4c-0.9,0-1.7,0.3-2.4,1l-0.6-0.3v-5.2
			h5.8v0.8h-4.9v3.9c0.5-0.5,1.4-0.9,2.4-0.9c1.7,0,3.2,1.1,3.2,3.2c0,2-1.5,3.2-3.4,3.2C684.7,234,683.6,233.4,683,232.4z"/>
	</g>
</g>
</svg>
