<?xml version="1.0" encoding="utf-8"?>
<!-- Generator: Adobe Illustrator 19.0.0, SVG Export Plug-In . SVG Version: 6.00 Build 0)  -->
<!DOCTYPE svg PUBLIC "-//W3C//DTD SVG 1.1//EN" "http://www.w3.org/Graphics/SVG/1.1/DTD/svg11.dtd">
<svg version="1.1" id="Layer_1" xmlns="http://www.w3.org/2000/svg" xmlns:xlink="http://www.w3.org/1999/xlink" x="0px" y="0px"
	 viewBox="0 0 771 271" style="enable-background:new 0 0 771 271;" xml:space="preserve">
<style type="text/css">
	.st0{fill:#3D3D3D;}
</style>
<g>
	<g>
		<path class="st0" d="M176.3,20.5v-20h7.5c3.8,0,6,2.7,6,5.9c0,3.1-2.2,5.8-6,5.8h-5.8v8.3H176.3z M188.1,6.3
			c0-2.5-1.7-4.3-4.4-4.3h-5.6v8.6h5.6C186.3,10.6,188.1,8.8,188.1,6.3z"/>
		<path class="st0" d="M210.2,20.5V11h-12.7v9.5h-1.7v-20h1.7v8.9h12.7V0.5h1.7v20H210.2z"/>
		<path class="st0" d="M233.8,20.5l-2-4.9h-10.6l-2,4.9h-2l8.2-20h2.1l8.2,20H233.8z M226.5,2.3L221.8,14h9.4L226.5,2.3z"/>
		<path class="st0" d="M239.5,17.7l1.1-1.3c1.3,1.5,3.4,2.9,6.3,2.9c4.1,0,5.2-2.3,5.2-4c0-5.9-12-2.8-12-9.8c0-3.3,2.9-5.3,6.6-5.3
			c3,0,5.2,1.1,6.8,2.8l-1.1,1.3c-1.4-1.7-3.5-2.5-5.7-2.5c-2.7,0-4.7,1.5-4.7,3.7c0,5.1,12,2.3,12,9.8c0,2.6-1.7,5.7-7.1,5.7
			C243.5,20.9,241,19.5,239.5,17.7z"/>
		<path class="st0" d="M260.4,20.5v-20h12.7v1.6h-11v7.4h10.8V11h-10.8v7.9h11v1.6H260.4z"/>
		<path class="st0" d="M294.9,20.5V2.1h-6.5V0.5h14.8v1.6h-6.5v18.4H294.9z"/>
		<path class="st0" d="M324.4,20.5l-4.8-17.2l-4.8,17.2h-1.9l-5.7-20h1.9l4.8,17.6l4.9-17.6h1.6l4.9,17.6l4.8-17.6h1.9l-5.7,20
			H324.4z"/>
		<path class="st0" d="M336.1,10.5c0-5.8,3.8-10.3,9.7-10.3c5.8,0,9.7,4.5,9.7,10.3c0,5.9-3.9,10.3-9.7,10.3
			C340,20.9,336.1,16.4,336.1,10.5z M353.8,10.5c0-5.1-3.1-8.8-7.9-8.8c-4.8,0-7.9,3.7-7.9,8.8c0,5,3.1,8.8,7.9,8.8
			C350.6,19.3,353.8,15.6,353.8,10.5z"/>
		<path class="st0" d="M361.6,7.1c0-0.7,0.6-1.3,1.4-1.3c0.7,0,1.3,0.6,1.3,1.3c0,0.7-0.6,1.3-1.3,1.3
			C362.3,8.4,361.6,7.8,361.6,7.1z M361.6,19.5c0-0.7,0.6-1.3,1.4-1.3c0.7,0,1.3,0.6,1.3,1.3c0,0.7-0.6,1.3-1.3,1.3
			C362.3,20.8,361.6,20.2,361.6,19.5z"/>
		<path class="st0" d="M386.3,20.5V2.1h-6.5V0.5h14.8v1.6H388v18.4H386.3z"/>
		<path class="st0" d="M414.9,20.5V11h-12.7v9.5h-1.7v-20h1.7v8.9h12.7V0.5h1.7v20H414.9z"/>
		<path class="st0" d="M423.9,20.5v-20h12.7v1.6h-11v7.4h10.8V11h-10.8v7.9h11v1.6H423.9z"/>
		<path class="st0" d="M453.4,20.5v-20h8.2c3.4,0,5.5,2,5.5,5.1c0,2.5-1.7,4.2-3.5,4.6c2.1,0.3,3.9,2.5,3.9,4.9
			c0,3.3-2.2,5.4-5.7,5.4H453.4z M465.3,5.8c0-2-1.3-3.7-3.9-3.7h-6.3v7.4h6.3C464,9.5,465.3,7.8,465.3,5.8z M465.7,15
			c0-2-1.4-4-4.2-4h-6.4v7.9h6.4C464.1,18.9,465.7,17.4,465.7,15z"/>
		<path class="st0" d="M488.7,20.5l-2-4.9h-10.6l-2,4.9h-2l8.2-20h2.1l8.2,20H488.7z M481.4,2.3L476.7,14h9.4L481.4,2.3z"/>
		<path class="st0" d="M494,10.5c0-6.1,4.5-10.3,10.1-10.3c3.2,0,5.6,1.4,7.3,3.5L510,4.6c-1.3-1.7-3.5-2.9-5.8-2.9
			c-4.7,0-8.3,3.6-8.3,8.8c0,5.2,3.7,8.8,8.3,8.8c2.4,0,4.6-1.2,5.8-2.9l1.5,0.9c-1.8,2.2-4.1,3.6-7.3,3.6
			C498.5,20.9,494,16.7,494,10.5z"/>
		<path class="st0" d="M529.5,20.5l-8.2-9.4l-2.2,2.4v7h-1.7v-20h1.7v10.9l9.7-10.9h2.2l-8.5,9.5l9.3,10.5H529.5z"/>
		<path class="st0" d="M537.2,20.5v-20h12.7v1.6h-11v7.4h10.8V11H539v7.9h11v1.6H537.2z"/>
		<path class="st0" d="M570.8,20.5L558.2,3.3v17.2h-1.7v-20h1.7l12.5,16.9V0.5h1.7v20H570.8z"/>
		<path class="st0" d="M579.9,20.5v-20h6.4c6.2,0,10.1,4.5,10.1,10c0,5.5-3.9,10-10.1,10H579.9z M594.6,10.5c0-4.7-3-8.5-8.3-8.5
			h-4.7v16.9h4.7C591.5,18.9,594.6,15.2,594.6,10.5z"/>
	</g>
	<g>
		<path class="st0" d="M302.4,52.7c-1.4-0.1-2.5-0.7-3.2-1.5l0.5-0.6c0.6,0.6,1.4,1.3,2.6,1.3V48c-1.4-0.4-2.9-0.9-2.9-2.5
			c0-1.5,1.3-2.4,2.9-2.5v-1.3h0.6V43c1.2,0.1,2.1,0.6,2.7,1.3l-0.5,0.6c-0.6-0.7-1.3-1.1-2.2-1.1v3.5c1.4,0.4,2.9,0.9,2.9,2.7
			c0,1.1-0.7,2.5-2.9,2.6v1.2h-0.6V52.7z M302.4,47.1v-3.4c-1.2,0.1-2,0.8-2,1.7C300.4,46.4,301.3,46.8,302.4,47.1z M303.1,48.2v3.7
			c1.6-0.1,2.1-1.1,2.1-1.8C305.2,48.9,304.2,48.5,303.1,48.2z"/>
		<path class="st0" d="M309.3,52.5v-0.7c3.2-2.6,5.3-4.4,5.3-6.2c0-1.3-1.1-1.9-2.1-1.9c-1.2,0-2.1,0.5-2.6,1.2l-0.5-0.5
			c0.7-0.9,1.8-1.4,3.1-1.4c1.4,0,2.9,0.8,2.9,2.6c0,2.1-2.2,3.9-4.9,6.1h4.9v0.7H309.3z"/>
		<path class="st0" d="M319.4,51.1l0.5-0.5c0.6,0.9,1.4,1.3,2.6,1.3c1.4,0,2.3-1,2.3-2.3c0-1.4-1-2.3-2.3-2.3
			c-0.9,0-1.6,0.3-2.3,0.9l-0.6-0.3v-4.9h5.4v0.7h-4.6v3.7c0.5-0.4,1.3-0.9,2.2-0.9c1.6,0,3,1,3,3c0,1.9-1.4,3-3.2,3
			C321,52.7,320.1,52.1,319.4,51.1z"/>
		<path class="st0" d="M329.1,47.8c0-2.2,0.9-4.8,3.5-4.8c2.5,0,3.4,2.6,3.4,4.8c0,2.2-1,4.8-3.4,4.8
			C330.1,52.7,329.1,50,329.1,47.8z M335.2,47.8c0-1.9-0.6-4.1-2.6-4.1c-2,0-2.6,2.2-2.6,4.1c0,1.9,0.6,4.1,2.6,4.1
			C334.5,51.9,335.2,49.8,335.2,47.8z"/>
		<path class="st0" d="M339.4,47.8c0-2.2,0.9-4.8,3.5-4.8c2.5,0,3.4,2.6,3.4,4.8c0,2.2-1,4.8-3.4,4.8
			C340.3,52.7,339.4,50,339.4,47.8z M345.4,47.8c0-1.9-0.6-4.1-2.6-4.1c-2,0-2.6,2.2-2.6,4.1c0,1.9,0.6,4.1,2.6,4.1
			C344.8,51.9,345.4,49.8,345.4,47.8z"/>
		<path class="st0" d="M355.4,52.5v-9.3h0.8v9.3H355.4z"/>
		<path class="st0" d="M366.9,52.5l-5.9-8v8h-0.8v-9.3h0.8l5.9,7.9v-7.9h0.8v9.3H366.9z"/>
		<path class="st0" d="M380.9,52.5V50h-4.4v-0.7l4.1-6.1h1.1v6.1h1.4V50h-1.4v2.5H380.9z M380.9,44l-3.6,5.3h3.6V44z"/>
		<path class="st0" d="M391.9,52.5v-9.3h3.5c1.8,0,2.8,1.3,2.8,2.7c0,1.5-1,2.7-2.8,2.7h-2.7v3.9H391.9z M397.3,45.9
			c0-1.2-0.8-2-2.1-2h-2.6v4h2.6C396.5,47.9,397.3,47.1,397.3,45.9z"/>
		<path class="st0" d="M407.3,52.5l-0.9-2.3h-4.9l-0.9,2.3h-0.9l3.8-9.3h1l3.8,9.3H407.3z M403.9,44l-2.2,5.5h4.4L403.9,44z"/>
		<path class="st0" d="M413.2,52.5v-4l-3.7-5.4h1l3.2,4.6l3.2-4.6h1l-3.7,5.4v4H413.2z"/>
		<path class="st0" d="M428.8,52.5v-8.3l-3.4,8.3H425l-3.4-8.3v8.3h-0.8v-9.3h1.2l3.2,7.8l3.2-7.8h1.2v9.3H428.8z"/>
		<path class="st0" d="M433.6,52.5v-9.3h5.9v0.7h-5.1v3.5h5v0.7h-5v3.7h5.1v0.7H433.6z"/>
		<path class="st0" d="M450,52.5l-5.9-8v8h-0.8v-9.3h0.8l5.9,7.9v-7.9h0.8v9.3H450z"/>
		<path class="st0" d="M457.2,52.5v-8.6h-3.1v-0.7h6.9v0.7H458v8.6H457.2z"/>
		<path class="st0" d="M463.9,51.2l0.5-0.6c0.6,0.7,1.6,1.4,2.9,1.4c1.9,0,2.5-1.1,2.5-1.9c0-2.7-5.6-1.3-5.6-4.6
			c0-1.5,1.4-2.5,3.1-2.5c1.4,0,2.5,0.5,3.2,1.3l-0.5,0.6c-0.7-0.8-1.6-1.2-2.7-1.2c-1.2,0-2.2,0.7-2.2,1.7c0,2.4,5.6,1.1,5.6,4.6
			c0,1.2-0.8,2.6-3.3,2.6C465.8,52.7,464.6,52,463.9,51.2z"/>
	</g>
	<polygon class="st0" points="770.5,43 769.5,43 769.5,31.5 1.5,31.5 1.5,43 0.5,43 0.5,30.5 770.5,30.5 	"/>
	<path class="st0" d="M193.8,270.5H0.5V77.2h193.2V270.5z M1.5,269.5h191.2V78.2H1.5V269.5z"/>
	<path class="st0" d="M386,270.5H192.8V77.2H386V270.5z M193.8,269.5H385V78.2H193.8V269.5z"/>
	<path class="st0" d="M578.2,270.5H385V77.2h193.2V270.5z M386,269.5h191.2V78.2H386V269.5z"/>
	<path class="st0" d="M770.5,270.5H577.2V77.2h193.2V270.5z M578.2,269.5h191.2V78.2H578.2V269.5z"/>
	<g>
		<path class="st0" d="M69.7,183.2v-10.7l-4.4,10.7h-0.4l-4.4-10.7v10.7h-1v-12H61l4.1,10l4.1-10h1.5v12H69.7z"/>
		<path class="st0" d="M74.7,177.2c0-3.5,2.3-6.2,5.8-6.2c3.5,0,5.8,2.7,5.8,6.2s-2.3,6.2-5.8,6.2C77,183.4,74.7,180.7,74.7,177.2z
			 M85.3,177.2c0-3-1.9-5.3-4.8-5.3c-2.9,0-4.8,2.2-4.8,5.3c0,3,1.9,5.3,4.8,5.3C83.4,182.4,85.3,180.2,85.3,177.2z"/>
		<path class="st0" d="M98.9,183.2l-7.6-10.3v10.3h-1v-12h1l7.5,10.2v-10.2h1v12H98.9z"/>
		<path class="st0" d="M107.4,183.2v-11.1h-3.9v-0.9h8.9v0.9h-3.9v11.1H107.4z"/>
		<path class="st0" d="M124.6,183.2v-5.7H117v5.7h-1v-12h1v5.4h7.6v-5.4h1v12H124.6z"/>
		<path class="st0" d="M136,181.4l0.7-0.7c0.8,1.1,1.8,1.7,3.4,1.7c1.7,0,3-1.3,3-2.9c0-1.8-1.3-2.9-3-2.9c-1.1,0-2,0.4-2.9,1.2
			l-0.8-0.3v-6.3h6.9v0.9h-5.9v4.7c0.6-0.6,1.6-1.1,2.9-1.1c2,0,3.8,1.3,3.8,3.8c0,2.4-1.8,3.9-4.1,3.9
			C138,183.4,136.8,182.6,136,181.4z"/>
	</g>
	<g>
		<path class="st0" d="M83.4,237.3c-1.5-0.1-2.7-0.7-3.4-1.6l0.6-0.6c0.6,0.7,1.5,1.3,2.8,1.4v-4.2c-1.5-0.4-3.1-0.9-3.1-2.7
			c0-1.6,1.3-2.6,3.1-2.7v-1.4h0.7v1.4c1.3,0.1,2.2,0.6,2.9,1.4l-0.6,0.6c-0.6-0.7-1.4-1.1-2.4-1.2v3.8c1.5,0.4,3.1,1,3.1,2.9
			c0,1.2-0.8,2.7-3.1,2.8v1.3h-0.7V237.3z M83.4,231.4v-3.6c-1.2,0.1-2.2,0.8-2.2,1.8C81.3,230.7,82.3,231.1,83.4,231.4z
			 M84.1,232.5v4c1.7-0.1,2.2-1.2,2.2-2C86.4,233.4,85.3,232.9,84.1,232.5z"/>
		<path class="st0" d="M90.2,232.2c0-2.6,1.1-5.2,3.8-5.2c1.3,0,2.1,0.5,2.7,1.3l-0.5,0.6c-0.5-0.6-1.1-1.1-2.2-1.1
			c-2.2,0-3,2.3-3,4.4c0,0.2,0,0.3,0,0.5c0.4-0.7,1.6-1.7,2.9-1.7c1.8,0,3.2,1,3.2,3.2c0,1.6-1.2,3.2-3.4,3.2
			C91.1,237.3,90.2,234.9,90.2,232.2z M96.3,234.2c0-1.6-1.1-2.4-2.5-2.4c-1.1,0-2.2,0.7-2.7,1.7c0.1,1.4,0.8,3.1,2.7,3.1
			C95.5,236.6,96.3,235.2,96.3,234.2z"/>
		<path class="st0" d="M100.1,237.2v-0.7c3.4-2.7,5.7-4.7,5.7-6.6c0-1.4-1.2-2-2.3-2c-1.2,0-2.2,0.5-2.7,1.3l-0.6-0.5
			c0.7-1,1.9-1.5,3.3-1.5c1.5,0,3.1,0.8,3.1,2.8c0,2.2-2.3,4.2-5.2,6.6h5.3v0.8H100.1z"/>
		<path class="st0" d="M110.3,235.7l0.6-0.6c0.6,0.9,1.5,1.4,2.8,1.4c1.5,0,2.5-1,2.5-2.4c0-1.5-1-2.4-2.5-2.4c-0.9,0-1.7,0.3-2.4,1
			l-0.6-0.3v-5.2h5.8v0.8h-4.9v3.9c0.5-0.5,1.4-0.9,2.4-0.9c1.7,0,3.2,1.1,3.2,3.2c0,2-1.5,3.2-3.4,3.2
			C112,237.3,111,236.7,110.3,235.7z"/>
	</g>
	<g>
		<path class="st0" d="M257.4,183.2v-10.7l-4.4,10.7h-0.4l-4.4-10.7v10.7h-1v-12h1.5l4.1,10l4.1-10h1.5v12H257.4z"/>
		<path class="st0" d="M262.4,177.2c0-3.5,2.3-6.2,5.8-6.2c3.5,0,5.8,2.7,5.8,6.2s-2.3,6.2-5.8,6.2
			C264.7,183.4,262.4,180.7,262.4,177.2z M273,177.2c0-3-1.9-5.3-4.8-5.3c-2.9,0-4.8,2.2-4.8,5.3c0,3,1.9,5.3,4.8,5.3
			C271.1,182.4,273,180.2,273,177.2z"/>
		<path class="st0" d="M286.6,183.2l-7.6-10.3v10.3h-1v-12h1l7.5,10.2v-10.2h1v12H286.6z"/>
		<path class="st0" d="M295.1,183.2v-11.1h-3.9v-0.9h8.9v0.9h-3.9v11.1H295.1z"/>
		<path class="st0" d="M312.3,183.2v-5.7h-7.6v5.7h-1v-12h1v5.4h7.6v-5.4h1v12H312.3z"/>
		<path class="st0" d="M323.4,177.2c0-3.1,1.3-6.2,4.6-6.2c1.6,0,2.5,0.6,3.2,1.5l-0.6,0.7c-0.6-0.8-1.3-1.3-2.6-1.3
			c-2.6,0-3.5,2.7-3.5,5.3c0,0.2,0,0.4,0,0.6c0.5-0.8,1.9-2,3.5-2c2.2,0,3.9,1.2,3.9,3.8c0,2-1.5,3.8-4,3.8
			C324.5,183.4,323.4,180.4,323.4,177.2z M330.8,179.6c0-2-1.3-2.9-3-2.9c-1.3,0-2.6,0.8-3.3,2.1c0.1,1.6,1,3.7,3.3,3.7
			C329.8,182.4,330.8,180.9,330.8,179.6z"/>
	</g>
	<g>
		<path class="st0" d="M274.1,237.3c-1.5-0.1-2.7-0.7-3.4-1.6l0.6-0.6c0.6,0.7,1.5,1.3,2.8,1.4v-4.2c-1.5-0.4-3.1-0.9-3.1-2.7
			c0-1.6,1.3-2.6,3.1-2.7v-1.4h0.7v1.4c1.3,0.1,2.2,0.6,2.9,1.4l-0.6,0.6c-0.6-0.7-1.4-1.1-2.4-1.2v3.8c1.5,0.4,3.1,1,3.1,2.9
			c0,1.2-0.8,2.7-3.1,2.8v1.3h-0.7V237.3z M274.1,231.4v-3.6c-1.2,0.1-2.2,0.8-2.2,1.8C271.9,230.7,272.9,231.1,274.1,231.4z
			 M274.8,232.5v4c1.7-0.1,2.2-1.2,2.2-2C277,233.4,276,232.9,274.8,232.5z"/>
		<path class="st0" d="M280.8,232.2c0-2.6,1.1-5.2,3.8-5.2c1.3,0,2.1,0.5,2.7,1.3l-0.5,0.6c-0.5-0.6-1.1-1.1-2.2-1.1
			c-2.2,0-3,2.3-3,4.4c0,0.2,0,0.3,0,0.5c0.4-0.7,1.6-1.7,2.9-1.7c1.8,0,3.2,1,3.2,3.2c0,1.6-1.2,3.2-3.4,3.2
			C281.8,237.3,280.8,234.9,280.8,232.2z M287,234.2c0-1.6-1.1-2.4-2.5-2.4c-1.1,0-2.2,0.7-2.7,1.7c0.1,1.4,0.8,3.1,2.7,3.1
			C286.2,236.6,287,235.2,287,234.2z"/>
		<path class="st0" d="M290.8,237.2v-0.7c3.4-2.7,5.7-4.7,5.7-6.6c0-1.4-1.2-2-2.3-2c-1.2,0-2.2,0.5-2.7,1.3l-0.6-0.5
			c0.7-1,1.9-1.5,3.3-1.5c1.5,0,3.1,0.8,3.1,2.8c0,2.2-2.3,4.2-5.2,6.6h5.3v0.8H290.8z"/>
		<path class="st0" d="M301,235.7l0.6-0.6c0.6,0.9,1.5,1.4,2.8,1.4c1.5,0,2.5-1,2.5-2.4c0-1.5-1-2.4-2.5-2.4c-0.9,0-1.7,0.3-2.4,1
			l-0.6-0.3v-5.2h5.8v0.8h-4.9v3.9c0.5-0.5,1.4-0.9,2.4-0.9c1.7,0,3.2,1.1,3.2,3.2c0,2-1.5,3.2-3.4,3.2
			C302.7,237.3,301.6,236.7,301,235.7z"/>
	</g>
	<g>
		<path class="st0" d="M448,179.8v-10.7l-4.4,10.7h-0.4l-4.4-10.7v10.7h-1v-12h1.5l4.1,10l4.1-10h1.5v12H448z"/>
		<path class="st0" d="M453,173.8c0-3.5,2.3-6.2,5.8-6.2c3.5,0,5.8,2.7,5.8,6.2c0,3.5-2.3,6.2-5.8,6.2
			C455.3,180,453,177.3,453,173.8z M463.6,173.8c0-3-1.9-5.3-4.8-5.3c-2.9,0-4.8,2.2-4.8,5.3c0,3,1.9,5.3,4.8,5.3
			C461.8,179.1,463.6,176.9,463.6,173.8z"/>
		<path class="st0" d="M477.3,179.8l-7.6-10.3v10.3h-1v-12h1l7.5,10.2v-10.2h1v12H477.3z"/>
		<path class="st0" d="M485.8,179.8v-11.1h-3.9v-0.9h8.9v0.9h-3.9v11.1H485.8z"/>
		<path class="st0" d="M502.9,179.8v-5.7h-7.6v5.7h-1v-12h1v5.4h7.6v-5.4h1v12H502.9z"/>
		<path class="st0" d="M515.2,179.8l5-11.1h-6.6v-0.9h7.9v0.7l-5.1,11.3H515.2z"/>
	</g>
	<g>
		<path class="st0" d="M464.8,234c-1.5-0.1-2.7-0.7-3.4-1.6l0.6-0.6c0.6,0.7,1.5,1.3,2.8,1.4V229c-1.5-0.4-3.1-0.9-3.1-2.7
			c0-1.6,1.3-2.6,3.1-2.7v-1.4h0.7v1.4c1.3,0.1,2.2,0.6,2.9,1.4l-0.6,0.6c-0.6-0.7-1.4-1.1-2.4-1.2v3.8c1.5,0.4,3.2,1,3.2,2.9
			c0,1.2-0.8,2.7-3.2,2.8v1.3h-0.7V234z M464.8,228.1v-3.6c-1.2,0.1-2.2,0.8-2.2,1.8C462.6,227.3,463.6,227.7,464.8,228.1z
			 M465.5,229.2v4c1.7-0.1,2.2-1.2,2.2-2C467.7,230,466.7,229.6,465.5,229.2z"/>
		<path class="st0" d="M471.5,228.8c0-2.6,1.1-5.2,3.8-5.2c1.3,0,2.1,0.5,2.7,1.3l-0.5,0.6c-0.5-0.6-1.1-1.1-2.2-1.1
			c-2.2,0-3,2.3-3,4.4c0,0.2,0,0.3,0,0.5c0.4-0.7,1.6-1.7,2.9-1.7c1.8,0,3.2,1,3.2,3.2c0,1.6-1.2,3.2-3.4,3.2
			C472.5,234,471.5,231.5,471.5,228.8z M477.7,230.8c0-1.6-1.1-2.4-2.5-2.4c-1.1,0-2.2,0.7-2.7,1.7c0.1,1.4,0.8,3.1,2.7,3.1
			C476.9,233.2,477.7,231.9,477.7,230.8z"/>
		<path class="st0" d="M481.4,233.8v-0.7c3.4-2.7,5.7-4.7,5.7-6.6c0-1.4-1.2-2-2.3-2c-1.2,0-2.2,0.5-2.7,1.3l-0.6-0.5
			c0.7-1,1.9-1.5,3.3-1.5c1.5,0,3.1,0.8,3.1,2.8c0,2.2-2.3,4.2-5.2,6.6h5.3v0.8H481.4z"/>
		<path class="st0" d="M491.6,232.4l0.6-0.6c0.6,0.9,1.5,1.4,2.8,1.4c1.5,0,2.5-1,2.5-2.4c0-1.5-1-2.4-2.5-2.4c-0.9,0-1.7,0.3-2.4,1
			l-0.6-0.3v-5.2h5.8v0.8h-4.9v3.9c0.5-0.5,1.4-0.9,2.4-0.9c1.7,0,3.2,1.1,3.2,3.2c0,2-1.5,3.2-3.4,3.2
			C493.3,234,492.3,233.4,491.6,232.4z"/>
	</g>
	<g>
		<path class="st0" d="M639.4,179.8v-10.7l-4.4,10.7h-0.4l-4.4-10.7v10.7h-1v-12h1.5l4.1,10l4.1-10h1.5v12H639.4z"/>
		<path class="st0" d="M644.4,173.8c0-3.5,2.3-6.2,5.8-6.2c3.5,0,5.8,2.7,5.8,6.2s-2.3,6.2-5.8,6.2
			C646.7,180,644.4,177.3,644.4,173.8z M655,173.8c0-3-1.9-5.3-4.8-5.3c-2.9,0-4.8,2.2-4.8,5.3c0,3,1.9,5.3,4.8,5.3
			C653.1,179.1,655,176.9,655,173.8z"/>
		<path class="st0" d="M668.6,179.8l-7.6-10.3v10.3h-1v-12h1l7.5,10.2v-10.2h1v12H668.6z"/>
		<path class="st0" d="M677.1,179.8v-11.1h-3.9v-0.9h8.9v0.9h-3.9v11.1H677.1z"/>
		<path class="st0" d="M694.3,179.8v-5.7h-7.6v5.7h-1v-12h1v5.4h7.6v-5.4h1v12H694.3z"/>
		<path class="st0" d="M705.4,176.8c0-1.7,1.5-2.8,3-3.2c-1.4-0.4-2.8-1.3-2.8-2.9c0-2.1,2-3.1,3.9-3.1c1.9,0,3.9,1,3.9,3.1
			c0,1.6-1.4,2.5-2.8,2.9c1.5,0.4,3,1.5,3,3.2c0,1.9-1.8,3.2-4.1,3.2C707.2,180,705.4,178.8,705.4,176.8z M712.5,176.8
			c0-1.8-2.3-2.6-3-2.6c-0.7,0.1-3,0.8-3,2.6c0,1.5,1.4,2.4,3,2.4C711,179.1,712.5,178.2,712.5,176.8z M712.3,170.8
			c0-1.4-1.3-2.3-2.8-2.3s-2.8,0.8-2.8,2.3c0,1.7,2.1,2.2,2.8,2.4C710.2,173.1,712.3,172.5,712.3,170.8z"/>
	</g>
	<g>
		<path class="st0" d="M656.1,234c-1.5-0.1-2.7-0.7-3.4-1.6l0.6-0.6c0.6,0.7,1.5,1.3,2.8,1.4V229c-1.5-0.4-3.1-0.9-3.1-2.7
			c0-1.6,1.3-2.6,3.1-2.7v-1.4h0.7v1.4c1.3,0.1,2.2,0.6,2.9,1.4l-0.6,0.6c-0.6-0.7-1.4-1.1-2.4-1.2v3.8c1.5,0.4,3.2,1,3.2,2.9
			c0,1.2-0.8,2.7-3.2,2.8v1.3h-0.7V234z M656.1,228.1v-3.6c-1.2,0.1-2.2,0.8-2.2,1.8C653.9,227.3,654.9,227.7,656.1,228.1z
			 M656.8,229.2v4c1.7-0.1,2.2-1.2,2.2-2C659,230,658,229.6,656.8,229.2z"/>
		<path class="st0" d="M662.8,228.8c0-2.6,1.1-5.2,3.8-5.2c1.3,0,2.1,0.5,2.7,1.3l-0.5,0.6c-0.5-0.6-1.1-1.1-2.2-1.1
			c-2.2,0-3,2.3-3,4.4c0,0.2,0,0.3,0,0.5c0.4-0.7,1.6-1.7,2.9-1.7c1.8,0,3.2,1,3.2,3.2c0,1.6-1.2,3.2-3.4,3.2
			C663.8,234,662.8,231.5,662.8,228.8z M669,230.8c0-1.6-1.1-2.4-2.5-2.4c-1.1,0-2.2,0.7-2.7,1.7c0.1,1.4,0.8,3.1,2.7,3.1
			C668.2,233.2,669,231.9,669,230.8z"/>
		<path class="st0" d="M672.8,233.8v-0.7c3.4-2.7,5.7-4.7,5.7-6.6c0-1.4-1.2-2-2.3-2c-1.2,0-2.2,0.5-2.7,1.3l-0.6-0.5
			c0.7-1,1.9-1.5,3.3-1.5c1.5,0,3.1,0.8,3.1,2.8c0,2.2-2.3,4.2-5.2,6.6h5.3v0.8H672.8z"/>
		<path class="st0" d="M683,232.4l0.6-0.6c0.6,0.9,1.5,1.4,2.8,1.4c1.5,0,2.5-1,2.5-2.4c0-1.5-1-2.4-2.5-2.4c-0.9,0-1.7,0.3-2.4,1
			l-0.6-0.3v-5.2h5.8v0.8h-4.9v3.9c0.5-0.5,1.4-0.9,2.4-0.9c1.7,0,3.2,1.1,3.2,3.2c0,2-1.5,3.2-3.4,3.2
			C684.7,234,683.6,233.4,683,232.4z"/>
	</g>
</g>
</svg>
