<?xml version="1.0" encoding="utf-8"?>
<!-- Generator: Adobe Illustrator 19.0.0, SVG Export Plug-In . SVG Version: 6.00 Build 0)  -->
<!DOCTYPE svg PUBLIC "-//W3C//DTD SVG 1.1//EN" "http://www.w3.org/Graphics/SVG/1.1/DTD/svg11.dtd">
<svg version="1.1" id="Layer_1" xmlns="http://www.w3.org/2000/svg" xmlns:xlink="http://www.w3.org/1999/xlink" x="0px" y="0px"
	 viewBox="0 0 1138 88" style="enable-background:new 0 0 1138 88;" xml:space="preserve">
<style type="text/css">
	.st0{fill:#ACACAC;}
	.st1{filter:url(#Adobe_OpacityMaskFilter);}
	.st2{fill:#FFFFFF;}
	.st3{mask:url(#b_1_);fill:#ACACAC;}
	.st4{filter:url(#Adobe_OpacityMaskFilter_1_);}
	.st5{mask:url(#b_2_);fill:#ACACAC;}
	.st6{fill:#919191;}
	.st7{fill:#EAE9E6;}
</style>
<g>
	<path class="st0" d="M94.8,43c0,14.8,8.6,27.6,21.1,33.7L98,27.8C96,32.4,94.8,37.6,94.8,43z M157.5,41.1c0-4.6-1.7-7.8-3.1-10.3
		c-1.9-3.1-3.7-5.7-3.7-8.8c0-3.4,2.6-6.6,6.3-6.6c0.2,0,0.3,0,0.5,0c-6.7-6.1-15.5-9.8-25.3-9.8c-13.1,0-24.6,6.7-31.3,16.9
		c0.9,0,1.7,0,2.4,0c3.9,0,10-0.5,10-0.5c2-0.1,2.3,2.8,0.2,3.1c0,0-2,0.2-4.3,0.4L122.9,66l8.2-24.6l-5.8-16
		c-2-0.1-3.9-0.4-3.9-0.4c-2-0.1-1.8-3.2,0.2-3.1c0,0,6.2,0.5,9.9,0.5c3.9,0,10-0.5,10-0.5c2-0.1,2.3,2.8,0.2,3.1c0,0-2,0.2-4.3,0.4
		l13.5,40.2l3.7-12.5C156.5,48.3,157.5,44.3,157.5,41.1z M132.9,46.3l-11.2,32.6c3.4,1,6.9,1.5,10.6,1.5c4.4,0,8.5-0.8,12.4-2.1
		c-0.1-0.2-0.2-0.3-0.3-0.5L132.9,46.3z M165,25.1c0.2,1.2,0.3,2.5,0.3,3.8c0,3.8-0.7,8.1-2.8,13.4l-11.4,33
		c11.1-6.5,18.6-18.5,18.6-32.3C169.6,36.5,167.9,30.4,165,25.1z"/>
	<g>
		<path class="st0" d="M88.6,43c0,24,19.6,43.6,43.6,43.6c24,0,43.6-19.6,43.6-43.6c0-24-19.6-43.6-43.6-43.6
			C108.2-0.6,88.6,19,88.6,43z M90.6,43c0-22.9,18.7-41.6,41.6-41.6c22.9,0,41.6,18.7,41.6,41.6c0,22.9-18.7,41.6-41.6,41.6
			C109.3,84.6,90.6,65.9,90.6,43z"/>
	</g>
</g>
<path class="st0" d="M420.5,54.5l-8.3-6l3.2-9.8h10.3l3.2,9.8C428.8,48.5,420.5,54.5,420.5,54.5z M442.6,38.6l-8.5-6.2l-8.2,6
	l3.1-9.7l-8.5-6.2l-8.5,6.2l3.1,9.7l-8.2-6l-8.5,6.2l3.2,9.9l0,0.1h10.2l-8.2,6l3.2,9.9l0,0.1h10.5l3.1-9.7l3.1,9.6l0,0.1h10.5
	l3.2-10l-8.2-6h10.2L442.6,38.6L442.6,38.6z"/>
<g>
	<defs>
		<filter id="Adobe_OpacityMaskFilter" filterUnits="userSpaceOnUse" x="474.2" y="28.2" width="37.5" height="37.5">
			<feColorMatrix  type="matrix" values="1 0 0 0 0  0 1 0 0 0  0 0 1 0 0  0 0 0 1 0"/>
		</filter>
	</defs>
	<mask maskUnits="userSpaceOnUse" x="474.2" y="28.2" width="37.5" height="37.5" id="b_1_">
		<g class="st1">
			<path id="a_1_" class="st2" d="M474.3,28.2h96.1v37.5h-96.1"/>
		</g>
	</mask>
	<path class="st3" d="M495.3,28.2h-21.1v4.7h21.1l4.7,4.7l4.7-4.7h7v-4.7h-7l-4.7,4.7L495.3,28.2 M490.7,37.6h-16.4v4.7h16.4
		l4.7,4.7l4.7-4.7h11.7v-4.7H500l-4.7,4.7L490.7,37.6 M486,47h-11.7v4.7H486l4.7,4.7l4.7-4.7h16.4V47h-16.4l-4.7,4.7L486,47
		 M481.3,56.4h-7v4.7h7l4.7,4.7l4.7-4.7h21.1v-4.7h-21.1l-4.7,4.7L481.3,56.4"/>
</g>
<g id="Page-1">
	<defs>
		<filter id="Adobe_OpacityMaskFilter_1_" filterUnits="userSpaceOnUse" x="327.2" y="27.3" width="35.5" height="35.5">
			<feColorMatrix  type="matrix" values="1 0 0 0 0  0 1 0 0 0  0 0 1 0 0  0 0 0 1 0"/>
		</filter>
	</defs>
	<mask maskUnits="userSpaceOnUse" x="327.2" y="27.3" width="35.5" height="35.5" id="b_2_">
		<g class="st4">
			<path id="a_2_" class="st2" d="M327.3,27.2h225.5v36.1H327.3V27.2z"/>
		</g>
	</mask>
	<path class="st5" d="M327.2,54.5v7.7l0.6,0.6h34.3l0.6-0.6v-7.7l-0.5-0.5l-16.7,2.8l-0.5-0.5v-5.3l-17,2.8L327.2,54.5z M362.8,35.5
		v-7.7l-0.6-0.6h-34.3l-0.6,0.6v7.7l0.5,0.5l16.7-2.8l0.5,0.5v5.3l17-2.8C362,36.2,362.8,35.5,362.8,35.5z M362,48.1l0.7-0.7v-4.7
		l-0.5-0.5L345,45v5.9L362,48.1L362,48.1z M345,39.1V45l-17.3,2.9l-0.5-0.5v-4.7l0.7-0.7L345,39.1z"/>
</g>
<g>
	<path class="st6" d="M670.8,67.6l-9.7-5.5l-9.7-23.5l0-4.4l-2.4-1.4l-4-9.7v-3.8l3.2,1.8v3.7l3.3,1.9l0-3.7l6.4,3.7l0.3,3.7
		l9.3,24.2l6.5,3.8v7.4l-3.2-1.9L670.8,67.6"/>
	<path class="st0" d="M664.3,26.7l6.5,16.8l0,9.2l-3.3,1.9l-9.3-24.2l-0.3-3.6l6.4-3.7L664.3,26.7"/>
	<path class="st0" d="M648.2,21.2v3.7l3.3-1.8L648.2,21.2"/>
	<path class="st2" d="M651.5,26.8l0-3.7l-3.3,1.8L651.5,26.8"/>
	<path class="st6" d="M670.8,52.7l3.2,1.8l3.6-9l2.8,1.6v-8.6l0.9-2.1l2.4,1.4v-3.7l-3.2-1.9l3.2-1.9l-3.2-1.8l0-3.7l-3.2-1.8v3.5
		l-3.3,8.5v4.6l-2.3,1.3l-0.9,2.4L670.8,52.7"/>
	<path class="st0" d="M670.7,56.5l3.2,1.9l0,7.4l6.5-3.7l16.1-39l0-3.7l-9.7,5.6v7.4l-3.2,1.9v3.7l-2.4-1.4l-0.9,2.1v8.6l-4.5,2.6
		l-1.9,4.8L670.7,56.5"/>
	<path class="st6" d="M661.1,32.3l3.2,1.8v-3.7l-3.2-1.9V32.3"/>
	<path class="st0" d="M654.7,39.7v3.8l3.2-1.9L654.7,39.7"/>
	<path class="st2" d="M661.2,43.5l-3.3,1.9l-3.2-1.9l3.2-1.9L661.2,43.5"/>
	<path class="st0" d="M661.1,54.6v3.8l3.3-1.9L661.1,54.6"/>
	<path class="st2" d="M667.5,62l3.3,1.9l0-3.8L667.5,62"/>
	<path class="st0" d="M670.8,67.6l0-3.7l3.2,1.8L670.8,67.6"/>
	<path class="st2" d="M670.8,52.7l-3.3,1.9l3.2,1.9l3.3-1.9L670.8,52.7"/>
	<path class="st6" d="M686.8,32.3v-7.4l-3.2-1.8v3.7l-3.2,1.8L686.8,32.3"/>
	<path class="st2" d="M680.4,32.3l3.2-1.9l3.2,1.9l-3.2,1.9L680.4,32.3"/>
	<path class="st0" d="M680.5,28.6l3.2-1.8v-3.7l-3.2,1.8L680.5,28.6"/>
	<path class="st6" d="M690.1,19.3l0-3.7l3.1,1.9L690.1,19.3"/>
	<path class="st7" d="M696.5,19.3l-9.7,5.6l-3.2-1.8l-3.2,1.8l-3.2-1.8c0,0,4-2.4,5.6-3.3c1.3-0.7,3.9-2.3,3.9-2.3l3.3,1.8l3.1-1.8
		C693.2,17.5,696.1,19,696.5,19.3C695.6,19.8,696.5,19.3,696.5,19.3"/>
	<path class="st7" d="M664.3,23.1l-6.4,3.7L645,19.3l6.4-3.7L664.3,23.1"/>
	<path class="st6" d="M693.3,24.8v-3.6l-3.1,1.8L693.3,24.8"/>
	<path class="st6" d="M683.7,41.6l3.1-1.8v3.6L683.7,41.6"/>
	<path class="st2" d="M677.2,56.5v3.7l3.3-1.9L677.2,56.5"/>
	<path class="st6" d="M680.5,58.3l0-3.7l-3.2,1.9L680.5,58.3"/>
</g>
<g>
	<polygon class="st0" points="740.6,41.2 750.5,49.1 743.9,32.8 	"/>
	<path class="st0" d="M743.5,17.2c-14.1,0-25.5,11.4-25.5,25.5c0,14.1,11.4,25.5,25.5,25.5c14.1,0,25.5-11.4,25.5-25.5
		C769,28.6,757.6,17.2,743.5,17.2z M754,55.4c-0.5,0-0.9-0.2-1.4-0.6l-13.2-10.6L735,55.2h-3.8l11.1-26.8c0.3-0.7,0.9-1.1,1.6-1.1
		c0.7,0,1.3,0.4,1.6,1.1l10.2,24.4c0.1,0.3,0.2,0.6,0.2,0.8C755.8,54.7,755,55.4,754,55.4z"/>
</g>
<g>
	<path class="st0" d="M1021.2,22.3c0.5,0.4,0.9,0.7,1.2,1c2.4,2.4,3.7,5.2,3.7,8.7c0,7.3,0,14.5,0,21.8c0,4.6-2,8.1-6,10.4
		c-6.3,3.7-12.7,7.4-19.1,11c-3.9,2.2-7.9,2.2-11.9,0c-6.4-3.6-12.7-7.3-19.1-11c-3.9-2.3-5.9-5.8-6-10.3c-0.1-7.3-0.1-14.6,0-21.9
		c0-4.5,2-8,5.9-10.3c6.3-3.7,12.6-7.3,19-10.9c3.7-2.1,7.5-2.3,11.3-0.4c0.9,0.4,1,0.1,1-0.7c0-1.9,1-3.1,2.6-4
		c2.2-1.2,4.4-2.5,6.6-3.8c1.6-0.9,3.2-0.9,4.8,0c2.2,1.3,4.4,2.6,6.7,3.8c1.7,0.9,2.5,2.3,2.5,4.2c0,2.6,0,5.2,0,7.9
		C1024.4,19.8,1023.3,21.3,1021.2,22.3z M1022.8,42.9c0-3.7,0-7.4,0-11.1c0-2.6-1.1-4.7-3-6.5c-1.5-1.4-1.7-1.4-3.4-0.3
		c-0.4,0.2-0.7,0.4-1.1,0.6c-1.6,0.9-3.3,1-4.9,0c-1.5-0.9-3-1.9-4.6-2.6c-3.3-1.5-5.1-3.7-4.5-7.5c0.1-0.4,0.1-0.9-0.4-1.3
		c-3.1-2.2-6.8-2.8-10-0.9c-6.4,3.7-12.9,7.4-19.3,11.1c-2.8,1.6-4.2,4.1-4.2,7.3c0,7.4,0,14.8,0,22.2c0,3.2,1.4,5.6,4.2,7.2
		c6.4,3.8,12.9,7.5,19.4,11.2c2.7,1.6,5.6,1.6,8.3,0c6.5-3.7,13-7.4,19.4-11.2c2.7-1.6,4.1-4.1,4.2-7.2
		C1022.9,50.3,1022.8,46.6,1022.8,42.9z M1014.7,9.7C1014.7,9.7,1014.7,9.7,1014.7,9.7c-1.5,0-3.1,0-4.6,0c-1.7,0-2.4,0.7-2.8,2.3
		c-0.3,1.6-0.5,3.1-0.8,4.7c-0.2,1.4,0.3,1.8,1.6,1.4c0.8-0.2,0.7-1,0.8-1.6c0.1-1,0.5-1.4,1.5-1.4c2.4,0.1,4.7,0,7.1,0
		c1,0,1.1-0.7,1.2-1.4c0.1-0.9-0.6-0.7-1.2-0.7c-2.3,0-4.6,0-6.8,0c-0.4,0-1.1,0.3-1.1-0.5c0-0.7,0.6-0.7,1.1-0.7c1.3,0,2.6,0,3.9,0
		c1.5,0,3,0,4.5,0c1,0,1.2-0.7,1.2-1.4c0-0.9-0.7-0.7-1.2-0.7C1017.7,9.7,1016.2,9.7,1014.7,9.7z"/>
	<path class="st0" d="M994.8,54.3c-6.6,0-13.1,0-19.7,0c-0.9,0-1.2-0.2-1.3-1.2c-0.5-4.9-0.3-9.8,1.4-14.5c1.6-4.4,4.3-7.7,9.1-8.8
		c1-0.2,2-0.4,3.1-0.4c9.1,0,18.3,0,27.4,0c1.1,0,1.3,0.3,1.3,1.3c-0.1,1.5-0.1,3,0,4.5c0.1,1.1-0.3,1.4-1.3,1.4c-8.7,0-17.3,0-26,0
		c-4.1,0-5.7,1.2-6.9,5.1c-0.4,1.4-0.6,2.8-0.9,4.3c-0.1,0.9,0.1,1.2,1,1.2c2,0,4,0,5.9,0c6.4,0,12.9,0,19.3,0
		c1.2,0,1.6-0.3,1.5-1.5c-0.1-2.4,0-2.4,2.3-2.4c1.3,0,2.6,0,3.9,0c0.6,0,0.9,0.2,0.9,0.9c0,3.1,0,6.2,0,9.3c0,1-0.6,0.9-1.2,0.9
		C1008,54.3,1001.4,54.3,994.8,54.3z"/>
</g>
<path class="st2" d="M657.9,30.5l3.2-1.9v3.7L657.9,30.5"/>
</svg>
