<?xml version="1.0" encoding="utf-8"?>
<!-- Generator: Adobe Illustrator 19.0.0, SVG Export Plug-In . SVG Version: 6.00 Build 0)  -->
<!DOCTYPE svg PUBLIC "-//W3C//DTD SVG 1.1//EN" "http://www.w3.org/Graphics/SVG/1.1/DTD/svg11.dtd">
<svg version="1.1" id="Layer_1" xmlns="http://www.w3.org/2000/svg" xmlns:xlink="http://www.w3.org/1999/xlink" x="0px" y="0px"
	 viewBox="0 0 38 38" style="enable-background:new 0 0 38 38;" xml:space="preserve">
<style type="text/css">
	.st0{clip-path:url(#XMLID_7_);fill:#929292;}
</style>
<g id="Microphone_3_">
	<defs>
		<rect id="XMLID_1_" x="9.9" width="18.3" height="38"/>
	</defs>
	<clipPath id="XMLID_7_">
		<use xlink:href="#XMLID_1_"  style="overflow:visible;"/>
	</clipPath>
	<path class="st0" d="M19,0c-3.5,0-6.3,2.8-6.3,6.3v14.1c0,3.5,2.8,6.3,6.3,6.3c3.5,0,6.3-2.8,6.3-6.3V6.3C25.3,2.8,22.5,0,19,0z
		 M19,1.4c2.9,0,4.9,2.1,4.9,4.9v6.3h-9.9V6.3C14.1,3.5,16.1,1.4,19,1.4z M19,25.3c-2.9,0-4.9-2.1-4.9-4.9v-6.3h9.9v6.3
		C23.9,23.3,21.9,25.3,19,25.3z"/>
	<path id="XMLID_2_" class="st0" d="M26.7,12.7v7.7c0,4.4-3.3,7.7-7.7,7.7c-4.4,0-7.7-3.3-7.7-7.7v-7.7H9.9v7.7
		c0,4.8,3.7,8.8,8.4,9.1v7.1h-4.2V38h9.9v-1.4h-4.2v-7.1c4.7-0.4,8.4-4.3,8.4-9.1v-7.7H26.7z"/>
</g>
</svg>
