<?xml version="1.0" encoding="utf-8"?>
<!-- Generator: Adobe Illustrator 19.0.0, SVG Export Plug-In . SVG Version: 6.00 Build 0)  -->
<!DOCTYPE svg PUBLIC "-//W3C//DTD SVG 1.1//EN" "http://www.w3.org/Graphics/SVG/1.1/DTD/svg11.dtd">
<svg version="1.1" id="Layer_1" xmlns="http://www.w3.org/2000/svg" xmlns:xlink="http://www.w3.org/1999/xlink" x="0px" y="0px"
	 viewBox="0 0 38 38" style="enable-background:new 0 0 38 38;" xml:space="preserve">
<style type="text/css">
	.st0{fill:#F4F4F4;}
</style>
<path id="XMLID_4_" class="st0" d="M19,28.4l-7.1-5.2l2.7-8.4h8.8l2.7,8.4C26.1,23.2,19,28.4,19,28.4z M38,14.7l-7.3-5.3l-7.1,5.2
	l2.7-8.3L19,0.9l-7.3,5.3l2.7,8.3L7.3,9.4L0,14.7l2.8,8.5l0,0h8.8l-7.1,5.2L7.2,37l0,0h9l2.7-8.3l2.7,8.3l0,0h9l2.8-8.6l-7.1-5.2
	h8.8L38,14.7L38,14.7z"/>
</svg>
