<?xml version="1.0" encoding="utf-8"?>
<!-- Generator: Adobe Illustrator 19.0.0, SVG Export Plug-In . SVG Version: 6.00 Build 0)  -->
<!DOCTYPE svg PUBLIC "-//W3C//DTD SVG 1.1//EN" "http://www.w3.org/Graphics/SVG/1.1/DTD/svg11.dtd">
<svg version="1.1" id="Layer_1" xmlns="http://www.w3.org/2000/svg" xmlns:xlink="http://www.w3.org/1999/xlink" x="0px" y="0px"
	 viewBox="0 0 34 38" style="enable-background:new 0 0 34 38;" xml:space="preserve">
<style type="text/css">
	.st0{clip-path:url(#XMLID_9_);fill:#929292;}
</style>
<g id="User_x5F_Add">
	<defs>
		<rect id="XMLID_1_" x="0.5" width="33.1" height="38"/>
	</defs>
	<clipPath id="XMLID_9_">
		<use xlink:href="#XMLID_1_"  style="overflow:visible;"/>
	</clipPath>
	<path id="XMLID_15_" class="st0" d="M25.6,1.2c3.7,0,6.7,3,6.7,6.7s-3,6.7-6.7,6.7c-3.7,0-6.7-3-6.7-6.7S21.9,1.2,25.6,1.2 M25.6,0
		c-4.4,0-8,3.6-8,8s3.6,8,8,8c4.4,0,8-3.6,8-8S30,0,25.6,0L25.6,0z"/>
	<polygon id="XMLID_5_" class="st0" points="29.9,7.4 26.2,7.4 26.2,3.7 25,3.7 25,7.4 21.3,7.4 21.3,8.6 25,8.6 25,12.3 26.2,12.3 
		26.2,8.6 29.9,8.6 	"/>
	<path id="XMLID_11_" class="st0" d="M28.6,33.1L27.5,27c-1.3-4.1-5.2-7.4-13-7.4c-7.8,0-11.8,3.2-13,7.4l-1.1,6.1
		c0,0.9,2.2,1.7,5.7,2.2l-0.1,0.5c0,1.2,3.8,2.2,8.5,2.2c4.7,0,8.5-1,8.5-2.2L23,35.3C26.4,34.8,28.6,34,28.6,33.1z M22.8,34.1
		l-0.4-3.4h-1.1l0.4,4.8l0,0.2c-0.7,0.4-3.2,1.2-7.2,1.2c-4,0-6.5-0.7-7.2-1.2l0-0.2l0.4-4.8H6.6l-0.4,3.4c-3-0.4-4.1-0.9-4.5-1.2
		l1-5.6c1.2-4.1,5.4-6.4,11.8-6.4c6.3,0,10.4,2.3,11.8,6.4l1,5.6C27,33.1,25.8,33.6,22.8,34.1z"/>
	<path id="XMLID_2_" class="st0" d="M19.2,14.6c-1,1.5-2.7,2.6-4.7,2.6c-3,0-5.5-2.5-5.5-5.5c0-3,2.5-5.5,5.5-5.5
		c0.7,0,1.4,0.1,2,0.4c0.1-0.4,0.2-0.8,0.3-1.2c-0.7-0.2-1.5-0.4-2.2-0.4c-3.7,0-6.7,3-6.7,6.7c0,3.7,3,6.7,6.7,6.7
		c2.3,0,4.4-1.2,5.6-3C19.8,15.1,19.5,14.9,19.2,14.6z"/>
</g>
</svg>
