<?xml version="1.0" encoding="utf-8"?>
<!-- Generator: Adobe Illustrator 19.0.0, SVG Export Plug-In . SVG Version: 6.00 Build 0)  -->
<!DOCTYPE svg PUBLIC "-//W3C//DTD SVG 1.1//EN" "http://www.w3.org/Graphics/SVG/1.1/DTD/svg11.dtd">
<svg version="1.1" id="Layer_1" xmlns="http://www.w3.org/2000/svg" xmlns:xlink="http://www.w3.org/1999/xlink" x="0px" y="0px"
	 viewBox="0 0 38 38" style="enable-background:new 0 0 38 38;" xml:space="preserve">
<style type="text/css">
	.st0{clip-path:url(#XMLID_10_);fill:#929292;}
</style>
<g id="Origami_4_">
	<defs>
		<rect id="XMLID_1_" x="0.6" width="36.8" height="38"/>
	</defs>
	<clipPath id="XMLID_10_">
		<use xlink:href="#XMLID_1_"  style="overflow:visible;"/>
	</clipPath>
	<path class="st0" d="M30,2.5l-6.7,6.7L14.1,0H0.6l13.5,13.5v4.9L8,24.5V38L30,15.9V9.8l7.4-7.4H30z M9.2,35.4v-9.5l4.7,4.7
		L9.2,35.4z M14.1,29.3l-4.7-4.7l4.7-4.7V29.3z M14.1,12.1L3.2,1.2h10.9V12.1z M15.3,29.3V2.6l13.3,13.3L15.3,29.3z M28.8,14.7
		L24,9.9l4.8-4.8V14.7z M30,8.4V3.8l0.2-0.2h4.6L30,8.4z"/>
</g>
</svg>
