<?xml version="1.0" encoding="utf-8"?>
<!-- Generator: Adobe Illustrator 19.0.0, SVG Export Plug-In . SVG Version: 6.00 Build 0)  -->
<!DOCTYPE svg PUBLIC "-//W3C//DTD SVG 1.1//EN" "http://www.w3.org/Graphics/SVG/1.1/DTD/svg11.dtd">
<svg version="1.1" id="Layer_1" xmlns="http://www.w3.org/2000/svg" xmlns:xlink="http://www.w3.org/1999/xlink" x="0px" y="0px"
	 viewBox="0 0 38 38" style="enable-background:new 0 0 38 38;" xml:space="preserve">
<style type="text/css">
	.st0{clip-path:url(#XMLID_8_);fill:#929292;}
	.st1{clip-path:url(#XMLID_8_);fill:#909191;}
	.st2{clip-path:url(#XMLID_8_);fill:none;}
</style>
<g id="TV_x5F_onDemand_1_">
	<defs>
		<rect id="XMLID_1_" y="4.1" width="38" height="29.9"/>
	</defs>
	<clipPath id="XMLID_8_">
		<use xlink:href="#XMLID_1_"  style="overflow:visible;"/>
	</clipPath>
	<path class="st0" d="M15,10.6c0.5,0,0.9,0.2,1.4,0.5l8.3,5c0.9,0.5,1.4,1,1.4,1.6c0,0.6-0.5,1-1.1,1.4l-0.9,0.5l-7.7,4.7
		c-0.4,0.3-0.9,0.4-1.4,0.4c-0.9,0-1.7-0.7-1.7-1.5V12.1C13.3,11.3,14,10.6,15,10.6 M15,9.5c-1.5,0-2.7,1.2-2.7,2.6v11.1
		c0,1.4,1.2,2.6,2.7,2.6c0.7,0,1.4-0.2,2-0.6l7.7-4.7v0l0.6-0.4c0.7-0.4,1.9-1.2,1.9-2.5c0-1-0.6-1.8-1.9-2.5l-8.3-5
		C16.3,9.7,15.6,9.5,15,9.5L15,9.5z"/>
	<path class="st1" d="M35.3,4.1H2.7C1.2,4.1,0,5.3,0,6.8v21.7c0,1.5,1.2,2.7,2.7,2.7h15.6v1.4H8.8v1.4h20.4v-1.4h-9.5v-1.4h15.6
		c1.5,0,2.7-1.2,2.7-2.7V6.8C38,5.3,36.8,4.1,35.3,4.1z M36.6,28.5c0,0.7-0.6,1.4-1.4,1.4H2.7c-0.7,0-1.4-0.6-1.4-1.4V6.8
		C1.4,6,2,5.4,2.7,5.4h32.6c0.7,0,1.4,0.6,1.4,1.4V28.5z"/>
	<rect id="XMLID_2_" y="4.1" class="st2" width="38" height="29.9"/>
</g>
</svg>
